<svg width="93" height="92" viewBox="0 0 93 92" fill="none" xmlns="http://www.w3.org/2000/svg">
<path d="M91.9527 71.8406C91.8503 70.8236 91.0569 70.0769 90.289 69.343L90.2762 69.3301C89.0989 68.1586 87.8959 66.9355 86.5777 65.6095C86.2066 65.2233 85.6051 64.7469 84.8628 64.7083C84.5045 64.6825 84.1206 64.6697 83.6343 64.6697C83.3783 64.6697 83.1224 64.6697 82.8792 64.6697H82.8408C82.5721 64.6697 82.3033 64.6825 82.0346 64.6825C81.8682 64.6825 81.7018 64.6825 81.5355 64.6825L81.0364 64.6697V64.1676C81.0364 59.9062 81.0364 55.6319 81.0364 51.3706C81.0364 43.8906 81.0364 36.4107 81.0364 28.9436C81.0364 28.5831 81.0108 28.2098 80.806 28.0167L80.7932 28.0038L80.7804 27.978C80.5756 27.7463 80.1405 27.7334 79.7182 27.7334H79.6798C78.5408 27.7463 77.389 27.7463 76.2884 27.7463H74.5224L74.5096 27.2442C74.5096 27.064 74.5096 26.8966 74.5096 26.7292C74.5096 26.3301 74.5224 25.9568 74.4072 25.6221C74.3048 25.3775 73.9977 25.2101 73.4602 25.1071C72.9611 25.0041 72.4748 24.9011 71.9756 24.7981H71.9501C70.9646 24.5921 69.9408 24.3861 68.9298 24.1673L68.6099 24.1029L68.5331 23.781C68.3667 23.0858 68.1748 22.3391 67.9572 21.5924L67.8676 21.2834L68.098 21.0646C68.6355 20.5754 69.1858 20.0861 69.7233 19.6098L69.7361 19.5969C70.4143 18.9918 71.131 18.361 71.8093 17.7301L71.8349 17.7173C72.1292 17.4598 72.1932 16.9834 71.9756 16.6358V16.623L71.9628 16.6101C71.6045 15.9664 71.2334 15.3227 70.875 14.6918C70.5167 14.0739 70.1584 13.443 69.8001 12.8122C69.7617 12.7478 69.7233 12.6963 69.6977 12.6319C69.5057 12.2972 69.3137 11.9754 69.045 11.8724L69.0322 11.8595C68.9682 11.8337 68.8914 11.8209 68.8018 11.8209C68.5971 11.8209 68.3667 11.8981 68.1108 11.9754C68.034 12.0011 67.97 12.014 67.8932 12.0397C66.959 12.3616 65.9992 12.6834 65.0649 12.9795L64.9498 13.0182C64.5402 13.1469 64.1307 13.2885 63.7212 13.4301L63.414 13.5331L63.1965 13.3014C62.6718 12.7478 62.1343 12.2071 61.5968 11.6921L61.3664 11.4733L61.5072 11.0355C61.9423 9.69661 62.3902 8.31907 62.8509 6.94152L62.8893 6.7999C63.0429 6.32355 63.1325 5.97595 62.9789 5.73134C62.8125 5.46098 62.4926 5.26787 62.1471 5.07475C62.0447 5.01038 61.9423 4.95888 61.8399 4.89451C61.2896 4.59841 60.7521 4.27655 60.2146 3.95469C59.5492 3.56847 58.8709 3.15649 58.1798 2.79601L58.167 2.78314C58.0646 2.71876 57.9367 2.69302 57.8087 2.69302C57.5655 2.69302 57.3352 2.79601 57.1944 2.97625L57.1816 2.98912C56.5545 3.67146 55.9274 4.37954 55.3259 5.06188L55.3003 5.08763C54.8268 5.62835 54.3405 6.18194 53.8414 6.72266L53.6239 6.96727L53.3167 6.87715C52.6 6.65829 51.8706 6.46517 51.1411 6.29781L50.834 6.22056L50.77 5.91158C50.6164 5.2035 50.4756 4.48254 50.3349 3.78733C50.1429 2.86038 49.9509 1.89481 49.7334 0.967866V0.942118C49.6694 0.581639 49.2983 0.401399 49.0935 0.324153L49.0679 0.311279H43.6801L43.6545 0.324153C43.4114 0.427147 43.1042 0.620262 43.053 0.929244V0.942118V0.954992C42.8355 1.85619 42.6563 2.79601 42.4643 3.69721C42.3236 4.41817 42.17 5.17775 42.0036 5.91158L41.9268 6.22056L41.6197 6.29781C40.9158 6.46517 40.1864 6.65829 39.4441 6.87715L39.137 6.96727L38.9194 6.72266C37.8828 5.57685 36.859 4.40529 35.8608 3.27236L35.848 3.25948C35.6176 3.002 35.3745 2.74451 35.1185 2.70589H35.0929C35.0545 2.69302 35.0289 2.69302 34.9905 2.69302C34.7474 2.69302 34.4658 2.84751 34.1843 3.002L34.1331 3.02775C32.9173 3.76158 31.6631 4.48254 30.4986 5.152L30.4474 5.19062C30.1402 5.37086 29.8587 5.5511 29.7819 5.78284L29.7691 5.80859C29.6667 6.06607 29.7691 6.38793 29.8843 6.74841C29.9099 6.81278 29.9227 6.87715 29.9483 6.94152C30.2426 7.80409 30.5242 8.69242 30.7929 9.47775L30.8185 9.55499C30.9977 10.0828 31.164 10.6107 31.3432 11.1385L31.4456 11.4475L31.2152 11.6792C30.6521 12.22 30.1146 12.7607 29.6155 13.2885L29.398 13.5203L29.0908 13.4173C28.6173 13.2628 28.1438 13.1083 27.6703 12.9409C26.7617 12.6448 25.8274 12.3358 24.906 12.014C24.842 12.0011 24.778 11.9754 24.714 11.9496C24.4581 11.8724 24.2277 11.7951 24.023 11.7951C23.9334 11.7951 23.8566 11.808 23.7926 11.8337L23.7798 11.8466C23.5239 11.9367 23.3447 12.2457 23.1655 12.5547L23.1015 12.6706C22.4105 13.9065 21.7066 15.1167 21.0539 16.2367L21.0283 16.2882C20.8492 16.6101 20.6828 16.9191 20.734 17.1894V17.2152C20.7724 17.4855 21.0283 17.7173 21.2971 17.9619L21.3867 18.0391C22.1673 18.7343 22.9608 19.4424 23.7158 20.1248L23.7542 20.1505C24.0742 20.4466 24.3941 20.7298 24.7268 21.026L24.97 21.2448L24.8804 21.5538C24.6756 22.249 24.4709 22.9957 24.2917 23.7553L24.2149 24.0643L23.895 24.1286C23.1527 24.2831 22.3977 24.4505 21.6682 24.5921H21.6554C20.8236 24.7595 19.9533 24.9397 19.0959 25.1328C18.8271 25.1843 18.5072 25.3517 18.4048 25.6478C18.328 25.9825 18.328 26.343 18.328 26.7292C18.328 26.8837 18.328 27.0254 18.328 27.1798L18.3152 27.6819H17.8161C17.573 27.6819 17.317 27.6819 17.0739 27.6819C16.6259 27.6819 16.178 27.6819 15.7173 27.6819C15.2694 27.6819 14.8215 27.6819 14.3864 27.6819C13.7081 27.6819 13.145 27.6819 12.6203 27.6948H12.5947C12.2492 27.6948 11.9164 27.9523 11.8396 28.2742C11.7756 28.7119 11.7756 29.1754 11.7884 29.6646C11.7884 29.8834 11.8012 30.1152 11.7884 30.334C11.7884 41.599 11.7884 52.8511 11.7884 64.1161V64.631H11.2765C10.8414 64.631 10.4063 64.631 9.98398 64.631C9.35689 64.631 8.72981 64.631 8.10273 64.631H7.93636C7.36046 64.631 6.79737 64.631 6.22148 64.631C5.14648 64.631 4.25064 64.6311 3.4188 64.6439C2.19022 64.6439 1.02564 65.7254 0.87207 67.0128V67.0257V89.5814V89.5942C1.05124 90.8044 2.07505 91.8086 3.26522 91.9373H3.27802H22.0137H22.0265C23.2551 91.77 24.2661 90.7143 24.3429 89.5427C24.3813 88.5257 24.3813 84.4703 24.3685 80.8784H24.2405L24.3685 80.8655C24.3685 78.8571 24.3557 76.9646 24.3685 75.9089V75.7673C24.3685 75.5613 24.3685 75.4068 24.3685 75.2781V75.1236C24.3685 75.0463 24.3685 74.9691 24.3685 74.879C24.3685 73.746 24.3557 72.7418 24.3429 71.8278C24.3045 71.0424 23.8054 70.4116 23.3959 70.0125C21.9881 68.6092 20.5036 67.1158 18.9807 65.5709C18.6096 65.1846 17.9953 64.7083 17.2402 64.6697C16.8947 64.6439 16.498 64.631 16.0245 64.631C15.7685 64.631 15.5125 64.631 15.2694 64.631H15.2438C15.0006 64.631 14.7447 64.631 14.5015 64.631C14.3224 64.631 14.1432 64.631 13.964 64.631L13.4649 64.6182V52.7095C13.4649 45.1008 13.4649 37.4921 13.4649 29.8963V29.3813H13.9768C14.6167 29.3813 15.2566 29.3813 15.8965 29.3813C16.5364 29.3813 17.1762 29.3813 17.8161 29.3813H18.3024L18.328 29.8706C18.3408 30.0508 18.328 30.231 18.328 30.3984C18.328 30.7846 18.3152 31.158 18.4304 31.4798C18.5584 31.776 18.9423 31.9047 19.2367 31.9691C19.8253 32.0978 20.414 32.2137 21.0027 32.3424L21.0411 32.3553C21.9881 32.5484 22.948 32.7544 23.895 32.9475L24.2149 33.0119L24.2917 33.3337C24.4581 34.0418 24.65 34.7757 24.8804 35.5352L24.97 35.8442L24.0102 36.7197C23.1271 37.5179 22.2185 38.3289 21.3099 39.14L21.2715 39.1786C21.0283 39.4104 20.7724 39.6421 20.734 39.8996V39.9254C20.6828 40.1957 20.8492 40.5047 21.0283 40.8394L21.0667 40.9038C21.8218 42.2041 22.4872 43.3628 23.1015 44.4571L23.1655 44.5601C23.3575 44.8819 23.5367 45.1781 23.7926 45.281L23.8182 45.2939C23.8822 45.3197 23.959 45.3325 24.0486 45.3325C24.2533 45.3325 24.4837 45.2553 24.7268 45.1781C24.7908 45.1523 24.8548 45.1394 24.9316 45.1137C25.8018 44.8176 26.6849 44.5215 27.5551 44.2382H27.5679C28.0798 44.0709 28.6045 43.8906 29.1164 43.7233L29.4236 43.6203L29.6539 43.852C30.1914 44.4185 30.7289 44.9592 31.2536 45.4613L31.484 45.6801L31.3816 45.9891C31.1768 46.62 30.9593 47.2637 30.7545 47.9074C30.4346 48.8601 30.1146 49.8385 29.8203 50.8041L29.8075 50.8298C29.6923 51.1646 29.8587 51.5766 30.1786 51.7568L30.2042 51.7697C30.8185 52.143 31.4584 52.5164 32.0727 52.864C32.687 53.2116 33.3268 53.5849 33.9539 53.9583C34.0179 53.9969 34.0947 54.0355 34.1587 54.0742C34.4658 54.2544 34.773 54.4218 35.0417 54.4218C35.0801 54.4218 35.1185 54.4218 35.1569 54.4089H35.1697C35.4256 54.3703 35.656 54.1257 35.8864 53.8682L35.9119 53.8424C37.0381 52.555 38.0364 51.4349 38.9578 50.405L39.1753 50.1604L39.4825 50.2505C40.2375 50.4694 40.967 50.6625 41.6709 50.8298L41.9908 50.9071L42.0548 51.229C42.2468 52.1173 42.4259 52.9927 42.6051 53.881L42.6179 53.9454C42.7459 54.602 42.8867 55.2457 43.0274 55.9023C43.0914 56.1984 43.2194 56.5846 43.5137 56.7134C43.7697 56.8035 44.0384 56.8293 44.384 56.8293C44.4608 56.8293 44.5247 56.8293 44.6015 56.8293C44.6783 56.8293 44.7423 56.8293 44.8191 56.8293C44.9215 56.8293 45.0239 56.8293 45.1134 56.8293L45.5998 56.855V57.3442C45.5998 58.8505 45.5998 60.3568 45.5998 61.8631V64.631H45.0878C44.5503 64.631 44 64.631 43.4625 64.631C42.8739 64.631 42.298 64.631 41.7093 64.631H41.5301C41.0054 64.631 40.4807 64.631 39.956 64.631C38.9066 64.631 38.0492 64.6311 37.2557 64.6439H37.2429C36.603 64.6439 35.9503 64.9272 35.464 65.4293C34.9649 65.9313 34.6962 66.6008 34.6962 67.2574C34.6834 72.7547 34.6834 78.3164 34.6962 83.6978V89.208C34.645 90.5212 35.7328 91.7571 37.0637 91.9116H37.0765H55.7995H55.8122C57.1432 91.7571 58.231 90.5212 58.1798 89.208V89.1822C58.1798 86.4915 58.1798 83.7622 58.1798 81.123V81.0071C58.1798 78.4709 58.1798 75.9346 58.1798 73.3984C58.1798 73.2439 58.1798 73.0766 58.1798 72.9092C58.1798 72.3942 58.1926 71.8921 58.103 71.4287C58.0006 70.9523 57.7063 70.4631 57.2072 69.961C55.8762 68.6349 54.3405 67.0772 52.8048 65.5322C52.4209 65.146 51.8194 64.6825 51.0899 64.631C50.7316 64.6053 50.3349 64.5924 49.8486 64.5924C49.5926 64.5924 49.3367 64.5924 49.0807 64.5924C48.8248 64.5924 48.5688 64.5924 48.3128 64.5924C48.1337 64.5924 47.9545 64.5924 47.7881 64.5924L47.289 64.5796V61.8116C47.289 60.3053 47.289 58.799 47.289 57.2927V56.8035L47.7753 56.7778C47.8649 56.7778 47.9673 56.7649 48.0953 56.7649C48.1721 56.7649 48.2617 56.7649 48.3512 56.7649C48.428 56.7649 48.5048 56.7649 48.5816 56.7649C48.9399 56.7649 49.2215 56.7391 49.4646 56.6104C49.7462 56.443 49.8486 56.0053 49.9381 55.5804L49.9509 55.5418C50.1941 54.3059 50.4501 53.0571 50.706 51.8469L50.9108 50.8298L51.2307 50.7526C51.9218 50.5852 52.6384 50.3921 53.4191 50.1733L53.7262 50.0831L53.9438 50.3149C54.4557 50.8813 54.9676 51.4607 55.4539 52.0143C56.0426 52.6837 56.6569 53.3789 57.2584 54.0355L57.2712 54.0484C57.4248 54.2286 57.6551 54.3316 57.8983 54.3316C58.0262 54.3316 58.1414 54.3059 58.2438 54.2415L58.2566 54.2286C58.8581 53.9197 59.4468 53.5721 60.0227 53.2245C60.4066 52.9927 60.8161 52.761 61.2256 52.5293C61.4176 52.4134 61.6096 52.3104 61.8015 52.1945C62.2111 51.9628 62.595 51.7568 62.9277 51.4736C63.1709 51.2547 63.1709 50.8427 63.0685 50.5466L63.0557 50.5209C62.7742 49.6197 62.467 48.7056 62.1727 47.8173C61.9551 47.1736 61.7503 46.5298 61.5328 45.8733L61.4304 45.5643L61.6608 45.3454C62.1983 44.8304 62.7358 44.2897 63.2605 43.7361L63.478 43.5044L63.7852 43.6074C64.2203 43.749 64.6554 43.9035 65.1033 44.0451L65.1289 44.058C66.0631 44.367 67.023 44.6888 67.9828 45.0107C68.0468 45.0236 68.1108 45.0493 68.1875 45.0751C68.4307 45.1523 68.6739 45.2295 68.8658 45.2295C68.9554 45.2295 69.0322 45.2167 69.109 45.1781C69.4033 45.0622 69.5953 44.7275 69.7873 44.367C69.8384 44.2769 69.8896 44.1996 69.9408 44.1095C70.2608 43.5173 70.6063 42.9379 70.939 42.3715C71.323 41.702 71.7325 41.0197 72.1036 40.3245C72.27 40.0155 72.1932 39.5778 71.9117 39.3331L71.8989 39.3203C71.2206 38.6894 70.5167 38.0586 69.8384 37.4664C69.3009 36.99 68.7379 36.4879 68.2003 35.9858L67.9572 35.767L68.0468 35.458C68.2771 34.6984 68.4563 33.9903 68.6099 33.2822L68.6867 32.9604L69.0066 32.8831C70.184 32.6257 71.387 32.3682 72.5515 32.1364L73.5498 31.9304C74.1001 31.8146 74.3816 31.6601 74.4968 31.4026C74.5992 31.0807 74.5992 30.7203 74.5992 30.3212C74.5992 30.1538 74.5992 29.9736 74.5992 29.7933L74.6247 29.3041H75.1111C75.7509 29.3041 76.3908 29.3041 77.0307 29.3041C77.6706 29.3041 78.3105 29.3041 78.9503 29.3041H79.4623V29.8191C79.4623 37.4278 79.4623 45.0364 79.4623 52.6322V64.5538H78.9503C78.2337 64.5538 77.517 64.5538 76.8003 64.5538C76.1605 64.5538 74.4712 64.5538 74.4712 64.5538C73.7289 64.5538 72.9739 64.5538 72.2316 64.5538H71.2974C71.2718 64.5538 71.2462 64.5538 71.2078 64.5538C70.312 64.5538 69.4417 65.0302 68.981 65.764V65.7769L68.9682 65.7897C68.5331 66.4206 68.5331 67.2445 68.5459 68.12V68.2745C68.5587 68.9826 68.5587 69.7035 68.5459 70.3858C68.5459 71.1325 68.5331 71.8921 68.5587 72.6517V72.6646C68.5459 75.5742 68.5459 81.0715 68.5587 85.0882C68.5587 86.7876 68.5587 88.2296 68.5587 89.1179V89.1436C68.5075 90.4568 69.5953 91.7056 70.9262 91.8601H70.939H89.7131H89.7259C90.9289 91.6798 91.9143 90.6885 92.0551 89.4784V89.4655V71.8535L91.9527 71.8406ZM88.7277 90.2894C88.6637 90.2894 88.587 90.2894 88.523 90.2894C88.4718 90.2894 88.4206 90.2894 88.3822 90.3023H88.3438H88.3054C85.9506 90.3023 83.4295 90.2894 80.614 90.2894C77.5938 90.2894 74.5864 90.2894 71.5661 90.3023C71.3102 90.3023 71.0542 90.2766 70.8111 90.2379L70.7599 90.2251L70.7087 90.1993C70.1456 89.9676 70.1328 89.3882 70.1328 89.1179C70.1328 89.0406 70.1328 88.9891 70.12 88.9505V88.9119V88.2296C70.12 80.1188 70.12 74.8017 70.12 72.4457C70.1328 71.6346 70.12 70.7721 70.12 70.0254V70.0125C70.12 69.2529 70.1072 68.4547 70.12 67.6822V67.6694V67.6565C70.12 67.6179 70.12 67.5921 70.12 67.5535C70.1328 67.2831 70.1456 66.7939 70.6063 66.5107L70.6959 66.4592L70.7983 66.4463C71.1822 66.382 71.5533 66.382 71.8349 66.382C71.9756 66.382 72.1036 66.382 72.2444 66.382H72.27C72.4108 66.382 72.5515 66.382 72.6795 66.382C72.7307 66.382 72.7819 66.382 72.8331 66.382C74.2024 66.382 75.5718 66.382 76.9411 66.382H84.4277L84.4533 66.8712C84.4789 67.2831 84.4661 67.7209 84.4533 68.1328C84.4149 69.4331 84.3765 70.6562 85.2596 71.4673L85.2852 71.4801C85.9123 72.111 86.7441 72.2526 87.7807 72.2526C88.0239 72.2526 88.2798 72.2397 88.5358 72.2397C88.7661 72.2269 89.0349 72.2269 89.2908 72.2269C89.4828 72.2269 89.6492 72.2269 89.8027 72.2397L90.289 72.2655V72.7547C90.289 74.8275 90.289 76.8873 90.289 78.9601C90.289 81.6894 90.289 84.7793 90.289 87.8047V87.8176C90.289 87.9721 90.289 88.1266 90.289 88.2811V88.2939C90.3018 88.7317 90.3018 89.1951 90.1995 89.6586L90.1739 89.7745L90.0971 89.8646C89.7515 90.3152 89.2012 90.3152 89.0093 90.3152C88.9197 90.3152 88.8301 90.3152 88.7277 90.3023V90.2894ZM50.6676 69.8322C50.7572 71.0038 51.781 72.0724 52.9584 72.1882C53.3039 72.214 53.6751 72.2269 54.1614 72.2269C54.3789 72.2269 54.5965 72.2269 54.814 72.2269C55.0316 72.2269 55.262 72.2269 55.4795 72.2269C55.6331 72.2269 55.7867 72.2269 55.953 72.2269L56.4521 72.2397V72.7418C56.4521 74.8532 56.4521 76.9517 56.4521 79.0631V79.1017C56.4521 81.8954 56.4521 85.0625 56.4521 88.1523V88.1652C56.4521 88.2811 56.4521 88.4098 56.4521 88.5385C56.4649 88.8861 56.4649 89.2852 56.3626 89.6715L56.3498 89.7358L56.3114 89.8002C56.0426 90.2766 55.5307 90.2766 55.2492 90.2766C55.1852 90.2766 55.134 90.2766 55.0956 90.2766H55.0572H55.0188C53.4063 90.2766 51.781 90.2766 50.1685 90.2766C49.1191 90.2766 48.0697 90.2766 47.0203 90.2766H46.9563C45.8813 90.2766 44.8191 90.2766 43.7441 90.2766C41.1846 90.2766 39.2265 90.2766 37.3837 90.2637H37.3709C37.3325 90.2637 37.2941 90.2637 37.2557 90.2637C36.9742 90.2637 36.731 90.1478 36.5518 89.9418C36.3471 89.7101 36.2447 89.3625 36.2831 89.0149V89.002C36.2831 85.4616 36.2831 81.9212 36.2831 78.3808V78.149C36.2831 74.6472 36.2831 71.1583 36.2831 67.6694V67.6436C36.2831 67.6179 36.2831 67.5793 36.2831 67.5406C36.2959 67.2703 36.2959 66.8068 36.7182 66.5107L36.8078 66.4463L36.9102 66.4206C37.2429 66.3562 37.5884 66.3433 37.8444 66.3433C37.9596 66.3433 38.062 66.3433 38.1771 66.3433C38.2795 66.3433 38.3819 66.3433 38.4843 66.3433C38.5227 66.3433 38.5611 66.3433 38.5994 66.3433C39.956 66.3433 41.3125 66.3433 42.6691 66.3433H48.3384H50.5908L50.6036 66.8454C50.6164 67.2316 50.6036 67.6179 50.6036 68.0041C50.642 68.6607 50.6292 69.2529 50.6676 69.8322ZM67.842 31.5056H67.8164C67.5093 31.5571 67.1509 31.7631 67.087 32.1236L66.9846 32.5742C66.7798 33.514 66.5751 34.4795 66.2295 35.4194L66.2167 35.4322C66.0504 35.8313 65.9224 36.3721 66.2167 36.6553C66.9334 37.3376 67.6884 38.0071 68.4307 38.6637C68.917 39.0885 69.4161 39.5391 69.8896 39.9769L70.1968 40.2601L69.992 40.6206C69.5057 41.4574 69.0322 42.3071 68.5459 43.1439L68.3411 43.5044L67.9444 43.3757C67.4325 43.2083 66.9078 43.028 66.3959 42.8607H66.3831C65.3977 42.526 64.3867 42.1912 63.3756 41.8694H63.3628C63.2861 41.8436 63.2093 41.8307 63.1197 41.8307C62.8765 41.8307 62.6334 41.9466 62.467 42.1397L62.4542 42.1526C61.648 43.0924 60.7777 43.9679 59.8691 44.7532L59.8563 44.7661C59.5748 44.9849 59.4596 45.384 59.5875 45.7059L59.6003 45.7316C59.8563 46.5556 60.1378 47.3924 60.4066 48.2035C60.637 48.8858 60.8673 49.581 61.0849 50.2891L61.2128 50.6882L59.9587 51.4221C59.4212 51.731 58.8837 52.04 58.359 52.349L58.0006 52.555L57.7191 52.246C57.2456 51.7182 56.7721 51.1775 56.2986 50.6496C55.7355 50.0188 55.1596 49.3622 54.5837 48.7185L54.5709 48.7056L54.5581 48.6927C54.3917 48.4867 54.1358 48.358 53.8798 48.358C53.7902 48.358 53.7006 48.3709 53.6111 48.4095H53.5983L53.5727 48.4224C52.5745 48.7571 51.3971 49.1304 50.1941 49.3364H50.1813H50.1685C49.8358 49.3751 49.4262 49.5553 49.3367 49.9544C49.1191 50.92 48.9143 51.9242 48.7096 52.8897C48.5816 53.5077 48.4536 54.1385 48.3256 54.7694L48.2361 55.1813H47.8265C47.3402 55.1813 46.8667 55.1813 46.3804 55.1813C45.8941 55.1813 45.4206 55.1813 44.9343 55.1813H44.5247L44.4352 54.7694C44.2816 54.0742 44.1408 53.3789 44 52.6837C43.8209 51.8212 43.6417 50.9328 43.4498 50.0703V50.0445C43.3858 49.6969 43.0914 49.4137 42.7331 49.3751H42.7203H42.7075C41.5045 49.1433 40.3271 48.8215 39.1881 48.4224H39.1753H39.1625C39.073 48.3837 38.9834 48.3709 38.8938 48.3709C38.6378 48.3709 38.3819 48.4996 38.2155 48.7056L38.2027 48.7185C37.6268 49.3622 37.0253 50.0445 36.4878 50.6496C36.0143 51.1775 35.5408 51.7182 35.0673 52.246L34.7858 52.555L34.4018 52.3361C33.57 51.8598 32.7509 51.3834 31.9191 50.8942L31.5608 50.6882L31.6887 50.2891C31.9319 49.5553 32.175 48.8086 32.4182 48.0748L32.431 48.0233C32.6614 47.3023 32.9045 46.5813 33.1349 45.8604L33.1477 45.8346C33.25 45.5385 33.2884 45.1523 33.0453 44.9077C32.8021 44.6502 32.5334 44.4185 32.2518 44.161C31.8679 43.8134 31.4712 43.4529 31.1 43.028C30.9593 42.8864 30.8313 42.7319 30.7161 42.5903C30.473 42.3071 30.2554 42.0367 29.9739 41.8822C29.8971 41.8436 29.8075 41.8307 29.7179 41.8307C29.4875 41.8307 29.2188 41.9209 28.9628 42.011L28.9117 42.0239C27.9518 42.3586 26.9664 42.6804 26.0194 42.9894C25.6355 43.1182 25.2387 43.2469 24.8548 43.3757L24.4581 43.5044L24.2533 43.1439C23.8182 42.3843 23.3703 41.6119 22.9352 40.8523L22.6024 40.2601L22.9096 39.9769C23.4215 39.5134 23.9334 39.0628 24.4453 38.5993C25.0852 38.02 25.7634 37.4278 26.4033 36.8355L26.4161 36.8227C26.6337 36.6424 26.8384 36.3077 26.7361 35.9858V35.973C26.6465 35.664 26.5441 35.3421 26.4545 35.0331C26.2625 34.4409 26.0706 33.8358 25.9554 33.1921C25.917 33.0376 25.8914 32.8703 25.853 32.7158C25.789 32.381 25.7378 32.0592 25.5715 31.8274C25.4051 31.5957 25.0596 31.5185 24.6884 31.4412L24.5861 31.4155C23.9206 31.2867 23.2551 31.1451 22.5896 31.0035H22.564C21.8474 30.849 21.1179 30.6945 20.3884 30.5529L19.9789 30.4757V30.0508C19.9789 29.0852 19.9789 28.1068 19.9789 27.1412V26.7292L20.3756 26.6391C21.0283 26.4975 21.6938 26.3559 22.3465 26.2271C23.2295 26.0469 24.1509 25.8538 25.0468 25.6478H25.0596H25.0724C25.4179 25.5834 25.6995 25.2745 25.7506 24.9011V24.8882V24.8754C25.9426 23.7939 26.2498 22.6481 26.6849 21.3478V21.3349V21.3221C26.8128 21.0002 26.6849 20.6011 26.3905 20.3565L26.3777 20.3436L26.3649 20.3307C25.7378 19.7643 25.1108 19.1978 24.4837 18.6442C23.9462 18.1679 23.4087 17.6786 22.8712 17.2023L22.564 16.9191L22.7688 16.5586C23.2551 15.7218 23.7286 14.8849 24.2149 14.0352L24.4197 13.6748L24.8164 13.8035C25.5843 14.0481 26.3521 14.3056 27.1072 14.5631C27.8494 14.8077 28.6045 15.0652 29.3596 15.3098L29.3852 15.3227C29.4748 15.3484 29.5515 15.3742 29.6539 15.3742C29.9099 15.3742 30.1658 15.2583 30.3194 15.0523L30.3322 15.0394C31.1128 14.1254 31.9703 13.2628 32.9045 12.4517L32.9173 12.4388C33.1989 12.2071 33.314 11.8209 33.1861 11.499L33.1733 11.4733C32.9173 10.6622 32.6486 9.83823 32.3798 9.02715C32.1495 8.34481 31.9191 7.62386 31.6887 6.91577L31.5608 6.51667L31.9191 6.31068C32.7509 5.82146 33.5956 5.34511 34.4274 4.85589L34.7858 4.6499L35.0673 4.95888C36.0783 6.09182 37.0893 7.23763 38.1003 8.38344L38.1131 8.39631C38.3563 8.67954 38.6123 8.84691 38.8426 8.84691C38.8554 8.84691 38.8682 8.84691 38.881 8.84691H38.8938H38.9066C40.3271 8.42206 41.6197 8.0487 42.9634 7.76547H42.9762H42.989C43.2962 7.66248 43.4497 7.31487 43.5009 7.01877V6.99302C43.6673 6.16906 43.8465 5.34511 44.0128 4.53403V4.50829C44.1536 3.81308 44.2944 3.13074 44.4352 2.43553L44.5247 2.02356H48.2489L48.3384 2.43553C48.4792 3.09212 48.6072 3.74871 48.748 4.40529C48.9271 5.25499 49.1191 6.20769 49.3111 7.12176V7.13463C49.375 7.45649 49.6182 7.72685 49.9253 7.77835L50.1045 7.81697C51.1155 8.03583 52.1649 8.26757 53.1759 8.62805L53.2015 8.64092C53.4703 8.75679 53.7262 8.80829 53.931 8.80829C54.1358 8.80829 54.3021 8.74392 54.4173 8.62805C55.0956 7.91996 55.7611 7.16038 56.4009 6.42655C56.8361 5.93733 57.284 5.42236 57.7319 4.93314L58.0134 4.62415L58.3718 4.83014C58.8581 5.11338 59.3444 5.39661 59.8307 5.67984L61.2384 6.49092L61.1105 6.89002C60.8545 7.7011 60.5858 8.51218 60.317 9.32326L60.2914 9.41338C60.0739 10.0571 59.8691 10.7008 59.6643 11.3445L59.6515 11.3703C59.5364 11.6664 59.5364 12.1041 59.8179 12.3358L59.8307 12.3487C60.7009 13.134 61.6224 13.9837 62.4158 14.9364L62.4286 14.9493C62.6206 15.2068 62.9021 15.3613 63.1581 15.3613C63.2221 15.3613 63.2861 15.3484 63.35 15.3355C64.3099 15.0523 65.2825 14.7176 66.2423 14.3957C66.7926 14.2155 67.4069 13.9966 68.0084 13.8035L68.4051 13.6748L68.6099 14.0352C69.0962 14.8721 69.5697 15.7218 70.056 16.5586L70.2608 16.9191L69.9536 17.2023C69.2497 17.8331 68.5459 18.464 67.842 19.0948C67.3813 19.5068 66.9206 19.9316 66.4471 20.3436L66.4343 20.3565L66.4215 20.3694C66.1655 20.5754 65.9864 20.9616 66.1271 21.3092V21.3221V21.3349C66.5623 22.6224 66.8694 23.781 67.0742 24.8882V24.9011V24.9269C67.1253 25.2873 67.4069 25.5963 67.7396 25.6607H67.7652C68.6355 25.8538 69.5185 26.034 70.3887 26.2143H70.4015C71.0798 26.3559 71.7581 26.4975 72.4364 26.6391L72.8459 26.7292V30.4757L72.4364 30.5658C71.4126 30.7846 70.3887 31.0035 69.3905 31.2095C68.8658 31.2996 68.3539 31.4026 67.842 31.5056ZM16.8563 69.8322C16.9331 70.9781 17.8929 72.008 19.0319 72.1754C19.403 72.214 19.8125 72.2397 20.35 72.2397C20.5804 72.2397 20.8108 72.2397 21.0411 72.2269C21.2715 72.2269 21.5018 72.214 21.745 72.214C21.8858 72.214 22.0265 72.214 22.1673 72.214L22.6664 72.2269L22.6792 72.729C22.692 73.3598 22.6792 73.9906 22.6792 74.6215C22.6792 75.1493 22.6664 75.7029 22.6792 76.2565C22.6664 77.9817 22.6792 80.4921 22.6792 82.9254V82.9511C22.6792 85.6805 22.692 88.2553 22.6792 89.0793V89.0921V89.1179C22.6792 89.1436 22.6792 89.1823 22.6664 89.208V89.2209C22.6536 89.4526 22.6152 90.0062 22.0777 90.1993L22.0393 90.2122L22.0009 90.2251C21.6298 90.2894 21.2587 90.3023 20.9771 90.3023C20.8364 90.3023 20.6956 90.3023 20.5548 90.3023C20.4268 90.3023 20.2861 90.3023 20.1581 90.3023C20.1069 90.3023 20.0429 90.3023 19.9917 90.3023H19.9789C17.5986 90.3023 15.2054 90.3023 12.825 90.3023C9.8688 90.3023 6.91255 90.3023 3.9435 90.3023H3.90511H3.86671C3.82832 90.3023 3.76433 90.2894 3.70034 90.2894C3.43159 90.2894 2.91969 90.2766 2.66374 89.7873L2.62534 89.7101L2.61255 89.6328C2.52296 89.1308 2.52296 88.6415 2.53576 88.1652C2.53576 87.9721 2.54856 87.7918 2.53576 87.6116C2.53576 80.9685 2.53576 74.3254 2.53576 67.6822V67.6694V67.6436C2.53576 67.605 2.53576 67.5793 2.54856 67.5406V67.5277C2.56135 67.2703 2.58695 66.8454 2.95808 66.5622L3.04767 66.4978L3.16284 66.4721C3.54677 66.3948 3.9051 66.382 4.21225 66.382C4.32743 66.382 4.44261 66.382 4.57058 66.382C4.68576 66.382 4.80094 66.382 4.90332 66.382C4.94171 66.382 4.98011 66.382 5.0313 66.382C6.38784 66.382 7.75719 66.382 9.11374 66.382H14.2456C14.8471 66.382 16.3956 66.382 16.8563 66.382L16.8691 66.884C16.8691 67.2574 16.8691 67.6179 16.8691 67.9783C16.8179 68.6221 16.8179 69.2272 16.8563 69.8322Z" fill="#3454CF"/>
<path d="M6.69547 71.6345C6.78505 71.9693 7.14338 72.2139 7.51451 72.2139H7.52731C8.07761 72.2267 8.6663 72.2267 9.38297 72.2267C9.81809 72.2267 10.2404 72.2267 10.6755 72.2267H11.6865H11.7121C11.7377 72.2267 11.7505 72.2267 11.7761 72.2267C12.1217 72.2267 12.5184 72.0336 12.6336 71.6731V71.6603L12.6464 71.6345C12.7359 71.4285 12.6975 71.1453 12.5568 70.9264C12.4288 70.7076 12.224 70.566 12.0065 70.5531C11.6865 70.5273 11.3282 70.5273 10.8931 70.5273C10.6627 70.5273 10.4324 70.5273 10.202 70.5273H10.1764C9.93326 70.5273 9.69011 70.5273 9.44695 70.5273C9.29338 70.5273 9.12701 70.5273 8.96064 70.5273C8.89666 70.5273 8.83267 70.5273 8.75588 70.5273C8.61511 70.5273 8.48713 70.5273 8.34636 70.5273H8.33356C8.20559 70.5273 8.09041 70.5273 7.96243 70.5273C7.74487 70.5273 7.45053 70.5402 7.18178 70.5917H7.16898H7.15618C6.98981 70.6561 6.83624 70.7977 6.73386 70.9908C6.63148 71.1968 6.61868 71.4157 6.66987 71.5959L6.69547 71.6345Z" fill="#3454CF"/>
<path d="M43.4853 72.1176C43.7284 72.2592 44.0228 72.3107 44.4579 72.3107C44.6243 72.3107 44.7778 72.2979 44.957 72.2979C45.1234 72.285 45.3153 72.285 45.4945 72.285C45.6225 72.285 45.7249 72.285 45.8528 72.2979C45.9808 72.2979 46.096 72.2979 46.224 72.2979C46.4415 72.2979 46.6591 72.2979 46.8766 72.3107C47.0814 72.3107 47.299 72.3236 47.5037 72.3236C47.9388 72.3236 48.2844 72.3107 48.5915 72.2721H48.6043C48.8987 72.2077 49.0778 71.9503 49.1418 71.7185C49.2186 71.4868 49.2186 71.152 48.9882 70.9332L48.9755 70.9203L48.9627 70.9074C48.7707 70.6757 48.4635 70.6242 48.0284 70.6242C47.9388 70.6242 47.8365 70.6242 47.7469 70.6242H47.7341C47.6445 70.6242 47.5421 70.6242 47.4525 70.6242C47.4013 70.6242 47.3502 70.6242 47.2862 70.6242C47.0942 70.6371 46.8894 70.6371 46.6719 70.6371C46.3903 70.6371 46.1216 70.6371 45.84 70.6242C45.5713 70.6242 45.3025 70.6113 45.0338 70.6113C44.4835 70.6113 44.074 70.6371 43.6772 70.6886H43.6644H43.6516C43.3573 70.7916 43.2165 71.1006 43.1781 71.3452C43.1397 71.5769 43.1909 71.9245 43.4853 72.1176Z" fill="#3454CF"/>
<path d="M77.1757 71.8534L77.1885 71.8663C77.4061 72.201 77.8924 72.2267 78.046 72.2267C78.0588 72.2267 78.1228 72.2267 78.1228 72.2267C78.3275 72.2267 78.5323 72.2267 78.7371 72.2267C79.0186 72.2267 79.3002 72.2267 79.5945 72.2267H79.6841C79.9912 72.2267 80.3112 72.2267 80.6183 72.2267C81.271 72.2267 81.7829 72.2267 82.2564 72.2139H82.2692C82.6787 72.2139 83.0498 71.8663 83.0754 71.4543V71.4285C83.101 71.2226 83.0115 70.9908 82.8579 70.8106C82.7043 70.6432 82.5123 70.5402 82.3076 70.5402H82.282H82.2692C81.9365 70.5273 81.5653 70.5273 81.1174 70.5273C80.8487 70.5273 80.5671 70.5273 80.2984 70.5273H80.2472C79.9912 70.5273 79.7353 70.5273 79.4665 70.5273C79.1978 70.5273 78.929 70.5273 78.6603 70.5273C78.6091 70.5273 78.5579 70.5273 78.5067 70.5273C78.4811 70.5273 78.174 70.5273 78.174 70.5273C77.9052 70.5273 77.6877 70.5402 77.4957 70.6175C77.2909 70.7076 77.1374 70.9136 77.0734 71.1453C77.0094 71.4028 77.0478 71.6603 77.1757 71.8534Z" fill="#3454CF"/>
<path d="M13.6953 76.3853H13.5034C12.8251 76.3853 12.134 76.3853 11.4558 76.3853C9.83046 76.3853 8.58909 76.3981 7.41171 76.411C7.21974 76.411 7.02778 76.514 6.87421 76.6814C6.72064 76.8487 6.64385 77.0547 6.65665 77.2607V77.2736V77.2865C6.65665 77.6984 7.04058 78.0846 7.4501 78.0846C7.4629 78.0846 7.48849 78.0846 7.48849 78.0846H7.50129C8.94742 78.0846 10.5215 78.0975 12.3132 78.0975C14.0537 78.0975 15.7941 78.0975 17.5346 78.0975H17.6114H17.637C17.6498 78.0975 17.6754 78.0975 17.6882 78.0975C17.9186 78.0975 18.1617 77.9688 18.3153 77.7628C18.4689 77.5568 18.5328 77.3122 18.4688 77.0933V77.0805V77.0547C18.3921 76.6299 17.9441 76.3981 17.5602 76.3981C17.5346 76.3981 17.4962 76.3981 17.4706 76.3981H17.4578H17.4322C16.9331 76.3981 16.434 76.3981 15.9221 76.3981C15.1799 76.3853 14.4376 76.3853 13.6953 76.3853Z" fill="#3454CF"/>
<path d="M46.371 76.5615C45.7439 76.5615 45.1168 76.5615 44.4898 76.5615C43.8755 76.5615 43.2612 76.5615 42.6341 76.5615C42.5829 76.5615 42.5317 76.5615 42.4805 76.5615C42.3654 76.5615 42.2502 76.5615 42.1478 76.5615H42.1222C42.0198 76.5615 41.9174 76.5615 41.8151 76.5615C41.5719 76.5615 41.3032 76.5744 41.0216 76.6259C40.804 76.6903 40.6249 76.8705 40.5353 77.1151C40.4457 77.3726 40.4585 77.6301 40.5865 77.8232L40.5993 77.8361L40.6121 77.8618C40.7785 78.1579 41.1368 78.2609 41.4311 78.2609C41.4567 78.2609 41.4823 78.2609 41.5207 78.2609H41.5335H41.5591C42.3014 78.2609 43.0436 78.2609 43.7859 78.2609H47.8171C49.0329 78.2609 50.2487 78.2609 51.4645 78.248H51.4773H51.5029C51.5157 78.248 51.5285 78.248 51.5413 78.248C51.9636 78.248 52.3475 77.8747 52.3475 77.4627V77.4498V77.437C52.3603 77.231 52.2835 77.025 52.1299 76.8576C51.9636 76.6903 51.7588 76.5873 51.5413 76.5873C51.5285 76.5873 51.4901 76.5873 51.4901 76.5873H51.4773C50.543 76.5744 49.5192 76.5744 48.2523 76.5744C47.6124 76.5615 46.9981 76.5615 46.371 76.5615Z" fill="#3454CF"/>
<path d="M85.4121 76.5873H85.3737H85.3609C84.4651 76.5744 83.4925 76.5744 82.2767 76.5744C81.7136 76.5744 81.1505 76.5744 80.5874 76.5744H80.3699C79.73 76.5744 79.1029 76.5744 78.463 76.5744C77.6312 76.5744 76.8121 76.5744 75.9931 76.5615C75.9419 76.5615 75.8907 76.5615 75.8267 76.5615H75.6603C75.4044 76.5615 75.1484 76.5615 74.9181 76.6259C74.5853 76.7289 74.3422 77.0894 74.355 77.437V77.4498V77.4627C74.355 77.8747 74.7517 78.2481 75.174 78.2481C75.1868 78.2481 75.2124 78.2481 75.2252 78.2481H75.238H76.6969C78.0535 78.2481 79.4228 78.2481 80.7794 78.2481C82.5199 78.2481 83.9788 78.2481 85.3481 78.2352H85.3993C85.7704 78.2352 86.1288 77.9262 86.18 77.5528V77.54V77.5271C86.2184 77.3082 86.1544 77.0765 86.0008 76.8705C85.8728 76.7031 85.6425 76.5873 85.4121 76.5873Z" fill="#3454CF"/>
<path d="M18.507 83.067C18.507 82.8739 18.4303 82.6679 18.2767 82.5134C18.1103 82.346 17.8928 82.243 17.688 82.243C17.6752 82.243 17.6624 82.243 17.6368 82.243H17.624H17.5984C16.7026 82.243 15.73 82.2302 14.5398 82.2302C13.9383 82.2302 13.3368 82.2302 12.7353 82.2302C12.7353 82.2302 11.43 82.2302 10.9308 82.2302C9.98382 82.2302 9.024 82.2302 8.07698 82.2173C8.01299 82.2173 7.93621 82.2173 7.87222 82.2173C7.59067 82.2173 7.32192 82.2173 7.11716 82.3331C6.9252 82.4233 6.78442 82.6035 6.72043 82.8352C6.65644 83.0541 6.68204 83.2858 6.78442 83.4661L6.79722 83.479L6.81002 83.5047C6.96359 83.8137 7.34752 83.9296 7.62906 83.9296C7.65466 83.9296 7.68025 83.9296 7.70585 83.9296H7.71865H7.74424C8.4865 83.9296 9.21597 83.9296 9.95823 83.9296H14.5014C15.5636 83.9296 16.613 83.9296 17.6752 83.9296H17.688H17.7392C17.9567 83.9296 18.1615 83.8266 18.3279 83.6592C18.4814 83.5047 18.571 83.2987 18.5582 83.0927V83.0799L18.507 83.067Z" fill="#3454CF"/>
<path d="M52.1032 82.7949L52.0904 82.7821C51.9112 82.5632 51.5657 82.5117 51.2969 82.5117H45.602C44.3094 82.5117 43.0041 82.5117 41.7115 82.5117H41.5963C41.3404 82.5117 41.0972 82.5246 40.9308 82.6147L40.918 82.6276C40.7005 82.7306 40.5469 82.9494 40.4957 83.2069C40.4445 83.4773 40.5085 83.7348 40.6749 83.9021L40.6877 83.915L40.7005 83.9408C40.7901 84.0566 40.982 84.2111 41.5707 84.2111C41.6219 84.2111 41.6603 84.2111 41.6987 84.2111H41.7115C43.0041 84.2111 44.2966 84.2111 45.5892 84.2111C46.613 84.2111 47.6496 84.2111 48.6734 84.2111H51.2969C51.6552 84.2111 51.8984 84.1339 52.0392 83.9923L52.052 83.9794L52.0648 83.9665C52.2183 83.8249 52.3079 83.6189 52.3079 83.3872C52.3207 83.1554 52.2567 82.9494 52.1032 82.7949Z" fill="#3454CF"/>
<path d="M85.8993 82.5005C85.7458 82.3332 85.5282 82.243 85.3234 82.243C85.3106 82.243 85.2722 82.243 85.2722 82.243H85.2594C84.3508 82.2302 83.3526 82.2302 82.124 82.2302C81.4969 82.2302 80.8699 82.2302 80.2428 82.2302H80.0124C79.4621 82.2302 78.9118 82.2302 78.3743 82.2302C77.4913 82.2302 76.6083 82.2302 75.7252 82.2173C75.6484 82.2173 75.5717 82.2173 75.4949 82.2173C75.2133 82.2173 74.9446 82.2173 74.7398 82.3203C74.5478 82.4104 74.3815 82.6035 74.3175 82.8352C74.2535 83.067 74.2791 83.3116 74.3943 83.4918L74.4071 83.5047L74.4199 83.5305C74.5862 83.8137 74.9446 83.9167 75.2389 83.9167C75.2645 83.9167 75.2901 83.9167 75.3157 83.9167H75.3285H75.3413C76.2755 83.9167 77.2097 83.9167 78.144 83.9167H82.124C83.1734 83.9167 84.21 83.9167 85.2594 83.9167H85.3234C85.5282 83.9167 85.733 83.8266 85.8993 83.6592C86.0529 83.5047 86.1425 83.2987 86.1297 83.0927V83.0799V83.067C86.1297 82.8739 86.0529 82.6679 85.8993 82.5005Z" fill="#3454CF"/>
<path d="M60.4063 19.2234L60.3935 19.1977C60.3423 19.1076 60.2655 19.0303 60.1759 18.9788L60.1119 18.9402L60.0607 18.8887C58.7426 17.2408 57.2964 15.7989 55.7991 14.5887L55.7863 14.5758C55.6328 14.4342 55.428 14.3184 55.2232 14.1896C55.1208 14.1381 55.0313 14.0737 54.9417 14.0094C52.3949 12.4773 49.4259 11.6663 46.3673 11.6663C44.1533 11.6663 42.0289 12.0782 40.058 12.9022C35.9244 14.5887 32.5586 17.936 30.8566 22.0815C29.2057 26.0211 29.1289 30.5785 30.6646 34.5824C32.1491 38.5477 35.1822 41.9079 38.9703 43.7746C41.2482 44.9205 43.8205 45.5127 46.4057 45.5127C47.4039 45.5127 48.4149 45.4226 49.3875 45.2423C53.1756 44.5728 56.7845 42.4615 59.2929 39.4489C61.3917 36.9384 62.7482 33.7714 63.1194 30.527C63.5673 26.7291 62.697 22.854 60.6878 19.6354C60.5854 19.4938 60.5086 19.3522 60.4063 19.2234ZM58.4098 37.9297L58.0643 37.0028C57.1557 34.5696 54.9545 32.7028 52.4461 32.2522L51.5247 32.0848L52.1646 31.3896C52.9964 30.5013 53.5979 29.5357 53.9691 28.5315C54.8265 26.2785 54.5961 23.6007 53.3804 21.5279C52.139 19.3779 49.8482 17.8588 47.4167 17.5627C47.0839 17.524 46.7384 17.4983 46.3929 17.4983C44.4604 17.4983 42.5152 18.2321 41.0819 19.4938C39.303 21.0258 38.2536 23.3432 38.2792 25.6863C38.2664 27.7591 39.111 29.819 40.5955 31.3639L41.261 32.0591L40.3268 32.2264C37.8185 32.6899 35.6173 34.5567 34.7086 36.977L34.3631 37.9169L33.8128 37.08C31.6628 33.8486 30.7926 29.819 31.4453 26.0339C31.97 22.8411 33.5441 19.8414 35.8732 17.6013C38.2152 15.3097 41.2738 13.8291 44.5116 13.4429C45.1259 13.3657 45.753 13.327 46.3801 13.327C49.0164 13.327 51.5887 14.0094 53.8155 15.2839L53.8283 15.2968C55.8631 16.5456 57.6932 18.348 59.4464 20.8456L59.4592 20.8585L59.472 20.8842C59.8176 21.4764 60.2399 22.2746 60.5598 23.1501C62.3131 27.6947 61.7116 33.0375 58.9729 37.1058L58.4098 37.9297ZM39.9941 25.0555C40.2116 22.3004 42.4 19.8414 45.1131 19.3136C45.5226 19.2234 45.9577 19.1719 46.3801 19.1719C48.8244 19.1719 51.1536 20.6396 52.1774 22.8154C53.4572 25.3645 52.7917 28.6731 50.6161 30.527C49.4899 31.5441 47.9414 32.1234 46.3673 32.1234C45.4458 32.1234 44.5244 31.9175 43.7182 31.5312C41.2738 30.4498 39.6997 27.7205 39.9941 25.0555ZM37.3194 35.857C38.3816 34.5824 39.9941 33.8228 41.645 33.8228C41.6705 33.8228 41.7089 33.8228 41.7217 33.8228C42.2208 33.8228 42.7327 33.8228 43.2319 33.8228H47.4935C48.7476 33.8228 50.0018 33.8228 51.2688 33.8228C53.3036 33.8357 55.236 35.0459 56.183 36.8998C56.6438 37.7366 56.7845 38.6636 56.8485 39.3588L56.8741 39.6163L56.6822 39.7965C53.9051 42.3585 50.1938 43.839 46.4825 43.839H46.3033C42.6048 43.839 38.8807 42.3585 36.1164 39.7965L35.95 39.3845C36.0396 37.9941 36.5131 36.7711 37.3194 35.857Z" fill="#3454CF"/>
</svg>
