<svg width="293" height="70" viewBox="0 0 293 70" fill="none" xmlns="http://www.w3.org/2000/svg">
<path d="M291.94 41.0133C292.492 40.9887 292.919 40.5215 292.895 39.9697L292.493 30.9787C292.469 30.4269 292.002 29.9996 291.45 30.0242C290.898 30.0488 290.471 30.5161 290.495 31.0678L290.852 39.0599L282.86 39.4164C282.308 39.441 281.881 39.9082 281.905 40.4599C281.93 41.0117 282.397 41.439 282.949 41.4144L291.94 41.0133ZM231.312 2.52645L231.488 1.54197L231.312 2.52645ZM144.644 40.0143L145.195 40.8489L145.241 40.8184L145.284 40.7829L144.644 40.0143ZM76.9924 68.0272L76.9534 67.028L76.9924 68.0272ZM2.64579 39.1735L1.80496 38.6322L0.722364 40.3138L1.5632 40.8551L2.64579 39.1735ZM9.30141 45.5092L10.168 46.0083L11.1661 44.2751L10.2995 43.7761L9.30141 45.5092ZM18.131 48.1188L17.2488 47.648L16.3071 49.4124L17.1893 49.8832L18.131 48.1188ZM33.397 57.829L34.3108 58.2353L35.1233 56.4078L34.2095 56.0015L33.397 57.829ZM42.4604 59.4535L41.529 59.0895L40.8011 60.9523L41.7325 61.3163L42.4604 59.4535ZM58.9619 66.8668L59.9337 67.1026L60.4053 65.159L59.4335 64.9232L58.9619 66.8668ZM68.1566 66.5738L67.1649 66.4453L66.9079 68.4288L67.8996 68.5573L68.1566 66.5738ZM85.3225 68.0221L86.3045 67.8333L85.9269 65.8692L84.9449 66.058L85.3225 68.0221ZM92.8239 64.1177L91.8647 64.4004L92.43 66.3188L93.3892 66.0362L92.8239 64.1177ZM108.912 60.3426L109.831 59.9483L109.042 58.1103L108.123 58.5047L108.912 60.3426ZM115.563 55.1255L114.661 55.5569L115.524 57.3613L116.426 56.9299L115.563 55.1255ZM131.056 49.3269L131.929 48.8388L130.952 47.0932L130.08 47.5814L131.056 49.3269ZM137.163 43.4846L136.305 43.9977L137.331 45.7143L138.19 45.2011L137.163 43.4846ZM153.735 34.2666L154.541 33.6746L153.357 32.0627L152.551 32.6547L153.735 34.2666ZM161.365 26.4523L160.535 27.0111L161.653 28.6697L162.482 28.1109L161.365 26.4523ZM180.747 16.9537L181.625 16.4752L180.668 14.7191L179.79 15.1976L180.747 16.9537ZM189.434 10.3101L188.528 10.733L189.374 12.5453L190.28 12.1225L189.434 10.3101ZM210.258 4.82544L211.229 4.5852L210.749 2.64377L209.778 2.88401L210.258 4.82544ZM220.531 1.09001L219.534 1.16669L219.687 3.1608L220.684 3.08412L220.531 1.09001ZM242.318 7.05031L243.237 7.4444L244.025 5.60626L243.106 5.21216L242.318 7.05031ZM253.909 10.6691L253.041 10.1723L252.048 11.908L252.916 12.4048L253.909 10.6691ZM272.753 25.6365L273.554 26.2361L274.753 24.6355L273.953 24.0359L272.753 25.6365ZM283.419 31.4516L282.645 30.8187L281.379 32.3672L282.153 33.0001L283.419 31.4516ZM2.10449 40.0143C1.5632 40.8551 1.56324 40.8552 1.5633 40.8552C1.56333 40.8552 1.56339 40.8553 1.56346 40.8553C1.56359 40.8554 1.56377 40.8555 1.56399 40.8556C1.56443 40.8559 1.56504 40.8563 1.56584 40.8568C1.56742 40.8578 1.56971 40.8593 1.5727 40.8612C1.57867 40.8651 1.58745 40.8707 1.59899 40.8781C1.62207 40.8929 1.65623 40.9147 1.70121 40.9433C1.79119 41.0006 1.92449 41.0851 2.0992 41.195C2.44862 41.4148 2.96369 41.7362 3.62902 42.144C4.9596 42.9596 6.89148 44.1214 9.30141 45.5092L10.2995 43.7761C7.90715 42.3984 5.99106 41.246 4.67423 40.4388C4.01585 40.0353 3.50735 39.718 3.16413 39.5021C2.99252 39.3942 2.86224 39.3116 2.77521 39.2562C2.73169 39.2285 2.69899 39.2076 2.67734 39.1937C2.66651 39.1868 2.65845 39.1816 2.65318 39.1782C2.65055 39.1765 2.64861 39.1753 2.64738 39.1745C2.64676 39.1741 2.64632 39.1738 2.64606 39.1736C2.64592 39.1736 2.64583 39.1735 2.64579 39.1735C2.64577 39.1735 2.64577 39.1735 2.64576 39.1734C2.64577 39.1735 2.64579 39.1735 2.10449 40.0143ZM17.1893 49.8832C21.9243 52.4103 27.4609 55.1898 33.397 57.829L34.2095 56.0015C28.3262 53.3858 22.8334 50.6285 18.131 48.1188L17.1893 49.8832ZM41.7325 61.3163C47.3877 63.5264 53.2325 65.4765 58.9619 66.8668L59.4335 64.9232C53.8131 63.5594 48.056 61.6403 42.4604 59.4535L41.7325 61.3163ZM67.8996 68.5573C71.0424 68.9644 74.1058 69.1405 77.0314 69.0264L76.9534 67.028C74.16 67.1369 71.2104 66.9695 68.1566 66.5738L67.8996 68.5573ZM77.0314 69.0264C79.6893 68.9228 82.4707 68.5703 85.3225 68.0221L84.9449 66.058C82.1714 66.5912 79.4918 66.9289 76.9534 67.028L77.0314 69.0264ZM93.3892 66.0362C98.5534 64.5143 103.818 62.5284 108.912 60.3426L108.123 58.5047C103.082 60.6681 97.8931 62.6238 92.8239 64.1177L93.3892 66.0362ZM116.426 56.9299C121.784 54.3685 126.781 51.718 131.056 49.3269L130.08 47.5814C125.834 49.9564 120.875 52.5862 115.563 55.1255L116.426 56.9299ZM138.19 45.2011C140.371 43.8967 142.12 42.8102 143.325 42.0492C143.927 41.6686 144.393 41.3694 144.71 41.1649C144.868 41.0626 144.988 40.984 145.07 40.9308C145.111 40.9042 145.142 40.8839 145.162 40.8702C145.173 40.8633 145.181 40.8581 145.186 40.8546C145.189 40.8528 145.191 40.8514 145.192 40.8505C145.193 40.85 145.194 40.8496 145.194 40.8494C145.194 40.8492 145.194 40.8491 145.195 40.8491C145.195 40.849 145.195 40.849 145.195 40.849C145.195 40.8489 145.195 40.8489 144.644 40.0143C144.093 39.1797 144.093 39.1797 144.093 39.1797C144.093 39.1797 144.093 39.1797 144.093 39.1797C144.093 39.1797 144.093 39.1798 144.093 39.1799C144.093 39.18 144.092 39.1803 144.092 39.1806C144.091 39.1814 144.089 39.1825 144.086 39.1841C144.082 39.1873 144.074 39.1921 144.065 39.1985C144.045 39.2114 144.015 39.2308 143.976 39.2565C143.897 39.308 143.779 39.3849 143.624 39.4853C143.313 39.6862 142.853 39.9817 142.256 40.3584C141.064 41.1117 139.329 42.1895 137.163 43.4846L138.19 45.2011ZM144.644 40.0143C145.284 40.7829 145.284 40.783 145.284 40.783C145.284 40.783 145.284 40.783 145.284 40.7829C145.284 40.7829 145.284 40.7828 145.284 40.7827C145.284 40.7825 145.285 40.7821 145.285 40.7815C145.287 40.7804 145.289 40.7786 145.292 40.7762C145.298 40.7714 145.306 40.764 145.318 40.7542C145.342 40.7345 145.378 40.7047 145.426 40.6654C145.522 40.5866 145.665 40.4692 145.855 40.3158C146.233 40.0091 146.793 39.5588 147.52 38.9865C148.972 37.8421 151.088 36.2105 153.735 34.2666L152.551 32.6547C149.884 34.6135 147.75 36.2588 146.282 37.4155C145.548 37.9938 144.98 38.4501 144.595 38.7624C144.402 38.9186 144.255 39.0387 144.156 39.1202C144.107 39.1609 144.069 39.192 144.044 39.213C144.031 39.2235 144.021 39.2315 144.015 39.237C144.011 39.2397 144.009 39.2418 144.007 39.2432C144.006 39.244 144.006 39.2445 144.005 39.2449C144.005 39.2451 144.005 39.2453 144.005 39.2454C144.005 39.2455 144.004 39.2455 144.004 39.2456C144.004 39.2456 144.004 39.2457 144.644 40.0143ZM162.482 28.1109C167.801 24.5273 174.039 20.6093 180.747 16.9537L179.79 15.1976C173.015 18.8899 166.722 22.8425 161.365 26.4523L162.482 28.1109ZM190.28 12.1225C196.852 9.05579 203.632 6.46536 210.258 4.82544L209.778 2.88401C202.992 4.56357 196.086 7.2061 189.434 10.3101L190.28 12.1225ZM220.684 3.08412C224.317 2.80477 227.822 2.92001 231.137 3.51093L231.488 1.54197C227.979 0.916419 224.301 0.800067 220.531 1.09001L220.684 3.08412ZM231.137 3.51093C234.631 4.13394 238.407 5.37343 242.318 7.05031L243.106 5.21216C239.105 3.49628 235.177 2.19977 231.488 1.54197L231.137 3.51093ZM252.916 12.4048C259.892 16.3983 266.778 21.1601 272.753 25.6365L273.953 24.0359C267.938 19.5297 260.98 14.7168 253.909 10.6691L252.916 12.4048ZM282.153 33.0001C284.937 35.2757 287.206 37.2159 288.779 38.5863C289.565 39.2715 290.177 39.8141 290.591 40.1849C290.798 40.3703 290.956 40.5127 291.062 40.6085C291.115 40.6564 291.155 40.6926 291.182 40.7167C291.195 40.7288 291.205 40.7378 291.211 40.7437C291.215 40.7467 291.217 40.7489 291.219 40.7503C291.219 40.751 291.22 40.7515 291.22 40.7519C291.22 40.752 291.221 40.7521 291.221 40.7522C291.221 40.7522 291.221 40.7522 291.221 40.7522C291.221 40.7522 291.221 40.7522 291.896 40.0143C292.57 39.2764 292.57 39.2763 292.57 39.2763C292.57 39.2763 292.57 39.2762 292.57 39.2761C292.57 39.276 292.57 39.2758 292.57 39.2756C292.569 39.2751 292.568 39.2744 292.567 39.2736C292.565 39.2719 292.563 39.2694 292.559 39.2661C292.552 39.2596 292.541 39.25 292.527 39.2373C292.5 39.212 292.458 39.1745 292.404 39.1254C292.296 39.0271 292.135 38.8821 291.924 38.6941C291.504 38.318 290.886 37.7698 290.093 37.0786C288.507 35.6965 286.221 33.7424 283.419 31.4516L282.153 33.0001Z" fill="#3454CF"/>
</svg>
