<svg width="48" height="46" viewBox="0 0 48 46" fill="none" xmlns="http://www.w3.org/2000/svg">
<path d="M38.9689 26.4282L42.1483 17.9023C42.9576 16.0186 44.5941 16.3687 44.5941 16.3687C45.8606 16.6005 46.5422 17.6384 46.3978 18.801L43.4813 30.5249C42.7281 33.537 40.6282 36.4741 38.1835 38.3724L33.1445 41.9777V44.1037C33.1445 44.6124 32.7322 45.0247 32.2234 45.0247H23.7729V39.6805C23.7729 39.6805 23.2222 33.5941 29.0053 30.0792L35.9187 25.6417C36.2588 25.4225 36.6548 25.3059 37.0595 25.3061C37.606 25.3061 38.1473 25.518 38.5557 25.9263C39.365 26.7368 39.3817 28.0459 38.592 28.876L33.9363 32.5478" stroke="#3454CF" stroke-width="1.84212" stroke-miterlimit="10" stroke-linecap="round" stroke-linejoin="round"/>
<path d="M13.5813 32.5478L8.9256 28.876C8.13597 28.0459 8.15255 26.7368 8.96198 25.9263C9.15834 25.7296 9.39156 25.5736 9.64829 25.4672C9.90503 25.3607 10.1802 25.306 10.4582 25.3061C10.8519 25.3061 11.2488 25.4162 11.599 25.6417L18.5124 30.0792C24.2954 33.5941 23.7448 39.6805 23.7448 39.6805V45.0247H15.2942C14.7855 45.0247 14.3731 44.6124 14.3731 44.1037V41.9777L9.33409 38.3724C6.88932 36.4741 4.78957 33.537 4.03633 30.5249L1.11969 18.801C0.975266 17.6383 1.65685 16.6004 2.92341 16.3687C2.92341 16.3687 4.55977 16.0186 5.3692 17.9023L8.54852 26.4282M19.57 24.9192H18.404C17.8953 24.9192 17.4829 24.5069 17.4829 23.9982V19.0598C17.4829 17.0614 19.103 15.4414 21.1013 15.4414H26.4162C28.4146 15.4414 30.0346 17.0615 30.0346 19.0598V23.9982C30.0346 24.5069 29.6222 24.9192 29.1135 24.9192H27.9626" stroke="#3454CF" stroke-width="1.84212" stroke-miterlimit="10" stroke-linecap="round" stroke-linejoin="round"/>
<path d="M23.7587 15.4413C26.1174 15.4413 28.0295 13.5291 28.0295 11.1704C28.0295 8.81167 26.1174 6.89954 23.7587 6.89954C21.3999 6.89954 19.4878 8.81167 19.4878 11.1704C19.4878 13.5291 21.3999 15.4413 23.7587 15.4413Z" stroke="#3454CF" stroke-width="1.84212" stroke-miterlimit="10" stroke-linecap="round" stroke-linejoin="round"/>
<path d="M28.1558 9.62122H33.6789C35.6773 9.62122 37.2973 11.2413 37.2973 13.2396V18.1171C37.2973 18.6592 36.8578 19.0987 36.3157 19.0987H30.0295" stroke="#3454CF" stroke-width="1.84212" stroke-miterlimit="10" stroke-linecap="round" stroke-linejoin="round"/>
<path d="M31.0214 9.62097C33.3801 9.62097 35.2922 7.70884 35.2922 5.3501C35.2922 2.99136 33.3801 1.07922 31.0214 1.07922C28.6626 1.07922 26.7505 2.99136 26.7505 5.3501C26.7505 7.70884 28.6626 9.62097 31.0214 9.62097Z" stroke="#3454CF" stroke-width="1.84212" stroke-miterlimit="10" stroke-linecap="round" stroke-linejoin="round"/>
<path d="M17.488 19.0987H11.2018C10.6597 19.0987 10.2202 18.6592 10.2202 18.1171V13.2396C10.2202 11.2412 11.8403 9.62122 13.8386 9.62122H19.4878" stroke="#3454CF" stroke-width="1.84212" stroke-miterlimit="10" stroke-linecap="round" stroke-linejoin="round"/>
<path d="M16.496 9.62097C18.8547 9.62097 20.7668 7.70884 20.7668 5.3501C20.7668 2.99136 18.8547 1.07922 16.496 1.07922C14.1372 1.07922 12.2251 2.99136 12.2251 5.3501C12.2251 7.70884 14.1372 9.62097 16.496 9.62097Z" stroke="#3454CF" stroke-width="1.84212" stroke-miterlimit="10" stroke-linecap="round" stroke-linejoin="round"/>
</svg>
