<svg width="12" height="16" viewBox="0 0 12 16" fill="none" xmlns="http://www.w3.org/2000/svg">
<path d="M10.4026 3.2464C9.47213 1.63956 7.81949 0.65787 5.98172 0.620354C5.90327 0.618736 5.82431 0.618736 5.74583 0.620354C3.90808 0.65787 2.25545 1.63956 1.32499 3.2464C0.37393 4.88885 0.347909 6.86175 1.25537 8.52394L5.05707 15.4874C5.05878 15.4905 5.06048 15.4936 5.06225 15.4967C5.22951 15.7876 5.52916 15.9613 5.86383 15.9613C6.19848 15.9613 6.49812 15.7876 6.66536 15.4967C6.66712 15.4936 6.66883 15.4905 6.67054 15.4874L10.4722 8.52394C11.3796 6.86175 11.3536 4.88885 10.4026 3.2464ZM5.86377 7.57105C4.67499 7.57105 3.70785 6.60321 3.70785 5.41357C3.70785 4.22393 4.67499 3.25608 5.86377 3.25608C7.05255 3.25608 8.01969 4.22393 8.01969 5.41357C8.01969 6.60321 7.05258 7.57105 5.86377 7.57105Z" fill="#3454CF"/>
</svg>
