<svg width="20" height="14" viewBox="0 0 20 14" fill="none" xmlns="http://www.w3.org/2000/svg">
<path d="M19.3975 1.64964C19.3975 1.62781 19.4125 1.60655 19.4115 1.58496L13.5845 7.20458L19.4046 12.6447C19.408 12.6058 19.3975 12.5666 19.3975 12.5269V1.64964Z" fill="#3454CF"/>
<path d="M12.6951 8.06934L10.3157 10.36C10.1953 10.4759 10.0398 10.5341 9.88425 10.5341C9.7319 10.5341 9.57955 10.4784 9.45997 10.3669L7.08708 8.15436L1.22754 13.8059C1.37002 13.8571 1.52295 13.8969 1.6831 13.8969H18.0855C18.3233 13.8969 18.5463 13.8244 18.7403 13.7163L12.6951 8.06934Z" fill="#3454CF"/>
<path d="M9.87418 9.05348L18.7693 0.479488C18.5679 0.359672 18.3335 0.279297 18.0822 0.279297H1.67984C1.35265 0.279297 1.05284 0.406419 0.819336 0.6003L9.87418 9.05348Z" fill="#3454CF"/>
<path d="M0.3125 1.85742V12.5257C0.3125 12.6482 0.340623 12.7663 0.371152 12.8791L6.15657 7.303L0.3125 1.85742Z" fill="#3454CF"/>
</svg>
