<svg width="18" height="18" viewBox="0 0 18 18" fill="none" xmlns="http://www.w3.org/2000/svg">
<path d="M13.2987 11.8415C12.7418 11.2913 12.0465 11.2913 11.4932 11.8415C11.071 12.2603 10.6489 12.6792 10.2339 13.1051C10.1204 13.2222 10.0246 13.2471 9.88625 13.169C9.61311 13.0199 9.32224 12.8992 9.05974 12.736C7.83594 11.9657 6.81078 10.9754 5.90268 9.86088C5.45218 9.30716 5.05134 8.7144 4.7711 8.04709C4.71435 7.91221 4.72499 7.82347 4.83495 7.71344C5.25708 7.30525 5.66856 6.88641 6.08359 6.46757C6.66179 5.88545 6.66179 5.20395 6.08004 4.61828C5.75015 4.28463 5.42025 3.95808 5.09036 3.62443C4.74982 3.28368 4.41283 2.93938 4.06875 2.60217C3.51183 2.0591 2.81657 2.0591 2.26319 2.60572C1.83752 3.02456 1.42959 3.45405 0.996822 3.86579C0.595982 4.24559 0.393788 4.71057 0.351221 5.25364C0.283823 6.13747 0.500206 6.9716 0.80527 7.78443C1.42959 9.46689 2.38025 10.9612 3.53311 12.3313C5.09036 14.1842 6.94912 15.6501 9.12359 16.7078C10.1026 17.1835 11.1171 17.5491 12.2203 17.6094C12.9795 17.652 13.6392 17.4603 14.1678 16.8676C14.5296 16.4629 14.9375 16.0938 15.3206 15.7069C15.8882 15.1319 15.8918 14.4362 15.3277 13.8683C14.6538 13.1903 13.9762 12.5159 13.2987 11.8415Z" fill="#3454CF"/>
<path d="M12.6216 9.0132L13.9302 8.78958C13.7245 7.5863 13.1571 6.49661 12.2954 5.63053C11.3839 4.71831 10.2314 4.14329 8.96176 3.96582L8.77734 5.28268C9.75969 5.42111 10.6534 5.8648 11.3591 6.57115C12.0258 7.23845 12.462 8.08323 12.6216 9.0132Z" fill="#3454CF"/>
<path d="M14.6634 3.3201C13.1524 1.80802 11.2407 0.853202 9.13024 0.558594L8.9458 1.87546C10.7689 2.13102 12.4218 2.95805 13.727 4.26071C14.9649 5.49949 15.7772 7.06481 16.0716 8.78632L17.3804 8.5627C17.0363 6.56788 16.0964 4.75764 14.6634 3.3201Z" fill="#3454CF"/>
</svg>
