<svg width="80" height="68" viewBox="0 0 80 68" fill="none" xmlns="http://www.w3.org/2000/svg">
<path d="M1.45801 52.6542C10.1247 61.9479 22.2059 60.5625 29.358 60.3438M1.45801 41.0292C9.34343 50.0292 19.8018 50.7417 29.7163 49.6125M28.7018 20.3625C-2.86491 13.7417 -6.76074 42.3084 28.7018 39.0167M34.5705 59.6292C42.8059 68.1709 70.6059 70.0875 78.5413 58.7334M34.5705 46.5729C40.7393 57.9271 69.3976 57.773 78.5413 47.4688M34.5705 35.3959C47.4455 48.8938 71.0288 44.275 78.5413 35.3959" stroke="#3454CF" stroke-width="2" stroke-linecap="round" stroke-linejoin="round"/>
<path d="M56.594 21.975C67.9527 21.975 77.1607 17.3588 77.1607 11.6645C77.1607 5.97026 67.9527 1.35413 56.594 1.35413C45.2354 1.35413 36.0273 5.97026 36.0273 11.6645C36.0273 17.3588 45.2354 21.975 56.594 21.975Z" stroke="#3454CF" stroke-width="2" stroke-linecap="round" stroke-linejoin="round"/>
</svg>
