<svg width="100" height="62" viewBox="0 0 100 62" fill="none" xmlns="http://www.w3.org/2000/svg">
<path d="M1.57222 27.939L11.588 2.55102C11.6615 2.36459 11.771 2.19447 11.9103 2.05037C12.0496 1.90627 12.2159 1.79102 12.3997 1.71119C12.5835 1.63137 12.7813 1.58855 12.9816 1.58516C13.182 1.58177 13.3811 1.61789 13.5675 1.69145L21.5372 4.83558C21.7236 4.9091 21.8938 5.01862 22.0379 5.15789C22.182 5.29716 22.2972 5.46345 22.377 5.64727C22.4568 5.83109 22.4997 6.02883 22.5031 6.22921C22.5065 6.42958 22.4703 6.62866 22.3968 6.81507L12.381 32.2033C12.3074 32.3897 12.1979 32.5598 12.0586 32.7039C11.9194 32.848 11.7531 32.9632 11.5692 33.043C11.3854 33.1228 11.1877 33.1656 10.9873 33.169C10.787 33.1723 10.5879 33.1362 10.4015 33.0627L2.43179 29.9187C2.05533 29.7701 1.75329 29.4781 1.5921 29.1069C1.43091 28.7356 1.42376 28.3155 1.57222 27.939Z" stroke="#3454CF" stroke-width="2" stroke-miterlimit="10" stroke-linecap="round" stroke-linejoin="round"/>
<path d="M71.7607 42.1403L66.5469 38.1229" stroke="#3454CF" stroke-width="2" stroke-miterlimit="10" stroke-linecap="round" stroke-linejoin="round"/>
<path d="M64.7846 47.7542L60.1494 44.1856" stroke="#3454CF" stroke-width="2" stroke-miterlimit="10" stroke-linecap="round" stroke-linejoin="round"/>
<path d="M57.1168 52.8669L53.8135 50.3105" stroke="#3454CF" stroke-width="2" stroke-miterlimit="10" stroke-linecap="round" stroke-linejoin="round"/>
<path d="M22.2949 44.4699C20.6637 43.0867 20.4625 40.6431 21.8457 39.0119L25.4666 34.7617C26.8498 33.1304 29.2935 32.9293 30.9246 34.3125C32.5558 35.6955 32.757 38.139 31.3738 39.7703L27.7529 44.0206C26.3697 45.6519 23.9262 45.8531 22.2949 44.4699Z" stroke="#3454CF" stroke-width="2" stroke-miterlimit="10" stroke-linecap="round" stroke-linejoin="round"/>
<path d="M28.2011 49.4784C26.5698 48.0952 26.3689 45.6517 27.7519 44.0204L31.373 39.7702C32.756 38.139 35.1997 37.9378 36.8309 39.321C38.4622 40.704 38.6632 43.1478 37.2802 44.7788L33.6591 49.0292C32.2759 50.6604 29.8323 50.8616 28.2011 49.4784Z" stroke="#3454CF" stroke-width="2" stroke-miterlimit="10" stroke-linecap="round" stroke-linejoin="round"/>
<path d="M34.1094 54.4871C32.4781 53.1039 32.277 50.6603 33.6602 49.0291L37.2812 44.7787C38.6642 43.1476 41.108 42.9465 42.7392 44.3297C44.3703 45.7127 44.5714 48.1562 43.1882 49.7875L39.5674 54.0378C38.1842 55.6691 35.7406 55.8703 34.1094 54.4871Z" stroke="#3454CF" stroke-width="2" stroke-miterlimit="10" stroke-linecap="round" stroke-linejoin="round"/>
<path d="M40.0146 59.4957C38.3834 58.1125 38.1822 55.669 39.5654 54.0377L43.1863 49.7876C44.5695 48.1563 47.0133 47.9551 48.6443 49.3383C50.2755 50.7213 50.4767 53.1649 49.0935 54.7961L45.4726 59.0465C44.0894 60.6778 41.6459 60.8789 40.0146 59.4957Z" stroke="#3454CF" stroke-width="2" stroke-miterlimit="10" stroke-linecap="round" stroke-linejoin="round"/>
<path d="M78.2586 36.0152L76.3109 34.5779L67.1508 27.8175L66.1012 27.0796C57.4536 28.5486 51.6561 23.8103 49.2962 21.3461C48.602 20.6211 47.4563 20.5935 46.7097 21.2642C38.6009 28.5468 33.9052 26.6802 31.6253 24.5138C30.529 23.4722 30.7177 21.6767 31.9906 20.8597C36.349 18.0623 40.4189 14.5215 43.3269 11.7619L42.8091 11.568C40.9684 10.8782 39.0338 10.4713 37.0712 10.3609L31.7085 10.0598C31.0062 10.0203 30.3017 10.0115 29.5998 10.0567C28.3308 10.1382 27.0602 9.92526 25.8873 9.43439L22.0047 7.80978L12.4824 31.9466L20.0103 36.6943L22.3927 38.3689L25.466 34.7619C26.849 33.1304 29.2925 32.9294 30.9238 34.3124C32.555 35.6956 32.7562 38.1392 31.373 39.7704C32.7562 38.1392 35.1997 37.938 36.831 39.3212C38.4622 40.7044 38.6634 43.148 37.2802 44.7792C38.6634 43.148 41.1069 42.9468 42.7382 44.33C44.3694 45.713 44.5706 48.1567 43.1874 49.7878C44.5706 48.1567 47.0142 47.9556 48.6454 49.3386C50.2766 50.7218 50.4778 53.1655 49.0946 54.7966L47.6259 56.5206L50.8589 58.9067C52.6544 60.2317 55.1846 60.0796 56.7262 58.4665C58.2268 56.8966 58.3163 54.5333 57.1167 52.8673L58.7378 54.0636C60.5866 55.428 63.2051 55.2186 64.7246 53.4954C66.1967 51.8261 66.1594 49.3768 64.7848 47.7544L65.6955 48.4263C67.4584 49.7272 69.9362 49.6093 71.4871 48.0618C73.1359 46.4167 73.1797 43.8394 71.7617 42.1405L73.1289 43.1497C75.0402 44.5601 77.7316 44.198 79.2004 42.3187C80.7338 40.3566 80.2623 37.4939 78.2586 36.0152Z" stroke="#3454CF" stroke-width="2" stroke-miterlimit="10" stroke-linecap="round" stroke-linejoin="round"/>
<path d="M56.3449 8.68546L50.7847 7.80421C48.9037 7.50597 46.9922 8.12882 45.6533 9.48311C42.8943 12.2741 37.6877 17.2026 31.9905 20.8594C30.7176 21.6764 30.5287 23.4717 31.6252 24.5135C33.9049 26.6797 38.6006 28.5463 46.7095 21.2637C47.4562 20.593 48.6017 20.6206 49.2961 21.3456C51.6599 23.8139 57.4716 28.5643 66.1423 27.0731L79.1786 36.694L87.3264 31.4604L78.022 7.87531L72.3667 9.963C70.7983 10.5418 69.1076 10.7084 67.4564 10.4468L63.1374 9.76221" stroke="#3454CF" stroke-width="2" stroke-miterlimit="10" stroke-linecap="round" stroke-linejoin="round"/>
<path d="M92.2737 12.3392L88.4122 2.55134C88.2637 2.17489 87.9717 1.87286 87.6005 1.71166C87.2293 1.55047 86.8092 1.54331 86.4327 1.69177L78.463 4.8359C78.0866 4.98445 77.7846 5.27644 77.6234 5.64765C77.4622 6.01887 77.455 6.4389 77.6035 6.81539L87.6193 32.2036C87.7678 32.58 88.0598 32.8821 88.431 33.0433C88.8022 33.2045 89.2223 33.2116 89.5987 33.0632L97.5684 29.919C97.7549 29.8455 97.925 29.736 98.0691 29.5967C98.2132 29.4575 98.3284 29.2912 98.4083 29.1073C98.4881 28.9235 98.5309 28.7258 98.5343 28.5254C98.5377 28.325 98.5016 28.126 98.428 27.9395L94.7854 18.7062" stroke="#3454CF" stroke-width="2" stroke-miterlimit="10" stroke-linecap="round" stroke-linejoin="round"/>
</svg>
