<svg width="48" height="54" viewBox="0 0 48 54" fill="none" xmlns="http://www.w3.org/2000/svg">
<path d="M34.4274 12.2162C32.7424 10.6969 30.7522 9.5551 28.5901 8.86725C26.4281 8.1794 24.144 7.9614 21.8908 8.22783C18.4899 8.6162 15.3023 10.082 12.7937 12.411C10.2851 14.74 8.58706 17.8102 7.94763 21.173C7.3082 24.5357 7.7609 28.0149 9.23959 31.1021C10.7183 34.1893 13.1455 36.7227 16.1665 38.3322V47.7937C16.167 48.2945 16.3662 48.7747 16.7203 49.1288C17.0744 49.4829 17.5546 49.6821 18.0554 49.6826H19.9443V51.5715C19.9448 52.0723 20.144 52.5525 20.4981 52.9066C20.8522 53.2607 21.3324 53.4599 21.8332 53.4604H25.611C26.1118 53.4599 26.592 53.2607 26.9461 52.9066C27.3002 52.5525 27.4994 52.0723 27.4999 51.5715V49.6826H29.3888C29.8896 49.6821 30.3698 49.4829 30.7239 49.1288C31.078 48.7747 31.2772 48.2945 31.2777 47.7937V38.3331C33.5572 37.1191 35.5099 35.3726 36.9697 33.242C38.4295 31.1115 39.3533 28.66 39.6625 26.096C39.9717 23.5319 39.6573 20.9311 38.7458 18.5146C37.8344 16.0981 36.353 13.9374 34.4274 12.2162ZM29.3888 42.127V44.0159H18.0554V42.127H29.3888ZM25.6129 51.5715H21.8332V49.6826H25.611L25.6129 51.5715ZM26.5555 47.7937H18.0554V45.9048H29.3888V47.7937H26.5555ZM29.9196 36.9061C29.7604 36.9835 29.6261 37.1042 29.5323 37.2544C29.4384 37.4045 29.3887 37.578 29.3888 37.7551V40.2381H24.6665V35.9068L27.2232 33.3502C27.3952 33.1721 27.4904 32.9335 27.4883 32.6859C27.4861 32.4382 27.3868 32.2014 27.2117 32.0263C27.0366 31.8511 26.7997 31.7518 26.5521 31.7497C26.3044 31.7475 26.0658 31.8427 25.8877 32.0148L23.7221 34.1804L21.5565 32.0148C21.3783 31.8427 21.1398 31.7475 20.8921 31.7497C20.6445 31.7518 20.4076 31.8511 20.2325 32.0263C20.0574 32.2014 19.9581 32.4382 19.9559 32.6859C19.9538 32.9335 20.049 33.1721 20.221 33.3502L22.7776 35.9068V40.2381H18.0554V37.7542C18.0554 37.5774 18.0058 37.4041 17.9121 37.2542C17.8184 37.1042 17.6845 36.9836 17.5256 36.9061C14.7688 35.567 12.521 33.3696 11.1199 30.6438C9.71876 27.9181 9.23999 24.8113 9.7555 21.7902C10.271 18.7691 11.753 15.9968 13.9787 13.89C16.2044 11.7831 19.0538 10.4554 22.0986 10.1063C22.6443 10.0454 23.1929 10.0149 23.7419 10.0147C27.2228 10.0045 30.5827 11.2911 33.1666 13.6235C34.8988 15.1718 36.2233 17.1228 37.0229 19.3041C37.8226 21.4855 38.073 23.8302 37.7519 26.1313C37.4308 28.4323 36.5481 30.6189 35.1818 32.4981C33.8155 34.3772 32.0076 35.8911 29.9177 36.9061H29.9196ZM23.7221 6.23787C23.9726 6.23787 24.2128 6.13836 24.3899 5.96125C24.567 5.78413 24.6665 5.5439 24.6665 5.29342V1.51562C24.6665 1.26513 24.567 1.02491 24.3899 0.84779C24.2128 0.670671 23.9726 0.571167 23.7221 0.571167C23.4716 0.571167 23.2314 0.670671 23.0543 0.84779C22.8772 1.02491 22.7776 1.26513 22.7776 1.51562V5.29342C22.7776 5.5439 22.8772 5.78413 23.0543 5.96125C23.2314 6.13836 23.4716 6.23787 23.7221 6.23787ZM9.69701 11.4937C9.7847 11.5815 9.88881 11.6511 10.0034 11.6986C10.118 11.7461 10.2408 11.7706 10.3649 11.7707C10.4889 11.7707 10.6118 11.7463 10.7264 11.6989C10.841 11.6514 10.9452 11.5819 11.0329 11.4942C11.1207 11.4065 11.1903 11.3024 11.2378 11.1878C11.2853 11.0732 11.3098 10.9504 11.3099 10.8263C11.3099 10.7023 11.2855 10.5794 11.2381 10.4648C11.1906 10.3502 11.1211 10.246 11.0334 10.1583L8.36156 7.48643C8.27444 7.39623 8.17022 7.32428 8.05499 7.27478C7.93977 7.22528 7.81584 7.19923 7.69043 7.19814C7.56503 7.19705 7.44067 7.22094 7.3246 7.26843C7.20853 7.31592 7.10308 7.38605 7.0144 7.47473C6.92572 7.5634 6.85559 7.66885 6.80811 7.78492C6.76062 7.90099 6.73672 8.02536 6.73781 8.15076C6.7389 8.27616 6.76496 8.40009 6.81445 8.51532C6.86395 8.63055 6.9359 8.73476 7.0261 8.82189L9.69701 11.4937ZM4.83309 23.238H1.05529C0.804806 23.238 0.564582 23.3375 0.387463 23.5146C0.210344 23.6917 0.11084 23.9319 0.11084 24.1824C0.11084 24.4329 0.210344 24.6731 0.387463 24.8503C0.564582 25.0274 0.804806 25.1269 1.05529 25.1269H4.83309C5.08358 25.1269 5.3238 25.0274 5.50092 24.8503C5.67804 24.6731 5.77754 24.4329 5.77754 24.1824C5.77754 23.9319 5.67804 23.6917 5.50092 23.5146C5.3238 23.3375 5.08358 23.238 4.83309 23.238Z" fill="#3454CF"/>
<path d="M9.69703 36.8711L7.02612 39.543C6.93592 39.6301 6.86397 39.7343 6.81447 39.8495C6.76497 39.9648 6.73892 40.0887 6.73783 40.2141C6.73674 40.3395 6.76063 40.4639 6.80812 40.5799C6.85561 40.696 6.92574 40.8015 7.01442 40.8901C7.10309 40.9788 7.20854 41.0489 7.32461 41.0964C7.44068 41.1439 7.56505 41.1678 7.69045 41.1667C7.81585 41.1656 7.93978 41.1396 8.05501 41.0901C8.17024 41.0406 8.27445 40.9686 8.36158 40.8784L11.0334 38.2066C11.2055 38.0285 11.3007 37.7899 11.2985 37.5423C11.2964 37.2946 11.197 37.0577 11.0219 36.8826C10.8468 36.7075 10.6099 36.6082 10.3623 36.6061C10.1147 36.6039 9.87515 36.6991 9.69703 36.8711ZM39.0827 7.48645L36.4108 10.1583C36.3206 10.2454 36.2487 10.3496 36.1992 10.4649C36.1497 10.5801 36.1236 10.704 36.1225 10.8294C36.1214 10.9548 36.1453 11.0792 36.1928 11.1953C36.2403 11.3113 36.3104 11.4168 36.3991 11.5055C36.4878 11.5941 36.5932 11.6643 36.7093 11.7118C36.8254 11.7592 36.9497 11.7831 37.0751 11.782C37.2005 11.781 37.3245 11.7549 37.4397 11.7054C37.5549 11.6559 37.6591 11.584 37.7463 11.4938L40.4181 8.8219C40.5083 8.73478 40.5803 8.63057 40.6298 8.51534C40.6793 8.40011 40.7053 8.27618 40.7064 8.15078C40.7075 8.02537 40.6836 7.90101 40.6361 7.78494C40.5886 7.66887 40.5185 7.56342 40.4298 7.47474C40.3411 7.38607 40.2357 7.31594 40.1196 7.26845C40.0035 7.22096 39.8792 7.19707 39.7538 7.19816C39.6284 7.19925 39.5044 7.2253 39.3892 7.2748C39.274 7.32429 39.1698 7.39624 39.0827 7.48645ZM37.7472 36.8711C37.5701 36.6939 37.3299 36.5943 37.0793 36.5942C36.8288 36.5941 36.5885 36.6936 36.4113 36.8707C36.2341 37.0478 36.1344 37.288 36.1344 37.5385C36.1343 37.7891 36.2337 38.0294 36.4108 38.2066L39.0827 40.8784C39.2608 41.0505 39.4993 41.1457 39.747 41.1435C39.9946 41.1414 40.2315 41.042 40.4066 40.8669C40.5817 40.6918 40.681 40.4549 40.6832 40.2073C40.6853 39.9597 40.5901 39.7211 40.4181 39.543L37.7472 36.8711ZM46.3889 23.238H42.6111C42.3606 23.238 42.1204 23.3375 41.9433 23.5146C41.7662 23.6917 41.6667 23.932 41.6667 24.1824C41.6667 24.4329 41.7662 24.6732 41.9433 24.8503C42.1204 25.0274 42.3606 25.1269 42.6111 25.1269H46.3889C46.6394 25.1269 46.8796 25.0274 47.0568 24.8503C47.2339 24.6732 47.3334 24.4329 47.3334 24.1824C47.3334 23.932 47.2339 23.6917 47.0568 23.5146C46.8796 23.3375 46.6394 23.238 46.3889 23.238Z" fill="#3454CF"/>
</svg>
