<svg width="61" height="38" viewBox="0 0 61 38" fill="none" xmlns="http://www.w3.org/2000/svg">
<path d="M1.45004 17.1579L7.50242 1.81631C7.54684 1.70365 7.61302 1.60085 7.69718 1.51377C7.78134 1.42669 7.88183 1.35705 7.99291 1.30881C8.10399 1.26058 8.22348 1.2347 8.34456 1.23265C8.46564 1.23061 8.58594 1.25243 8.69859 1.29688L13.5145 3.19683C13.6272 3.24125 13.73 3.30744 13.8171 3.39159C13.9042 3.47575 13.9738 3.57624 14.022 3.68732C14.0703 3.7984 14.0962 3.91789 14.0982 4.03897C14.1002 4.16006 14.0784 4.28036 14.034 4.393L7.98159 19.7347C7.93716 19.8473 7.87097 19.9501 7.78681 20.0372C7.70264 20.1242 7.60215 20.1939 7.49107 20.2421C7.38 20.2903 7.26051 20.3162 7.13943 20.3182C7.01835 20.3203 6.89806 20.2984 6.78542 20.254L1.96946 18.3542C1.74197 18.2644 1.55946 18.0879 1.46205 17.8636C1.36465 17.6392 1.36033 17.3854 1.45004 17.1579Z" stroke="#3454CF" stroke-width="1.68007" stroke-miterlimit="10" stroke-linecap="round" stroke-linejoin="round"/>
<path d="M43.864 25.7394L40.7134 23.3117" stroke="#3454CF" stroke-width="1.68007" stroke-miterlimit="10" stroke-linecap="round" stroke-linejoin="round"/>
<path d="M39.6486 29.1317L36.8477 26.9753" stroke="#3454CF" stroke-width="1.68007" stroke-miterlimit="10" stroke-linecap="round" stroke-linejoin="round"/>
<path d="M35.0147 32.2213L33.0186 30.6765" stroke="#3454CF" stroke-width="1.68007" stroke-miterlimit="10" stroke-linecap="round" stroke-linejoin="round"/>
<path d="M13.9723 27.1471C12.9865 26.3112 12.865 24.8347 13.7008 23.8489L15.8888 21.2806C16.7247 20.2949 18.2014 20.1733 19.187 21.0091C20.1728 21.8449 20.2943 23.3215 19.4585 24.3072L17.2704 26.8756C16.4346 27.8614 14.958 27.9829 13.9723 27.1471Z" stroke="#3454CF" stroke-width="1.68007" stroke-miterlimit="10" stroke-linecap="round" stroke-linejoin="round"/>
<path d="M17.5411 30.1737C16.5553 29.3379 16.4339 27.8613 17.2696 26.8755L19.4578 24.3072C20.2935 23.3215 21.7702 23.1999 22.7559 24.0358C23.7417 24.8715 23.8631 26.3482 23.0274 27.3338L20.8392 29.9022C20.0034 30.888 18.5268 31.0095 17.5411 30.1737Z" stroke="#3454CF" stroke-width="1.68007" stroke-miterlimit="10" stroke-linecap="round" stroke-linejoin="round"/>
<path d="M21.1114 33.2003C20.1257 32.3645 20.0041 30.8879 20.84 29.9021L23.0281 27.3337C23.8639 26.3481 25.3406 26.2265 26.3263 27.0624C27.3119 27.8981 27.4335 29.3747 26.5976 30.3604L24.4096 32.9289C23.5738 33.9146 22.0972 34.0362 21.1114 33.2003Z" stroke="#3454CF" stroke-width="1.68007" stroke-miterlimit="10" stroke-linecap="round" stroke-linejoin="round"/>
<path d="M24.6803 36.227C23.6945 35.3912 23.573 33.9146 24.4088 32.9289L26.5969 30.3606C27.4327 29.3748 28.9094 29.2533 29.895 30.0891C30.8808 30.9248 31.0023 32.4014 30.1665 33.3872L27.9784 35.9556C27.1426 36.9413 25.666 37.0629 24.6803 36.227Z" stroke="#3454CF" stroke-width="1.68007" stroke-miterlimit="10" stroke-linecap="round" stroke-linejoin="round"/>
<path d="M47.7904 22.0381L46.6135 21.1696L41.0782 17.0844L40.4439 16.6385C35.2183 17.5262 31.715 14.6629 30.2889 13.1738C29.8695 12.7357 29.1771 12.7191 28.7259 13.1244C23.8259 17.5251 20.9884 16.3972 19.6107 15.0881C18.9482 14.4586 19.0623 13.3737 19.8314 12.88C22.4651 11.1895 24.9245 9.04985 26.6818 7.38229L26.3689 7.2651C25.2566 6.84829 24.0875 6.60237 22.9016 6.53571L19.661 6.35372C19.2366 6.32988 18.8109 6.32456 18.3867 6.35183C17.6199 6.40112 16.8521 6.27243 16.1433 5.9758L13.7971 4.99408L8.04297 19.5796L12.592 22.4485L14.0316 23.4604L15.8887 21.2808C16.7244 20.2949 18.201 20.1735 19.1868 21.0092C20.1725 21.845 20.2941 23.3216 19.4582 24.3074C20.2941 23.3216 21.7707 23.2001 22.7564 24.0359C23.7421 24.8718 23.8637 26.3484 23.0279 27.3341C23.8637 26.3484 25.3403 26.2268 26.326 27.0626C27.3118 27.8984 27.4333 29.3751 26.5975 30.3607C27.4333 29.3751 28.9099 29.2535 29.8957 30.0892C30.8814 30.9251 31.003 32.4018 30.1671 33.3874L29.2796 34.4292L31.2332 35.8711C32.3182 36.6718 33.8472 36.5798 34.7788 35.6051C35.6855 34.6564 35.7396 33.2283 35.0147 32.2216L35.9943 32.9445C37.1115 33.769 38.6939 33.6425 39.6121 32.6011C40.5016 31.5924 40.4791 30.1124 39.6484 29.1319L40.1988 29.538C41.2641 30.3241 42.7613 30.2528 43.6985 29.3177C44.6949 28.3236 44.7213 26.7662 43.8645 25.7396L44.6906 26.3494C45.8456 27.2017 47.472 26.9829 48.3595 25.8472C49.2861 24.6616 49.0012 22.9317 47.7904 22.0381Z" stroke="#3454CF" stroke-width="1.68007" stroke-miterlimit="10" stroke-linecap="round" stroke-linejoin="round"/>
<path d="M34.5483 5.52329L31.1884 4.99076C30.0517 4.81054 28.8966 5.18692 28.0876 6.00529C26.4204 7.69185 23.2741 10.6701 19.8313 12.8798C19.0622 13.3735 18.948 14.4584 19.6106 15.0879C20.9882 16.3969 23.8257 17.5249 28.7258 13.1241C29.177 12.7188 29.8693 12.7355 30.2888 13.1736C31.7173 14.6652 35.2292 17.5357 40.4687 16.6346L48.3463 22.4484L53.2699 19.2858L47.6474 5.03372L44.23 6.29528C43.2823 6.64505 42.2606 6.74571 41.2628 6.58762L38.6529 6.17395" stroke="#3454CF" stroke-width="1.68007" stroke-miterlimit="10" stroke-linecap="round" stroke-linejoin="round"/>
<path d="M56.2594 7.73104L53.9259 1.8164C53.8362 1.58892 53.6597 1.4064 53.4354 1.309C53.2111 1.21159 52.9573 1.20727 52.7298 1.29698L47.9138 3.19692C47.6863 3.28669 47.5038 3.46313 47.4064 3.68745C47.309 3.91177 47.3047 4.16559 47.3944 4.39309L53.4467 19.7348C53.5365 19.9622 53.713 20.1448 53.9373 20.2422C54.1616 20.3396 54.4154 20.3439 54.6429 20.2542L59.4589 18.3542C59.5715 18.3098 59.6743 18.2436 59.7614 18.1595C59.8485 18.0753 59.9181 17.9748 59.9664 17.8638C60.0146 17.7527 60.0405 17.6332 60.0425 17.5121C60.0446 17.391 60.0228 17.2707 59.9783 17.1581L57.7772 11.5785" stroke="#3454CF" stroke-width="1.68007" stroke-miterlimit="10" stroke-linecap="round" stroke-linejoin="round"/>
</svg>
