<svg width="171" height="34" viewBox="0 0 171 34" fill="none" xmlns="http://www.w3.org/2000/svg">
<path d="M155.862 28.7476H170.175V25.7164H159.362V18.732H169.596V15.7945H159.362V9.23199H170.175V6.20074H155.862V28.7476Z" fill="#3454CF"/>
<path d="M128.893 28.7476H132.096V12.1226H133.706L130.05 6.82574L138.987 28.7476H141.581L150.534 6.82574L146.878 12.1226H148.487V28.7476H151.69V6.20074H147.628L140.331 24.1851H140.237L132.94 6.20074H128.893V28.7476Z" fill="#3454CF"/>
<path d="M123.987 29.0757C124.331 29.0757 124.654 29.0601 124.956 29.0289C125.258 28.9976 125.508 28.9664 125.706 28.9351V26.3257C125.581 26.3362 125.44 26.3518 125.284 26.3726C125.138 26.383 124.977 26.3882 124.8 26.3882C124.081 26.3882 123.539 26.2372 123.175 25.9351C122.81 25.6226 122.628 25.0497 122.628 24.2164V14.9976H125.706V12.3101H122.628V8.02887H119.159V12.3101H116.8V14.9976H119.159V24.4039C119.159 26.0497 119.555 27.2424 120.346 27.982C121.149 28.7112 122.362 29.0757 123.987 29.0757Z" fill="#3454CF"/>
<path d="M108.909 29.0757C110.201 29.0757 111.346 28.8622 112.346 28.4351C113.357 28.008 114.149 27.4143 114.721 26.6539C115.294 25.8935 115.581 25.0132 115.581 24.0132V23.9976C115.581 22.8101 115.227 21.8674 114.518 21.1695C113.82 20.4612 112.633 19.9143 110.956 19.5289L108.268 18.9039C107.393 18.706 106.768 18.4299 106.393 18.0757C106.018 17.7216 105.831 17.2945 105.831 16.7945V16.7789C105.831 16.3414 105.951 15.9612 106.19 15.6382C106.43 15.3049 106.774 15.0497 107.221 14.8726C107.669 14.6955 108.195 14.607 108.8 14.607C109.747 14.607 110.497 14.8362 111.05 15.2945C111.602 15.7424 111.925 16.3257 112.018 17.0445L112.034 17.1539H115.206V16.9664C115.154 16.0393 114.862 15.2007 114.331 14.4507C113.81 13.6903 113.081 13.0914 112.143 12.6539C111.206 12.2164 110.091 11.9976 108.8 11.9976C107.539 11.9976 106.43 12.206 105.471 12.6226C104.513 13.0289 103.768 13.607 103.237 14.357C102.706 15.0966 102.44 15.9612 102.44 16.9507V16.9664C102.44 18.1539 102.826 19.133 103.596 19.9039C104.378 20.6643 105.55 21.2216 107.112 21.5757L109.8 22.1851C110.685 22.4039 111.3 22.6747 111.643 22.9976C111.987 23.3205 112.159 23.7476 112.159 24.2789V24.2945C112.159 24.7424 112.029 25.1278 111.768 25.4507C111.508 25.7737 111.138 26.0237 110.659 26.2007C110.18 26.3674 109.596 26.4507 108.909 26.4507C107.878 26.4507 107.076 26.2424 106.503 25.8257C105.93 25.3987 105.56 24.8101 105.393 24.0601L105.362 23.9039H102.018L102.034 24.0445C102.149 25.0445 102.487 25.9247 103.05 26.6851C103.612 27.4351 104.383 28.0237 105.362 28.4507C106.352 28.8674 107.534 29.0757 108.909 29.0757Z" fill="#3454CF"/>
<path d="M92.8464 29.0757C93.8464 29.0757 94.7527 28.9403 95.5652 28.6695C96.3777 28.3987 97.0808 28.0289 97.6746 27.5601C98.2787 27.081 98.7683 26.5445 99.1433 25.9507C99.5183 25.357 99.7735 24.7372 99.9089 24.0914L99.9402 23.9195H96.7214L96.6746 24.0445C96.5391 24.4612 96.2996 24.8414 95.9558 25.1851C95.6225 25.5185 95.2006 25.7893 94.6902 25.9976C94.1798 26.1955 93.5912 26.2945 92.9246 26.2945C92.0183 26.2945 91.2319 26.0966 90.5652 25.7007C89.8985 25.2945 89.3829 24.7164 89.0183 23.9664C88.6641 23.206 88.4871 22.2945 88.4871 21.232V19.9195C88.4871 18.8049 88.6694 17.8674 89.0339 17.107C89.3985 16.3362 89.8985 15.7528 90.5339 15.357C91.1694 14.9612 91.8881 14.7632 92.6902 14.7632C93.5027 14.7632 94.2162 14.9507 94.8308 15.3257C95.4558 15.7007 95.9402 16.2737 96.2839 17.0445C96.6381 17.8049 96.8152 18.7632 96.8152 19.9195V21.232L98.4871 18.9976H86.7683V21.3882H100.128V20.2476C100.128 18.6018 99.8256 17.1591 99.2214 15.9195C98.6173 14.6695 97.7579 13.706 96.6433 13.0289C95.5391 12.3414 94.2162 11.9976 92.6746 11.9976C91.1433 11.9976 89.81 12.357 88.6746 13.0757C87.5391 13.7841 86.6589 14.7841 86.0339 16.0757C85.4089 17.357 85.0964 18.8518 85.0964 20.5601V20.5757C85.0964 22.3049 85.4037 23.8101 86.0183 25.0914C86.6433 26.3622 87.5339 27.3466 88.6902 28.0445C89.8569 28.732 91.2423 29.0757 92.8464 29.0757Z" fill="#3454CF"/>
<path d="M74.9714 28.7476H78.6121L84.5027 12.3101H80.9558L76.8464 25.4351H76.7683L72.6433 12.3101H69.0496L74.9714 28.7476Z" fill="#3454CF"/>
<path d="M53.0339 28.7476H56.4402V19.1695C56.4402 18.3049 56.5964 17.5549 56.9089 16.9195C57.2319 16.2841 57.685 15.7893 58.2683 15.4351C58.8621 15.081 59.5548 14.9039 60.3464 14.9039C61.5131 14.9039 62.3829 15.2372 62.9558 15.9039C63.5391 16.5705 63.8308 17.5237 63.8308 18.7632V28.7476H67.2214V18.107C67.2214 16.2112 66.7266 14.7216 65.7371 13.6382C64.7475 12.5445 63.3516 11.9976 61.5496 11.9976C60.31 11.9976 59.2683 12.258 58.4246 12.7789C57.5808 13.2893 56.9402 13.9612 56.5027 14.7945H56.4402V12.3101H53.0339V28.7476Z" fill="#3454CF"/>
<path d="M45.7996 28.7476H49.2996V6.20074H45.7996V28.7476Z" fill="#3454CF"/>
<rect y="0.74762" width="22.8929" height="22.8929" rx="3" fill="#3454CF"/>
<rect x="8.80664" y="10.3594" width="22.8929" height="22.8929" rx="3" fill="#EBEEFA"/>
</svg>
