<svg width="86" height="82" viewBox="0 0 86 82" fill="none" xmlns="http://www.w3.org/2000/svg">
<path d="M65.5583 32.3917C68 29.95 68 26.025 68 18.1667C68 10.3083 68 6.38333 65.5583 3.94167M65.5583 32.3917C63.1167 34.8333 59.1917 34.8333 51.3333 34.8333H34.6667C26.8083 34.8333 22.8833 34.8333 20.4417 32.3917M65.5583 3.94167C63.1167 1.5 59.1917 1.5 51.3333 1.5H34.6667C26.8083 1.5 22.8833 1.5 20.4417 3.94167M20.4417 3.94167C18 6.38333 18 10.3083 18 18.1667C18 26.025 18 29.95 20.4417 32.3917M47.1667 18.1667C47.1667 19.2717 46.7277 20.3315 45.9463 21.1129C45.1649 21.8943 44.1051 22.3333 43 22.3333C41.8949 22.3333 40.8351 21.8943 40.0537 21.1129C39.2723 20.3315 38.8333 19.2717 38.8333 18.1667C38.8333 17.0616 39.2723 16.0018 40.0537 15.2204C40.8351 14.439 41.8949 14 43 14C44.1051 14 45.1649 14.439 45.9463 15.2204C46.7277 16.0018 47.1667 17.0616 47.1667 18.1667Z" stroke="#3454CF" stroke-width="2"/>
<path d="M67.9997 14C64.6845 14 61.505 12.683 59.1608 10.3388C56.8166 7.99463 55.4997 4.81521 55.4997 1.5M67.9997 22.3333C64.6845 22.3333 61.505 23.6503 59.1608 25.9945C56.8166 28.3387 55.4997 31.5181 55.4997 34.8333M17.9997 14C21.3149 14 24.4943 12.683 26.8385 10.3388C29.1827 7.99463 30.4997 4.81521 30.4997 1.5M17.9997 22.3333C21.3149 22.3333 24.4943 23.6503 26.8385 25.9945C29.1827 28.3387 30.4997 31.5181 30.4997 34.8333M13.833 73.95H23.2497C27.458 73.95 31.7205 74.3917 35.8163 75.2333C43.1288 76.7356 50.6529 76.9022 58.0247 75.725C61.6413 75.1417 65.1913 74.2458 68.408 72.6958C71.308 71.2917 74.8622 69.3208 77.2497 67.1083C79.633 64.9 82.1163 61.2875 83.8747 58.4625C85.3913 56.0375 84.658 53.0667 82.2663 51.2625C80.9224 50.2849 79.3032 49.7583 77.6413 49.7583C75.9795 49.7583 74.3603 50.2849 73.0163 51.2625L65.4872 56.95C62.5705 59.1583 59.383 61.1875 55.5872 61.7917C55.1288 61.8625 54.6497 61.9292 54.1497 61.9875M54.1497 61.9875C53.997 62.0052 53.8442 62.0219 53.6913 62.0375M54.1497 61.9875C54.8166 61.8071 55.4281 61.4635 55.9288 60.9875C56.5567 60.4443 57.0694 59.7809 57.4367 59.0363C57.804 58.2918 58.0185 57.4812 58.0674 56.6524C58.1163 55.8237 57.9988 54.9935 57.7216 54.2109C57.4445 53.4283 57.0134 52.7091 56.4538 52.0958C55.9109 51.493 55.2785 50.9773 54.5788 50.5667C42.9247 43.6125 24.7872 48.9083 13.833 56.6792M54.1497 61.9875C53.9991 62.0203 53.8455 62.0371 53.6913 62.0375M53.6913 62.0375C51.1785 62.29 48.6469 62.2956 46.133 62.0542" stroke="#3454CF" stroke-width="2" stroke-linecap="round"/>
<path d="M13.833 53.5834C13.833 50.1316 11.0348 47.3334 7.58301 47.3334C4.13123 47.3334 1.33301 50.1316 1.33301 53.5834V74.4167C1.33301 77.8685 4.13123 80.6667 7.58301 80.6667C11.0348 80.6667 13.833 77.8685 13.833 74.4167V53.5834Z" stroke="#3454CF" stroke-width="2"/>
</svg>
