<svg width="101" height="100" viewBox="0 0 101 100" fill="none" xmlns="http://www.w3.org/2000/svg">
<path d="M7.01049 15.0388C6.80384 15.0388 6.5121 14.9676 6.39055 14.7777L6.37839 14.7539L6.36624 14.7302C6.25684 14.5996 6.25684 14.2909 6.25684 13.9941V13.9823C6.25684 13.9229 6.25684 13.8636 6.25684 13.8042C6.26899 12.7477 6.26899 11.6792 6.25684 10.6346V10.6227C6.25684 9.42368 6.25683 8.17719 6.26899 6.95444V6.9307C6.26899 6.6814 6.45133 6.4321 6.68229 6.349C6.82815 6.30151 7.05911 6.30151 7.29007 6.30151C7.363 6.30151 7.43594 6.30151 7.50887 6.30151C8.05588 6.30151 8.63935 6.31339 9.35654 6.31339C9.83061 6.31339 10.3168 6.31339 10.7909 6.31339C11.265 6.31339 11.7391 6.31339 12.2253 6.31339C13.1248 6.31339 13.8663 6.31339 14.5349 6.32526H14.5835C14.7294 6.32526 14.8752 6.39648 14.9968 6.5152C15.1183 6.63391 15.1913 6.78824 15.1791 6.9307V6.94257C15.1913 9.42368 15.1913 11.9285 15.1791 14.3978V14.4215C15.1791 14.564 15.1183 14.7183 14.9968 14.837C14.8752 14.9557 14.7172 15.027 14.5713 15.027H14.547C13.684 15.0388 12.7601 15.0388 11.581 15.0388C11.0583 15.0388 10.5235 15.0388 10.0008 15.0388H9.89139C9.32007 15.0388 8.76091 15.0388 8.18959 15.0388C7.83707 15.0388 7.48456 15.0388 7.13205 15.0388H7.09558C7.0348 15.0388 7.02264 15.0388 7.01049 15.0388ZM7.58181 13.733H13.842V7.61923H7.58181V13.733Z" fill="#3454CF"/>
<path d="M36.7305 15.0508C36.0984 15.0508 35.4541 15.0389 34.822 15.0389C34.3723 15.0389 33.9225 15.0389 33.4727 15.0389C33.023 15.0389 32.5732 15.0389 32.1235 15.0389C31.1632 15.0389 30.4217 15.0389 29.7166 15.027H29.668C29.5221 15.027 29.3641 14.9558 29.2426 14.8371C29.121 14.7184 29.0602 14.5641 29.0602 14.4216V14.3979C29.0481 12.8783 29.0481 11.3351 29.0481 9.83927C29.0481 8.93704 29.0481 8.03482 29.0481 7.14447V7.10886V7.07324C29.0238 6.76459 29.2061 6.44406 29.4735 6.36096C29.5951 6.32535 29.7774 6.31348 29.9841 6.31348H30.1178C30.9565 6.31348 31.7953 6.31348 32.634 6.31348H35.8431C36.2685 6.31348 36.7062 6.31348 37.1316 6.31348H37.1681H37.1802C37.1924 6.31348 37.2167 6.31348 37.2288 6.31348C37.4233 6.31348 37.7151 6.3847 37.8366 6.57465L37.8488 6.59839L37.8609 6.62213C37.9582 6.75272 37.9703 7.06137 37.9703 7.34628C37.9703 7.40564 37.9703 7.465 37.9703 7.51248C37.9582 8.79459 37.9582 10.1123 37.9703 11.3825V11.4656C37.9703 12.3797 37.9703 13.2938 37.9703 14.2079V14.2317V14.2435C37.9825 14.5166 37.8731 14.7896 37.6908 14.8965L37.6665 14.9202L37.6543 14.9321C37.5084 15.0389 37.2045 15.0389 36.9006 15.0389C36.8399 15.0389 36.7791 15.0389 36.7305 15.0508ZM30.373 13.7331H36.6332V7.61932H30.373V13.7331Z" fill="#3454CF"/>
<path d="M51.5854 7.12076V7.1445C51.5854 8.04672 51.5854 8.94895 51.5854 9.85117C51.5854 11.347 51.5854 12.8902 51.5975 14.4098V14.4216C51.5975 14.6234 51.6826 14.8371 51.8528 15.0033C52.023 15.1695 52.2418 15.2645 52.4727 15.2645H52.4849C53.7491 15.2764 55.0376 15.2764 56.3018 15.2764C57.566 15.2764 58.8545 15.2764 60.1187 15.2645H60.143C60.3618 15.2645 60.5806 15.1695 60.7508 15.0033C60.9209 14.8371 61.006 14.6234 61.006 14.4216V14.4098C61.0182 11.9405 61.0182 9.43567 61.006 6.95456V6.94269C61.006 6.72901 60.9209 6.51532 60.7508 6.34912C60.5806 6.18292 60.3618 6.08795 60.1551 6.08795H60.1065C59.4015 6.07608 58.66 6.07608 57.6997 6.07608C57.2499 6.07608 56.8002 6.07608 56.3504 6.07608C55.9006 6.07608 55.4509 6.07608 55.0011 6.07608C54.369 6.07608 53.7248 6.07608 53.0927 6.06421C53.0197 6.06421 52.9468 6.06421 52.8739 6.06421C52.6186 6.06421 52.3755 6.06421 52.181 6.12357C51.8163 6.24228 51.5489 6.65778 51.5854 7.08515V7.12076ZM53.4087 7.85678H59.1827V13.4957H53.4087V7.85678Z" fill="#3454CF"/>
<path d="M20.5763 13.5549C20.4426 13.5549 20.3211 13.5193 20.2238 13.4481L20.1995 13.4362L20.1873 13.4243C20.0536 13.3412 19.9564 13.175 19.9321 12.9851C19.9078 12.807 19.9442 12.6408 20.0415 12.5221C20.2967 12.2728 20.625 12.0472 20.9532 11.8098C21.172 11.6555 21.4029 11.4893 21.6217 11.3231L22.4483 10.6702L21.6217 10.0291C21.4029 9.86292 21.1841 9.69672 20.9653 9.55426C20.6493 9.32871 20.3575 9.11502 20.0901 8.88947C19.9807 8.7945 19.9199 8.64017 19.9199 8.4621C19.9199 8.28403 19.9807 8.11783 20.0901 8.02286L20.1144 7.99912L20.1266 7.98724C20.236 7.8804 20.394 7.82104 20.5763 7.82104C20.7344 7.82104 20.8924 7.86853 21.0018 7.9635L21.0261 7.98724C21.3664 8.23654 21.719 8.48584 22.0593 8.73514C22.7279 9.22186 23.4086 9.72046 24.065 10.2191C24.1987 10.314 24.2717 10.4921 24.2717 10.6939C24.2717 10.8957 24.1866 11.0619 24.065 11.1688C23.4208 11.6674 22.74 12.1541 22.0958 12.6289L22.0715 12.6408C21.7311 12.8901 21.3908 13.1394 21.0504 13.3887L21.0261 13.4124C20.9045 13.4955 20.7465 13.5549 20.5763 13.5549Z" fill="#3454CF"/>
<path d="M43.5258 11.6793C42.918 12.0829 42.5411 12.3559 42.4804 12.7952V12.807C42.4317 13.1038 42.5776 13.3294 42.6749 13.4481C42.8572 13.6618 43.1368 13.8042 43.392 13.8042C43.4771 13.8042 43.5622 13.7924 43.6352 13.7567C43.9998 13.5905 44.3402 13.3294 44.6927 13.0563C44.8872 12.9139 45.0817 12.7596 45.2883 12.6171C45.5193 12.439 45.7624 12.2728 45.9934 12.1066C46.4066 11.8098 46.7956 11.5368 47.136 11.2163C47.2819 11.062 47.3426 10.8245 47.3183 10.5871C47.2819 10.3259 47.1481 10.0885 46.9415 9.95792L46.9172 9.94605C46.5768 9.69675 46.2365 9.44745 45.9083 9.19815C45.2154 8.68768 44.5104 8.15347 43.7932 7.67862C43.6838 7.60739 43.5501 7.57178 43.4163 7.57178C43.1611 7.57178 42.8937 7.69049 42.7113 7.88043C42.6141 7.9754 42.4682 8.17721 42.4804 8.43838V8.46213C42.4925 8.96072 42.8937 9.24564 43.5501 9.68488C43.8053 9.85107 44.0728 10.0291 44.3037 10.2428L44.8021 10.6821L44.3159 11.1213C44.0606 11.335 43.7932 11.5131 43.5258 11.6793Z" fill="#3454CF"/>
<path d="M92.2337 30.531L92.3674 30.1392L92.7928 30.1273C92.9387 30.1273 93.0724 30.1273 93.2183 30.1273C93.4006 30.1273 93.5829 30.1273 93.7531 30.1273C93.9233 30.1273 94.1056 30.1273 94.2758 30.1273C94.6526 30.1273 94.9322 30.1155 95.1875 30.0917C95.3941 30.068 95.6008 29.9493 95.7467 29.7712C95.9047 29.5813 95.9655 29.3438 95.929 29.1301V29.1064C95.8804 28.7028 95.4792 28.3585 95.0781 28.3585H95.0416C94.4095 28.3466 93.8261 28.3466 93.2791 28.3466C92.6834 28.3466 92.1364 28.3466 91.5894 28.3585C91.2247 28.3585 90.8601 28.6434 90.775 29.0233C90.4225 30.4122 89.8876 31.6825 89.1947 32.7746L89.1826 32.7865C88.9881 33.0596 88.8908 33.4988 89.1218 33.8193C89.3771 34.128 89.681 34.4129 89.997 34.7215C90.1915 34.9115 90.3982 35.1014 90.5927 35.3032L90.9938 35.7187L90.5805 36.1224C89.8633 36.8228 89.1461 37.5232 88.4289 38.2236L88.0156 38.6153L87.5902 38.2355C87.3714 38.0336 87.1647 37.8318 86.9702 37.63C86.6299 37.2739 86.3017 36.9415 85.9249 36.7278C85.8276 36.6922 85.7425 36.6684 85.6453 36.6684C85.3292 36.6684 84.9524 36.8821 84.5756 37.1077C84.3811 37.2145 84.1866 37.3332 83.9799 37.4282C83.3114 37.7844 82.6064 37.998 81.9256 38.1999C81.561 38.3067 81.2206 38.4135 80.8802 38.5322C80.4426 38.8053 80.4183 39.2801 80.4548 40.2299C80.467 40.5385 80.4791 40.8472 80.4548 41.1558L80.4062 41.7019C80.4062 41.7019 79.4945 41.7019 79.3243 41.7019C78.8503 41.7019 78.3762 41.7019 77.9021 41.7019H77.5253L77.3551 41.3695C74.2068 35.0658 69.0649 29.7949 62.8655 26.5303L62.5616 26.3641L62.5495 26.0198C62.5373 25.6518 62.5252 25.2482 62.5252 24.7852V24.2391L63.0843 24.1917C63.2059 24.1798 63.3396 24.1798 63.4976 24.1798C63.68 24.1798 63.8744 24.1917 64.0568 24.1917C64.2391 24.2035 64.4214 24.2035 64.5916 24.2035C65.2116 24.2035 65.5398 24.0967 65.7464 23.8236C65.9166 23.4913 66.0138 23.1114 66.1354 22.7196C66.257 22.2922 66.3907 21.8411 66.5973 21.4138C66.7432 21.0101 66.962 20.654 67.1686 20.3097C67.3753 19.9655 67.5698 19.6331 67.6792 19.2888C67.74 18.7902 67.3631 18.4222 66.7675 17.888C66.5244 17.6743 66.2691 17.4487 66.0625 17.1994L65.71 16.7839L66.0989 16.4041C66.8161 15.7036 67.5333 15.0032 68.2505 14.3028L68.6516 13.9111L69.0771 14.2791C69.308 14.4809 69.5147 14.6946 69.7213 14.9083C70.0617 15.2525 70.3777 15.5849 70.7546 15.7986C70.8518 15.8342 70.9369 15.858 71.0341 15.858C71.3502 15.858 71.727 15.6443 72.116 15.4187C72.347 15.2882 72.5901 15.1457 72.8453 15.0389C73.4774 14.7065 74.1338 14.5165 74.7659 14.3266C75.1185 14.2197 75.4588 14.1248 75.7749 14.006C76.2246 13.7449 76.2611 13.2463 76.2246 12.2847C76.2125 11.9879 76.2003 11.6674 76.2246 11.3825L76.2732 10.8364H80.4426L80.4791 11.3943C80.5034 11.6911 80.4913 11.9998 80.4791 12.2847C80.467 12.7833 80.4426 13.2582 80.5885 13.6736C80.7587 14.0179 81.1477 14.1366 81.7676 14.2791C82.0472 14.3503 82.3268 14.4215 82.6064 14.5284C83.2749 14.7302 83.8706 15.0507 84.454 15.3475C84.7822 15.5137 85.0861 15.6799 85.4022 15.8224C85.4751 15.8342 85.548 15.8461 85.6088 15.8461C86.0707 15.8461 86.4962 15.4069 86.9338 14.932C87.1526 14.6946 87.3835 14.4572 87.6267 14.2672L88.0521 13.9229L88.4411 14.3028C88.7328 14.5877 89.0246 14.8727 89.3163 15.1576C89.7296 15.5612 90.155 15.9886 90.5805 16.3922L91.0059 16.7958L90.6048 17.2232C90.4103 17.4369 90.1915 17.6268 89.997 17.8167C89.6567 18.1373 89.3406 18.4341 89.0853 18.7783C88.8422 19.182 89.1704 19.7399 89.3163 19.9655L89.3285 19.9892C89.9362 20.9627 90.3982 22.0786 90.775 23.5031V23.515C90.8601 23.883 91.2247 24.1679 91.6016 24.1679H91.6137C92.1486 24.1798 92.6956 24.1798 93.2791 24.1798C93.8261 24.1798 94.3974 24.1798 95.0295 24.1679H95.0781C95.4914 24.1679 95.8925 23.8118 95.9412 23.42V23.3963C95.9776 23.1826 95.9047 22.9452 95.7467 22.7434C95.6008 22.5534 95.3941 22.4347 95.1996 22.4228C94.9322 22.3991 94.6526 22.3872 94.2758 22.3872C94.1056 22.3872 93.9233 22.3872 93.7531 22.3872C93.5708 22.3872 93.3885 22.3872 93.2061 22.3872C93.0724 22.3872 92.9265 22.3872 92.7928 22.3872L92.3674 22.3753L92.2337 21.9717C91.9784 21.2001 91.638 20.4166 91.2491 19.6449L91.0546 19.2769L91.3463 18.9801C91.5773 18.7427 91.8204 18.5172 92.0513 18.2916C92.3917 17.9592 92.7199 17.6505 93.0116 17.3182C93.2912 16.9976 93.2304 16.4397 92.8901 16.131L92.8779 16.1191L92.8658 16.1073C92.258 15.5018 91.6259 14.8845 91.0181 14.291C90.4468 13.733 89.839 13.1513 89.2555 12.5696L89.2434 12.5577L89.2312 12.5459C88.903 12.1779 88.4046 11.6911 87.9549 11.6911C87.8698 11.6911 87.7968 11.703 87.7117 11.7386C87.262 11.976 86.8852 12.3678 86.4962 12.7833C86.2531 13.0326 86.0099 13.2938 85.7425 13.5193L85.4386 13.7805L85.074 13.6024C84.1744 13.1632 83.4208 12.8664 82.7036 12.6408L82.2903 12.5103L82.2782 12.0829C82.266 11.7624 82.2782 11.43 82.2782 11.1213C82.2782 10.6465 82.2903 10.1953 82.2538 9.74423C82.2174 9.35248 81.8162 9.00821 81.4029 9.00821H81.3665C80.2968 8.99634 79.3 8.99634 78.3154 8.99634C77.27 8.99634 76.2368 8.99634 75.2643 9.00821H75.2279C74.8146 9.00821 74.4256 9.35248 74.3891 9.73236C74.3526 10.1953 74.3526 10.6583 74.3648 11.1451C74.3648 11.4537 74.377 11.7624 74.3648 12.071L74.3526 12.4865L73.9515 12.6171C73.1249 12.8901 72.3226 13.2107 71.5811 13.5787L71.2043 13.7686L70.8883 13.4837C70.633 13.2581 70.402 13.0207 70.1711 12.7833C69.8429 12.4509 69.5268 12.1422 69.1865 11.8573C69.0163 11.7149 68.8096 11.6793 68.6759 11.6793C68.4085 11.6793 68.1411 11.7861 67.9831 11.976L67.9709 11.9879L67.9588 11.9998C66.5852 13.3294 65.1751 14.7065 63.7894 16.0717L63.7772 16.0835L63.765 16.0954C63.4247 16.3922 63.3639 16.9501 63.6435 17.2707C63.9474 17.6031 64.2634 17.9236 64.6159 18.2441C64.8469 18.4697 65.09 18.6952 65.321 18.9327L65.6127 19.2294L65.4182 19.5974C65.0171 20.3691 64.6889 21.1526 64.4336 21.9242L64.312 22.3041L63.9109 22.3397C63.765 22.3516 63.607 22.3635 63.4247 22.3635C63.2059 22.3635 62.9992 22.3516 62.7926 22.3516C62.5859 22.3397 62.3914 22.3397 62.2091 22.3397C61.7594 22.3397 61.4311 22.3872 61.1637 22.4941C60.7261 22.7315 60.714 23.2894 60.7261 24.1086C60.7261 24.2391 60.7383 24.3697 60.7383 24.4884V25.3788L59.8874 25.0345C55.876 23.3725 51.4878 22.4584 47.209 22.3753C46.9294 22.3635 46.6377 22.3635 46.3459 22.3635C40.6206 22.3635 34.9317 23.7999 29.8871 26.5303L29.3888 26.8034L29.0849 26.3404C28.8539 25.9842 28.6473 25.6281 28.4528 25.272C28.1246 24.6903 27.8207 24.1442 27.4195 23.6812C27.2858 23.5743 27.1399 23.515 26.9698 23.515C26.52 23.515 25.9608 23.8474 25.5719 24.1086L25.2437 24.3222L24.9033 24.1086C24.4414 23.8236 23.9552 23.5506 23.4689 23.3013L23.1407 23.1351V22.779C23.1407 22.6721 23.1407 22.5653 23.1407 22.4703C23.1407 22.1379 23.1407 21.8174 23.0921 21.5206C23.007 21.1645 22.618 20.8796 22.2291 20.8796C22.2169 20.8796 22.1926 20.8796 22.1804 20.8796H22.1561H22.1318C21.4997 20.8796 20.8676 20.8796 20.2355 20.8796C19.8101 20.8796 18.1204 20.8796 17.695 20.8796C17.2695 20.8796 16.8441 20.8796 16.4308 20.8796H16.4065C16.37 20.8796 16.3457 20.8796 16.3092 20.8796C16.0418 20.8796 15.6771 20.927 15.4826 21.1526L15.4705 21.1645L15.4583 21.1763C15.2274 21.4138 15.2152 21.7699 15.2274 22.3516C15.2274 22.4941 15.2274 22.6365 15.2274 22.779L15.2152 23.1232L14.8992 23.2894C14.3886 23.5625 13.9024 23.8355 13.4526 24.1086L13.1488 24.2985L12.8327 24.1323C12.6868 24.0611 12.5531 23.978 12.4194 23.9067C12.0791 23.7049 11.7508 23.515 11.447 23.515C11.4105 23.515 11.374 23.515 11.3376 23.5269H11.3132C11.0458 23.5625 10.7784 23.7524 10.6204 24.0492L10.6082 24.0611C10.1706 24.7852 9.74516 25.5212 9.30755 26.2454C8.78486 27.1239 8.27432 28.0024 7.75163 28.8808L7.73947 28.8927C7.64223 29.0589 7.41127 29.4625 7.55714 29.8068L7.56929 29.8187V29.8306C7.67869 30.1511 8.04336 30.341 8.46881 30.5666C8.60253 30.6378 8.72408 30.709 8.8578 30.7803L9.16169 30.9583L9.14953 31.3026C9.12522 31.8487 9.12522 32.3948 9.14953 32.9408L9.16169 33.2851L8.86995 33.4632C8.73624 33.5463 8.59037 33.6294 8.4445 33.7006C8.06768 33.9024 7.73947 34.0805 7.5936 34.3535L7.58145 34.3654C7.44774 34.6266 7.4842 34.9708 7.66654 35.2558L7.67869 35.2795C8.73624 37.0721 9.69654 38.6866 10.6082 40.2299L10.6204 40.2417C10.7784 40.5266 11.0458 40.7284 11.3132 40.7522H11.3254H11.3376C11.374 40.7522 11.4105 40.7641 11.447 40.7641C11.7508 40.7641 12.0791 40.5622 12.4316 40.3604C12.5531 40.2892 12.6747 40.218 12.7962 40.1467L13.1001 39.9806L13.404 40.1586C13.951 40.4791 14.4494 40.7641 14.9235 41.0134L15.3976 41.2627L15.2031 41.7494C15.0694 42.0937 14.9356 42.426 14.7898 42.7584C14.2549 44.088 13.6958 45.4651 13.3189 46.8659C11.447 53.3833 11.6779 60.4586 13.9389 66.7979L14.1091 67.2728L13.6593 67.5221C13.1974 67.7832 12.7111 68.0088 12.2492 68.2344C11.6536 68.5193 11.0944 68.7804 10.5717 69.101C10.2922 69.2909 10.2435 69.6352 10.28 69.8963C10.3165 70.1575 10.4745 70.478 10.8149 70.5849C12.9664 71.2853 15.1544 71.9857 17.2695 72.6742C19.3603 73.3509 21.5362 74.0395 23.6634 74.7399L23.6999 74.7517L23.7364 74.7636C23.8579 74.823 23.9795 74.8467 24.1253 74.8467C24.4657 74.8467 24.879 74.6686 25.0127 74.2769V74.265C25.7907 71.9976 26.5686 69.6827 27.3223 67.4508C27.9422 65.6227 28.5743 63.7351 29.2064 61.8713C29.3644 61.4202 29.3888 61.1115 29.255 60.886L29.2429 60.8741L29.2307 60.8622C29.097 60.5892 28.7688 60.3993 28.4163 60.3993C28.2826 60.3993 28.161 60.423 28.0395 60.4824L28.0152 60.4942C27.3952 60.791 26.7753 61.0997 26.1675 61.3965C25.6691 61.6458 25.1464 61.9069 24.6359 62.1444L23.9673 62.4649L23.7728 61.7645C22.5208 57.2059 22.7517 52.303 24.4171 47.97C24.4414 47.8987 24.4779 47.8275 24.5022 47.7444C25.6813 45.287 26.9333 43.1383 28.3069 41.3932C28.3191 41.3814 28.3312 41.3576 28.3555 41.3339C31.2607 37.8675 35.2478 35.2676 39.5752 33.9974C41.7511 33.3445 44.0364 33.0239 46.3581 33.0239C49.2147 33.0239 51.9983 33.5225 54.624 34.496C59.936 36.4429 64.4944 40.396 67.1079 45.3227C69.5268 49.81 70.3291 55.0572 69.3567 60.0787C68.2748 65.8245 64.8469 71.0716 59.936 74.4787C56.034 77.221 51.2325 78.7286 46.3946 78.7286H46.3703C40.5841 78.7286 34.8102 78.7286 29.0241 78.7286C21.9495 78.7286 14.8627 78.7286 7.80025 78.7286C7.76378 78.7286 7.72732 78.7286 7.703 78.7286C7.63007 78.7286 7.54498 78.7286 7.45989 78.7286C7.38696 78.7286 7.30187 78.7286 7.22893 78.7286C6.75486 78.7286 6.42666 78.7761 6.22001 78.9898L6.20785 79.0135L6.1957 79.0254C5.95259 79.251 5.94043 79.6783 5.94043 80.1769C5.95259 81.4709 5.95259 82.7886 5.94043 84.0589C5.94043 85.5309 5.94043 87.0386 5.95259 88.5344V88.5581C5.94043 88.7599 6.02552 88.9617 6.1957 89.1279C6.37804 89.3179 6.64546 89.4247 6.88857 89.4247C6.92504 89.4247 6.94935 89.4247 6.97366 89.4247H7.01013H84.9403L84.9524 90.0064C84.9646 90.4219 84.9524 90.8493 84.9524 91.2529C84.9402 91.8821 84.9403 92.5231 84.9767 93.1523C85.0253 93.5441 85.4265 93.8765 85.8519 93.8765C85.8884 93.8765 85.937 93.8765 85.9735 93.8646H85.9978H86.0221C86.2774 93.8409 86.5326 93.6153 86.8122 93.3423C88.1372 92.0364 89.4986 90.7187 90.8114 89.4366C92.3917 87.8933 94.0327 86.2907 95.6373 84.7118L95.6494 84.6999C95.8196 84.5456 95.9047 84.32 95.9047 84.0707C95.8925 83.8096 95.7831 83.5603 95.6008 83.4059L95.5886 83.3941L95.5765 83.3822C94.5068 82.3375 93.4371 81.2928 92.3674 80.2482C90.4589 78.3844 88.4897 76.4493 86.5326 74.5618L86.5205 74.5499L86.5083 74.538C86.326 74.3481 86.095 74.3006 85.9249 74.3006C85.5602 74.3006 85.1226 74.5143 85.0253 74.9061C84.9524 75.5471 84.9646 76.2 84.9767 76.8886C84.9889 77.3041 84.9889 77.7433 84.9767 78.1707L84.9646 78.7524H71.5811L72.432 77.7789C74.1338 75.8201 75.5804 73.7545 76.7473 71.6296C77.7805 69.8963 78.595 67.8307 79.3 65.5633V65.5514C79.3486 65.3852 79.3973 65.219 79.4459 65.0528C79.458 64.9935 79.4823 64.9341 79.4945 64.8748V64.8629C81.4273 58.1556 81.1112 50.8666 78.595 44.2661L78.3032 43.4826L79.1541 43.4589C79.2878 43.4589 79.4216 43.4589 79.5553 43.4589C79.7376 43.4589 79.92 43.4589 80.0901 43.4589C80.2603 43.4589 80.4426 43.4589 80.6128 43.4589C80.9653 43.4589 81.2449 43.447 81.488 43.4351C81.8527 43.3995 82.1931 43.0671 82.2295 42.711C82.266 42.2598 82.266 41.8087 82.2538 41.3339C82.2538 41.0134 82.2417 40.6928 82.2538 40.3723L82.266 39.9449L82.6793 39.8144C83.3965 39.6007 84.1501 39.292 85.0497 38.8528L85.4265 38.6747L85.7304 38.9596C85.9735 39.1852 86.1923 39.4107 86.4232 39.6363C86.7636 39.9806 87.0918 40.3011 87.4443 40.5979C87.578 40.7047 87.7604 40.7641 87.9549 40.7641C88.198 40.7641 88.4168 40.681 88.5748 40.5266C89.2798 39.8618 89.9849 39.1733 90.6656 38.4966C91.2612 37.9149 91.869 37.3214 92.4768 36.7397L92.5011 36.7159L92.5254 36.7041C92.8658 36.431 93.3763 35.8375 93.0967 35.327C92.8171 34.9234 92.4403 34.5791 92.0513 34.2111C91.8082 33.9855 91.5529 33.7481 91.322 33.4988L91.0424 33.202L91.2247 32.834C91.6502 32.0861 91.9784 31.3026 92.2337 30.531ZM13.6836 38.188C13.5742 38.1049 13.4526 38.0693 13.3068 38.0693C13.0515 38.0693 12.7111 38.188 12.3465 38.4135L11.8116 38.7459L10.9972 37.3689C10.6568 36.799 10.3286 36.2411 10.0004 35.6713L9.69654 35.1608L10.2314 34.864C10.7419 34.5791 11.0701 34.3417 11.1188 34.0093C11.1309 33.7243 11.0944 33.4276 11.058 33.1189C11.0094 32.7034 10.9607 32.2642 10.9972 31.8012C11.0094 31.5756 11.0337 31.362 11.0701 31.1601C11.1309 30.7684 11.1795 30.4241 11.0337 30.1748L11.0215 30.1511C10.9243 29.9611 10.6933 29.8187 10.4137 29.6525C10.3408 29.605 10.2679 29.5694 10.2071 29.5219L9.72085 29.2132L10.0126 28.7265C10.2679 28.2991 10.511 27.8836 10.7662 27.4563C11.0215 27.0289 11.2646 26.6134 11.5199 26.186L11.8238 25.6756L12.3465 25.9605C12.6625 26.1386 13.0272 26.3285 13.3189 26.3285C13.3919 26.3285 13.4526 26.3166 13.5256 26.2929C13.793 26.1623 14.0483 25.9842 14.3157 25.7824C14.6317 25.5569 14.9478 25.3194 15.3368 25.1414C15.5677 25.0108 15.7987 24.9277 16.0297 24.8327C16.4065 24.6784 16.7347 24.5597 16.9049 24.3104L16.917 24.2985C17.0507 24.1204 17.0507 23.8355 17.0629 23.5269C17.0629 23.4438 17.0629 23.3607 17.075 23.2894L17.1115 22.7315H17.6828C18.1812 22.7315 18.6917 22.7196 19.1901 22.7196C19.567 22.7196 19.9438 22.7196 20.3206 22.7196H21.3052V23.3132C21.3052 23.7999 21.3295 24.251 21.597 24.4647C21.8522 24.6309 22.144 24.7615 22.46 24.8921C22.8247 25.0464 23.2015 25.2007 23.5662 25.45C23.785 25.5806 23.9795 25.7231 24.1618 25.8655C24.4779 26.1029 24.7453 26.3166 25.037 26.3404H25.0613C25.0856 26.3404 25.0978 26.3404 25.1221 26.3404C25.3288 26.3404 25.5719 26.2098 25.8393 26.0792C25.9122 26.0436 25.9973 25.9961 26.0703 25.9605L26.5808 25.7112L26.8604 26.1979C26.9698 26.3879 27.0792 26.5659 27.1886 26.7559C27.298 26.9458 27.4074 27.1358 27.5168 27.3138L27.7964 27.7887L27.3344 28.0973C26.0824 28.9283 24.8668 29.8424 23.7485 30.8159L23.165 31.3263L22.8125 30.6497C22.3263 29.7237 21.597 29.0233 20.7582 28.679H20.7461C20.272 28.4772 19.7371 28.3704 19.2023 28.3704C18.2055 28.3704 17.2331 28.7384 16.5402 29.3676L16.528 29.3794C15.3611 30.3885 14.9356 32.0861 15.4705 33.5107C15.8595 34.591 16.8076 35.4813 18.011 35.8968L18.7525 36.158L18.3028 36.799C17.7922 37.5232 17.2695 38.3186 16.6617 39.3039L16.3822 39.755L15.8838 39.5413C15.0572 39.1496 14.34 38.6628 13.6836 38.188ZM20.9649 33.2851C20.6488 33.7837 20.1504 34.1161 19.6034 34.2229C19.4576 34.2586 19.3117 34.2704 19.1658 34.2704C18.2055 34.2704 17.3303 33.5938 17.1115 32.7034C16.8441 31.7418 17.3911 30.6615 18.3514 30.2698C18.6067 30.1629 18.8741 30.1036 19.1537 30.1036C20.1261 30.1036 21.0256 30.7803 21.2323 31.6706C21.366 32.2167 21.2809 32.7984 20.9649 33.2851ZM77.8656 80.5687H85.7547H85.7668C85.7912 80.5687 85.8155 80.5687 85.8276 80.5687C86.1072 80.5687 86.4719 80.4737 86.6542 80.2007L86.6664 80.1888L86.6785 80.1769C86.8487 79.9514 86.8487 79.6071 86.8487 79.2153C86.8487 79.0729 86.8487 78.9304 86.8487 78.788L86.9095 77.4465L87.8819 78.3962C88.7814 79.2866 89.6931 80.1651 90.6048 81.0554C91.5165 81.9458 92.416 82.8242 93.3277 83.7146L93.7531 84.1301L91.5043 86.3263C90.2888 87.5015 89.0853 88.6887 87.8819 89.864L86.9095 90.8137L86.8487 89.4722C86.8365 89.3297 86.8365 89.1754 86.8487 89.0448C86.8487 88.6531 86.8487 88.3088 86.6907 88.0832L86.6785 88.0595C86.5205 87.8339 86.2166 87.6915 85.8641 87.6915C85.8398 87.6915 85.8276 87.6915 85.8033 87.6915H85.7912H85.779C84.2352 87.6915 82.7036 87.6915 81.1598 87.6915H69.7578C66.7432 87.6915 60.7018 87.6915 57.6872 87.6915L60.483 86.5518C63.7772 85.1035 66.8404 83.1448 69.5755 80.723L69.7456 80.5687H69.9766C72.6022 80.5687 75.2279 80.5687 77.8656 80.5687ZM77.6225 64.8629L77.6104 64.8866L77.5982 64.9104C77.5739 64.9816 77.5496 65.0528 77.5496 65.1241C77.0147 66.9166 76.334 68.638 75.4467 70.3C75.3373 70.4424 75.2522 70.6086 75.1549 70.7867C75.1185 70.8579 75.0698 70.941 75.0334 71.0123C71.1922 78.0638 64.543 83.5484 56.7998 86.0533C53.4692 87.1454 49.9076 87.7034 46.2244 87.7034C46.042 87.7034 45.8476 87.7034 45.6652 87.7034C41.5323 87.7034 37.3872 87.7034 33.2543 87.7034H7.82456V80.5806H43.38C43.5258 80.5806 43.6595 80.5806 43.8054 80.5806C44.0607 80.5806 44.3281 80.5806 44.5834 80.5806C44.8386 80.5806 45.1061 80.5806 45.3613 80.5806C46.7592 80.5806 48.3881 80.5568 49.9683 80.3313C56.2771 79.4884 62.1726 76.1763 66.1597 71.2497C69.2959 67.4271 71.2043 62.6311 71.569 57.7638C71.9823 52.5523 70.633 47.2696 67.7886 42.8653C64.7132 38.0693 60.0211 34.4248 54.5632 32.6203C51.9619 31.7537 49.2268 31.3145 46.4189 31.3145C43.6231 31.3145 40.888 31.7537 38.2867 32.6203C33.7648 34.1042 29.644 36.9652 26.6416 40.7047C26.6416 40.7047 26.6416 40.7166 26.6294 40.7166C26.5079 40.8709 26.3863 41.0134 26.2769 41.1677L26.2647 41.1796C26.2404 41.2152 26.2161 41.2389 26.204 41.2745C25.0492 42.8178 24.0524 44.5035 23.2137 46.3317C23.1894 46.3673 23.165 46.403 23.1529 46.4504C23.0921 46.5929 23.0313 46.7353 22.9706 46.8897C22.9706 46.9015 22.9584 46.9015 22.9584 46.9134C20.7217 52.3624 20.6123 58.5948 22.6545 64.1269C22.7639 64.4355 23.1286 64.6729 23.4932 64.6729C23.5905 64.6729 23.6756 64.6611 23.7607 64.6255C24.1253 64.483 24.4779 64.3049 24.8547 64.115C25.0978 63.9963 25.3531 63.8657 25.6083 63.747L26.8847 63.1653L26.4471 64.4711C25.8879 66.145 25.3166 67.807 24.7574 69.4808L23.6026 72.9117L23.0192 72.7217C21.3538 72.1756 19.652 71.6296 18.011 71.1072C17.0021 70.7867 15.981 70.4543 14.9721 70.1338L13.6107 69.6945L14.8749 69.0416C14.9721 68.9941 15.0694 68.9466 15.1666 68.8992C15.6893 68.638 16.0297 68.4599 16.1269 68.1513L16.1391 68.1275L16.1512 68.1038C16.2728 67.8189 16.1269 67.4508 15.9689 67.0591C15.9446 66.9879 15.9202 66.9166 15.8959 66.8573C12.6261 58.3099 13.4283 48.4567 18.0232 40.5148C21.3903 34.6266 26.678 29.8424 32.9261 27.0764C37.0955 25.2007 41.7632 24.2035 46.431 24.2035C47.7317 24.2035 49.0323 24.2748 50.3209 24.4291C56.2285 25.1058 61.8444 27.3851 66.5365 31.0177C71.4231 34.7809 75.2157 40.0043 77.2092 45.7263C79.3486 51.84 79.4945 58.6304 77.6225 64.8629Z" fill="#3454CF"/>
<path d="M81.7681 20.3215C80.7348 19.7398 79.5436 19.4312 78.3158 19.4312C77.8782 19.4312 77.4285 19.4668 77.003 19.5499C75.0703 19.906 73.3199 21.1169 72.3109 22.7789C71.2534 24.5002 71.0346 26.6608 71.7518 28.5602C72.6756 31.1838 75.4106 33.0832 78.2672 33.0832C78.4617 33.0832 78.6562 33.0713 78.8507 33.0595H78.8629C80.9536 32.917 82.9715 31.7655 84.1263 30.0441C85.2689 28.4059 85.6093 26.2809 85.0258 24.3696C84.5396 22.6602 83.3483 21.1881 81.7681 20.3215ZM81.6465 30.1154C80.7348 30.8633 79.5314 31.3025 78.328 31.3025C78.097 31.3025 77.8661 31.2906 77.6594 31.255C75.9212 31.0413 74.3409 29.9017 73.6359 28.3465C73.016 27.0407 73.016 25.4855 73.6359 24.1797C74.268 22.7789 75.6173 21.6986 77.1489 21.3543C77.5257 21.2593 77.9269 21.2237 78.328 21.2237C79.5193 21.2237 80.6619 21.6155 81.5493 22.3159C82.7162 23.2181 83.4455 24.6071 83.4942 26.0435C83.5671 27.563 82.8621 29.13 81.6465 30.1154Z" fill="#3454CF"/>
<path d="M31.3336 54.0719C34.3361 57.5027 37.3507 60.9216 40.3531 64.3525L40.3775 64.3762C41.1068 65.2309 42.2373 65.7414 43.4042 65.7414C43.7446 65.7414 44.0728 65.6939 44.3888 65.6108H44.401C45.1182 65.4328 45.811 65.0054 46.4553 64.3525L46.4675 64.3406C47.2333 63.5927 47.9991 62.8329 48.7527 62.1088C49.6401 61.254 55.6085 55.4133 56.9943 54.06L57.1158 53.9413C59.0121 52.1012 60.9692 50.1899 62.8776 48.3024L62.8898 48.2905C63.06 48.1362 63.1572 47.8988 63.1451 47.6495C63.1451 47.4002 63.0357 47.1628 62.8533 47.0084L62.8412 46.9966L62.829 46.9847C61.3582 45.5364 59.8873 44.1118 58.6474 42.9009L58.6353 42.8891C58.453 42.6991 58.1977 42.5923 57.9303 42.5923C57.8087 42.5923 57.6993 42.616 57.5899 42.6635C57.3225 42.806 57.0915 43.0553 56.8363 43.3046C56.739 43.4114 56.6418 43.5064 56.5445 43.6013C52.3873 47.6613 48.23 51.7214 44.0728 55.7814L43.6109 56.2325L43.1854 55.7457C42.3102 54.7485 41.435 53.7632 40.5598 52.766C39.4901 51.5433 38.3718 50.273 37.2778 49.0384L37.2656 49.0147C37.1076 48.8247 36.8523 48.706 36.5727 48.706C36.3418 48.706 36.123 48.7891 35.9649 48.9316L35.9528 48.9435L35.9406 48.9553C34.9439 49.7863 33.9592 50.6173 32.9625 51.4483L31.4309 52.7304L31.4066 52.7423C31.2121 52.8847 31.0784 53.1222 31.0662 53.3833C31.0419 53.6445 31.1391 53.8938 31.3093 54.0719L31.3215 54.0837L31.3336 54.0719ZM33.7161 53.1222C33.9836 52.9085 34.251 52.6711 34.5184 52.4574C35.0168 52.03 35.5395 51.5908 36.0865 51.1871L36.5484 50.8429L36.9252 51.2821C37.9585 52.5049 39.0403 53.7276 40.0736 54.9029C40.8637 55.7932 41.6781 56.7192 42.4682 57.6452L42.5047 57.6926C42.8086 58.0369 43.0882 58.3693 43.4164 58.393H43.4407H43.465C43.5015 58.393 43.5379 58.4049 43.5622 58.4049C43.8054 58.4049 44.0849 58.2625 44.328 58.0132L47.0266 55.3777C50.5153 51.9588 54.0161 48.5517 57.517 45.1446L57.9424 44.7291L58.3679 45.1446C58.7082 45.4652 59.0364 45.7975 59.3646 46.1181C59.7415 46.4861 60.1304 46.866 60.5073 47.234L60.9449 47.6495L60.5194 48.065C59.5956 48.9672 58.6596 49.8932 57.7479 50.7835C56.897 51.6145 56.0218 52.4692 55.1588 53.3121C53.1288 55.2946 48.1571 60.1381 47.3183 60.9573C46.5525 61.7051 45.7624 62.4887 44.9723 63.2484C44.5469 63.6877 43.9512 63.937 43.3556 63.937C43.1854 63.937 43.0152 63.9132 42.8451 63.8776C42.1887 63.7233 41.7875 63.2603 41.4593 62.8804C41.4107 62.8211 41.3621 62.7736 41.3013 62.7023C39.6116 60.7673 37.8855 58.7967 36.2081 56.8973C35.345 55.9119 34.4819 54.9385 33.6189 53.9532L33.2178 53.5021L33.7161 53.1222Z" fill="#3454CF"/>
</svg>
