<svg width="86" height="86" viewBox="0 0 86 86" fill="none" xmlns="http://www.w3.org/2000/svg">
<path d="M6.21634 79.7834C11.0955 84.6667 18.9538 84.6667 34.6663 84.6667H51.333C67.0455 84.6667 74.9038 84.6667 79.783 79.7834C84.6663 74.9042 84.6663 67.0459 84.6663 51.3334C84.6663 46.4584 84.6663 42.3417 84.5205 38.8334M79.783 22.8834C74.9038 18 67.0455 18 51.333 18H34.6663C18.9538 18 11.0955 18 6.21634 22.8834C1.33301 27.7625 1.33301 35.6209 1.33301 51.3334C1.33301 56.2084 1.33301 60.325 1.47884 63.8334M42.9997 1.33337C50.858 1.33337 54.783 1.33337 57.2247 3.77504C59.6663 6.21671 59.6663 10.1417 59.6663 18M28.7747 3.77504C26.333 6.21671 26.333 10.1417 26.333 18" stroke="#3454CF" stroke-width="2" stroke-linecap="round"/>
<path d="M42.9993 65.2209C47.6035 65.2209 51.3327 62.1126 51.3327 58.2792C51.3327 54.4459 47.6035 51.3334 42.9993 51.3334C38.3952 51.3334 34.666 48.2251 34.666 44.3876C34.666 40.5542 38.3952 37.4459 42.9993 37.4459M42.9993 65.2209C38.3952 65.2209 34.666 62.1126 34.666 58.2792M42.9993 65.2209V68.0001M42.9993 37.4459V34.6667M42.9993 37.4459C47.6035 37.4459 51.3327 40.5542 51.3327 44.3876" stroke="#3454CF" stroke-width="2" stroke-linecap="round"/>
</svg>
