<svg width="19" height="17" viewBox="0 0 19 17" fill="none" xmlns="http://www.w3.org/2000/svg">
<path d="M18.173 7.07085L14.2625 10.881L15.1852 16.2667C15.2228 16.5052 15.1287 16.7375 14.9341 16.8818C14.8274 16.9634 14.6956 17.0011 14.5638 17.0011C14.4633 17.0011 14.3629 16.976 14.2687 16.932L9.43544 14.3899L4.60213 16.932C4.38871 17.045 4.13763 17.0262 3.94305 16.8818C3.74846 16.7437 3.6543 16.5052 3.69196 16.2667L4.61469 10.881L0.710381 7.07085C0.540901 6.90137 0.478131 6.65657 0.553455 6.4306C0.62878 6.20462 0.823367 6.03514 1.06189 6.00376L6.46641 5.21913L8.88306 0.323058C9.09648 -0.10378 9.7995 -0.10378 10.0066 0.323058L12.4233 5.21913L17.8278 6.00376C18.0663 6.04142 18.2609 6.20462 18.3362 6.4306C18.4116 6.65657 18.3488 6.90137 18.173 7.07085Z" fill="#FAAF38"/>
</svg>
