<svg width="18" height="17" viewBox="0 0 18 17" fill="none" xmlns="http://www.w3.org/2000/svg">
<path opacity="0.9" d="M17.8054 7.07085L13.8948 10.881L14.8175 16.2667C14.8552 16.5052 14.761 16.7375 14.5664 16.8818C14.4597 16.9634 14.3279 17.0011 14.1961 17.0011C14.0957 17.0011 13.9952 16.976 13.9011 16.932L9.06776 14.3899L4.23446 16.932C4.02104 17.045 3.76996 17.0262 3.57537 16.8818C3.38078 16.7437 3.28663 16.5052 3.32429 16.2667L4.24701 10.881L0.342705 7.07085C0.173226 6.90137 0.110455 6.65657 0.18578 6.4306C0.261104 6.20462 0.455691 6.03514 0.694218 6.00376L6.09873 5.21913L8.51538 0.323058C8.7288 -0.10378 9.43183 -0.10378 9.63897 0.323058L12.0556 5.21913L17.4601 6.00376C17.6987 6.04142 17.8932 6.20462 17.9686 6.4306C18.0439 6.65657 17.9811 6.90137 17.8054 7.07085Z" fill="#70758F" fill-opacity="0.3"/>
</svg>
