<svg width="62" height="62" viewBox="0 0 62 62" fill="none" xmlns="http://www.w3.org/2000/svg">
<g clip-path="url(#clip0_2374_2395)">
<path d="M57.172 33.3969C56.772 32.9969 56.2972 32.6796 55.7746 32.4631C55.252 32.2466 54.6918 32.1351 54.1262 32.1351C53.5605 32.1351 53.0004 32.2466 52.4778 32.4631C51.9552 32.6796 51.4803 32.9969 51.0804 33.3969L43.7076 40.7697C43.3841 40.1709 42.9051 39.6703 42.3212 39.3207C41.7372 38.971 41.0698 38.7852 40.3892 38.7829H29.604C28.6754 37.659 27.5223 36.7416 26.2186 36.0894C24.9149 35.4372 23.4892 35.0646 22.0331 34.9955C20.5769 34.9263 19.1224 35.1622 17.7627 35.688C16.4031 36.2138 15.1683 37.0179 14.1375 38.0487L9.99757 42.1886L8.76956 40.9606C8.59146 40.7826 8.34993 40.6825 8.09809 40.6825C7.84626 40.6825 7.60473 40.7826 7.42663 40.9606L3.62768 44.7596C3.44963 44.9377 3.34961 45.1792 3.34961 45.431C3.34961 45.6829 3.44963 45.9244 3.62768 46.1025L18.8235 61.2983C19.0016 61.4763 19.2431 61.5764 19.4949 61.5764C19.7468 61.5764 19.9883 61.4763 20.1664 61.2983L23.9654 57.4993C24.1434 57.3212 24.2434 57.0797 24.2434 56.8279C24.2434 56.576 24.1434 56.3345 23.9654 56.1564L22.7373 54.9284L23.803 53.8628C24.3384 53.3309 25.0617 53.0314 25.8164 53.0289H39.6978C40.9455 53.0323 42.1816 52.788 43.3344 52.3104C44.4871 51.8327 45.5336 51.1311 46.4134 50.2462L57.172 39.4885C57.572 39.0886 57.8893 38.6137 58.1058 38.0911C58.3223 37.5685 58.4338 37.0084 58.4338 36.4427C58.4338 35.877 58.3223 35.3169 58.1058 34.7943C57.8893 34.2717 57.572 33.7969 57.172 33.3969ZM19.4949 59.2839L5.64207 45.431L8.09809 42.975L21.951 56.8279L19.4949 59.2839ZM55.8291 38.1456L45.0714 48.9042C44.3673 49.612 43.5299 50.1732 42.6075 50.5552C41.6851 50.9371 40.6961 51.1323 39.6978 51.1294H25.8173C25.1936 51.1277 24.5757 51.2497 23.9994 51.4884C23.4232 51.7271 22.8999 52.0777 22.46 52.5199L21.3944 53.5855L11.3405 43.5315L15.4804 39.3916C16.3351 38.5371 17.3609 37.8732 18.4905 37.4434C19.6201 37.0136 20.8279 36.8278 22.0344 36.8981C23.241 36.9685 24.419 37.2934 25.491 37.8515C26.563 38.4095 27.5048 39.1882 28.2544 40.1362L28.4006 40.3214C28.4896 40.434 28.6029 40.5249 28.732 40.5874C28.8611 40.6499 29.0027 40.6824 29.1462 40.6823H40.3892C40.8929 40.6823 41.3761 40.8825 41.7323 41.2387C42.0885 41.5949 42.2886 42.078 42.2886 42.5818C42.2886 43.0856 42.0885 43.5687 41.7323 43.9249C41.3761 44.2812 40.8929 44.4813 40.3892 44.4813H27.0928C26.841 44.4813 26.5994 44.5813 26.4213 44.7595C26.2432 44.9376 26.1431 45.1791 26.1431 45.431C26.1431 45.6829 26.2432 45.9245 26.4213 46.1026C26.5994 46.2807 26.841 46.3808 27.0928 46.3808H40.3892C41.3182 46.3777 42.2137 46.0336 42.9058 45.4138C43.5979 44.794 44.0383 43.9417 44.1435 43.0187L52.4233 34.7398C52.882 34.3017 53.4919 34.0573 54.1262 34.0573C54.7605 34.0573 55.3704 34.3017 55.8291 34.7398C56.2806 35.1915 56.5343 35.804 56.5343 36.4427C56.5343 37.0814 56.2806 37.6939 55.8291 38.1456Z" fill="#3454CF"/>
<path d="M19.2517 20.1471C19.2384 20.1661 19.2184 20.1756 19.2061 20.1956C19.2032 20.2013 19.2032 20.2069 19.2004 20.2117C16.3117 23.8804 14.7427 28.415 14.7461 33.0844C14.7461 33.2402 14.747 33.3941 14.7575 33.5498C14.7743 33.7895 14.8814 34.0139 15.0571 34.1778C15.2328 34.3417 15.4641 34.4329 15.7044 34.4331C15.7262 34.4331 15.749 34.4321 15.7709 34.4302C16.0219 34.4127 16.2558 34.2962 16.421 34.1064C16.5863 33.9165 16.6694 33.6689 16.6522 33.4178C16.6456 33.3057 16.6456 33.1956 16.6456 33.0844C16.6464 29.0925 17.9133 25.2037 20.2641 21.9773C22.9499 23.7314 24.5217 25.4248 24.5863 26.688C24.487 27.8885 24.1077 29.0491 23.4789 30.0766C23.1803 30.6804 22.8991 31.2926 22.6356 31.9125C22.584 32.0282 22.5561 32.1531 22.5536 32.2798C22.551 32.4064 22.5739 32.5324 22.6207 32.6501C22.6676 32.7678 22.7375 32.875 22.8264 32.9652C22.9153 33.0555 23.0213 33.1271 23.1383 33.1758C23.2553 33.2245 23.3808 33.2492 23.5075 33.2486C23.6342 33.248 23.7595 33.2221 23.8761 33.1724C23.9926 33.1226 24.098 33.05 24.186 32.9589C24.2741 32.8678 24.343 32.76 24.3888 32.6419C24.6452 32.0264 24.9244 31.4509 25.1894 30.9038C25.9775 29.597 26.4225 28.1122 26.483 26.5873C26.3851 24.6717 24.6842 22.6231 21.4588 20.4919C22.913 18.8456 24.6403 17.4624 26.5646 16.4032C28.4138 20.0085 30.64 21.9108 33.0703 21.9108C33.2471 21.9109 33.4237 21.901 33.5993 21.8813C35.2834 21.7741 36.8906 21.1383 38.1923 20.0645C39.028 19.4187 39.3747 19.1508 41.2913 19.8204C43.0825 20.4444 44.9696 19.6627 46.6791 17.6341C48.1595 18.6945 49.4798 19.962 50.5996 21.3979C49.4563 22.6189 48.5566 24.0469 47.9489 25.6053C47.1388 27.3737 46.5908 28.464 45.5841 28.558C44.9296 28.5986 44.2732 28.5958 43.6191 28.5494C41.1137 28.426 37.9966 28.2797 35.7704 32.6571C35.2657 33.6431 34.9265 34.7055 34.7666 35.8016C34.7491 35.9252 34.7562 36.0509 34.7874 36.1717C34.8186 36.2926 34.8733 36.406 34.9483 36.5057C35.0234 36.6054 35.1173 36.6893 35.2248 36.7526C35.3323 36.8159 35.4512 36.8575 35.5748 36.8748C35.6189 36.8809 35.6633 36.8838 35.7078 36.8834C35.9367 36.8833 36.158 36.8005 36.3307 36.6503C36.5035 36.5 36.6162 36.2924 36.648 36.0657C36.7769 35.1762 37.053 34.3144 37.4648 33.5156C39.1325 30.2362 41.0738 30.333 43.5288 30.447C44.2712 30.499 45.0163 30.5 45.7588 30.4499C47.9128 30.2466 48.8094 28.2892 49.6755 26.3964C50.1664 25.1542 50.8539 23.9991 51.7118 22.9754C52.9822 24.9856 53.8603 27.2182 54.2998 29.5552C54.322 29.6784 54.3684 29.7961 54.4362 29.9013C54.5041 30.0066 54.5921 30.0974 54.6951 30.1685C54.7982 30.2396 54.9143 30.2896 55.0368 30.3157C55.1593 30.3417 55.2857 30.3433 55.4088 30.3204C55.5319 30.2974 55.6492 30.2503 55.754 30.1818C55.8588 30.1133 55.9491 30.0247 56.0196 29.9212C56.09 29.8177 56.1393 29.7013 56.1646 29.5787C56.1899 29.456 56.1907 29.3296 56.167 29.2067C55.293 24.5856 52.8843 20.395 49.331 17.3139C45.7778 14.2328 41.2883 12.4418 36.5901 12.2311V11.1835C36.5902 10.6516 36.7399 10.1305 37.022 9.67958C37.3041 9.22868 37.7074 8.86618 38.1856 8.63345C38.714 9.2492 39.3692 9.74349 40.1063 10.0825C40.8435 10.4215 41.6452 10.5972 42.4566 10.5975C43.226 10.5908 43.9887 10.4537 44.7122 10.192C45.9234 9.76789 47.0721 9.183 48.1275 8.453C48.5845 8.04288 49.1467 7.76817 49.7511 7.65963C50.3555 7.5511 50.9782 7.61304 51.5494 7.83852C51.7419 7.88828 51.9452 7.87636 52.1306 7.80442C52.316 7.73249 52.4741 7.60418 52.5827 7.43758C52.6913 7.27098 52.7449 7.0745 52.7358 6.87585C52.7268 6.67719 52.6556 6.48639 52.5324 6.33033C52.3272 6.07105 47.4921 0.0145772 42.8374 0.879788C38.3442 1.71746 37.8181 4.44225 37.5987 6.80615C36.8196 7.13617 36.1433 7.66913 35.6403 8.34947C35.1375 7.66878 34.4612 7.13548 33.682 6.8052C33.4626 4.44225 32.9364 1.71746 28.4432 0.878838C23.7876 0.00792897 18.9525 6.07105 18.7483 6.33033C18.6254 6.48642 18.5546 6.6771 18.5457 6.87555C18.5369 7.074 18.5905 7.27023 18.699 7.43662C18.8075 7.60301 18.9655 7.73118 19.1507 7.80311C19.3358 7.87503 19.5389 7.88708 19.7313 7.83757C20.3024 7.61198 20.9251 7.54998 21.5295 7.65852C22.134 7.76706 22.6962 8.04184 23.1532 8.45205C24.2086 9.18205 25.3573 9.76694 26.5684 10.191C27.2919 10.453 28.0546 10.5901 28.8241 10.5966C29.6354 10.5961 30.4371 10.4204 31.1743 10.0814C31.9114 9.74246 32.5666 9.2482 33.095 8.6325C33.5734 8.8653 33.9767 9.22795 34.2589 9.67903C34.541 10.1301 34.6906 10.6514 34.6906 11.1835V12.2149C31.6981 12.3492 28.7697 13.1274 26.1053 14.4965C23.4409 15.8656 21.1032 17.7923 19.2517 20.1471ZM43.185 2.74697C45.2659 2.35568 47.7533 4.16208 49.4476 5.78043C48.5891 5.9588 47.7819 6.32892 47.0866 6.86313C46.1595 7.50807 45.1493 8.02436 44.0835 8.39791C43.4262 8.68484 42.7021 8.78385 41.9919 8.68392C41.2817 8.58399 40.613 8.28904 40.0604 7.83187L42.5706 6.77766C42.6895 6.73222 42.7981 6.66332 42.8899 6.57507C42.9817 6.48681 43.0548 6.381 43.1049 6.26392C43.1549 6.14685 43.181 6.0209 43.1814 5.89356C43.1818 5.76623 43.1566 5.64011 43.1073 5.52271C43.058 5.40531 42.9856 5.29902 42.8944 5.21016C42.8032 5.12131 42.695 5.0517 42.5764 5.00549C42.4577 4.95927 42.331 4.93738 42.2037 4.94113C42.0764 4.94487 41.9512 4.97418 41.8355 5.02729L39.6112 5.96088C39.8752 4.33683 40.5419 3.23989 43.185 2.74697ZM27.1972 8.39791C26.1314 8.02466 25.1212 7.50869 24.1941 6.86408C23.4985 6.32865 22.6906 5.95783 21.8311 5.77948C23.5217 4.16113 26.0024 2.35663 28.0966 2.74602C30.7397 3.23894 31.4064 4.33588 31.6704 5.95993L29.4461 5.02634C29.3308 4.97629 29.2068 4.94963 29.0811 4.9479C28.9554 4.94616 28.8306 4.96939 28.714 5.01624C28.5974 5.06308 28.4912 5.13262 28.4016 5.2208C28.3121 5.30899 28.2409 5.41407 28.1922 5.52997C28.1436 5.64586 28.1184 5.77026 28.1182 5.89595C28.118 6.02164 28.1428 6.14612 28.191 6.26218C28.2393 6.37824 28.3101 6.48356 28.3994 6.57205C28.4886 6.66053 28.5946 6.73042 28.711 6.77766L31.2212 7.83187C30.6683 8.2885 29.9996 8.58302 29.2895 8.68277C28.5793 8.78252 27.8554 8.68359 27.1981 8.39696L27.1972 8.39791ZM41.9181 18.0273C39.2303 17.089 38.2369 17.6294 37.0298 18.562C36.0027 19.4196 34.7256 19.9218 33.3894 19.9933C31.1386 20.2506 29.3284 17.6417 28.2628 15.5817C30.9542 14.4471 33.8711 13.9484 36.7866 14.1245C39.7021 14.3006 42.5378 15.1467 45.0731 16.597C44.2497 17.523 43.0891 18.4357 41.9181 18.0273Z" fill="#3454CF"/>
</g>
<defs>
<clipPath id="clip0_2374_2395">
<rect width="60.7832" height="60.7832" fill="white" transform="translate(0.5 0.793335)"/>
</clipPath>
</defs>
</svg>
