<svg width="96" height="88" viewBox="0 0 96 88" fill="none" xmlns="http://www.w3.org/2000/svg">
<path d="M27.3855 87.6634C24.5553 87.5942 15.7397 87.1963 12.7948 87.0405C12.7183 87.0405 12.6418 87.0232 12.5653 87.0059H12.5462H12.527C12.2211 86.9886 11.9151 86.954 11.6091 86.9367C10.2132 86.8329 8.91283 86.7464 7.68897 86.2966C5.12651 85.4315 3.04213 83.4418 2.23897 81.0888C1.87563 80.1199 1.81827 79.0991 1.7609 78.0091C1.74178 77.7496 1.72265 77.4728 1.70353 77.2132C0.6709 63.4931 0.728266 49.4615 1.85651 35.4991C2.00949 33.8555 2.69792 32.2637 3.84529 31.0007C5.35599 29.3051 7.57423 28.2151 9.98371 28.0075C16.4663 27.4366 23.3123 27.1424 30.3113 27.1424C30.6172 27.1424 30.9041 27.1424 31.21 27.1424H31.7646L31.7837 26.6407C31.9558 22.5229 33.8681 18.4917 37.0425 15.6023C38.4958 14.2874 39.9683 12.9551 41.4216 11.6402C43.9267 9.37372 46.5274 7.0207 49.0899 4.71959C52.1113 2.03785 56.3565 0.359589 60.7739 0.0827637H89.3434C91.8676 0.273081 94.2197 1.76102 95.1949 3.81991C95.6348 4.70229 95.8451 5.72308 95.8069 6.9861C95.8069 16.4847 95.8069 25.9659 95.8069 35.4472C95.8069 44.9977 95.8069 54.5482 95.8069 64.0986C95.826 66.1229 94.6977 68.0953 92.862 69.2545C91.7146 70.0158 90.223 70.4137 88.6932 70.4137C88.6932 70.4137 88.5976 70.4137 88.5402 70.4137H70.0293C66.4534 70.4137 62.8774 70.4137 59.2823 70.4137H58.7469L58.7086 70.8982C58.6704 71.4518 58.6513 71.9882 58.613 72.5418C58.5365 73.9432 58.4409 75.4139 58.3262 76.8326C58.307 77.144 58.2879 77.4555 58.2688 77.7669C58.1732 79.151 58.0967 80.4486 57.523 81.6424C56.3565 84.3588 53.4116 86.4004 50.2181 86.7291C45.0741 87.1962 39.4711 87.4904 32.606 87.6115H27.3855V87.6634ZM29.967 28.7342C23.3888 28.7342 16.7341 29.011 10.1941 29.582C7.61248 29.7723 5.24125 31.2775 4.17037 33.4229C3.57757 34.5302 3.50108 35.7413 3.42458 36.9178C3.40546 37.1082 3.40546 37.2985 3.38634 37.4715C2.37283 50.811 2.39195 64.4101 3.42458 77.8707C3.42458 77.9918 3.44371 78.1129 3.44371 78.2513C3.50107 79.0472 3.55844 79.8777 3.84529 80.6909C4.51458 82.6113 6.23563 84.2377 8.35827 84.9124C9.37178 85.2585 10.4427 85.3277 11.4562 85.3796C11.9534 85.4142 12.4314 85.4488 12.9095 85.5007H12.9477H13.1007C18.3021 85.7429 24.7274 85.8813 30.6937 85.8813C36.0481 85.8813 43.7355 85.7775 49.893 85.2412C53.2969 84.947 56.1462 82.2999 56.3756 79.2202C57.5613 64.7042 57.5613 50.0151 56.3756 35.5337C56.1079 32.454 53.2204 29.8415 49.8165 29.582C43.2574 29.011 36.5835 28.7342 29.967 28.7342ZM80.719 68.8912C83.2432 68.8912 85.7865 68.8912 88.3107 68.8912C88.349 68.8912 88.4063 68.8912 88.4446 68.8912C89.6111 68.8912 90.5672 68.6836 91.3513 68.2683C92.9958 67.4551 94.0476 65.8288 94.0285 64.1159C94.0285 53.4409 94.0285 42.7485 94.0285 32.0734C94.0285 24.0109 94.0285 15.9656 94.0285 7.90308C94.0285 7.69546 94.0285 7.50515 94.0285 7.31483C94.0476 6.44975 94.0476 5.56737 93.6651 4.70229C92.9767 3.05864 91.2174 1.84753 89.3051 1.69181C88.8653 1.65721 88.4063 1.65721 87.8327 1.65721C87.5076 1.65721 87.1825 1.65721 86.8574 1.65721C86.5323 1.65721 86.2263 1.65721 85.9013 1.65721C85.6144 1.65721 85.3467 1.65721 85.1172 1.63991H85.0981C83.7021 1.63991 81.9046 1.63991 79.9541 1.63991C78.0418 1.63991 75.9956 1.63991 74.0642 1.63991C72.3049 1.63991 70.6413 1.63991 69.2453 1.63991C68.2127 1.63991 67.333 1.63991 66.6637 1.63991C66.5681 1.63991 66.4725 1.63991 66.3769 1.63991C66.1665 1.63991 65.9562 1.63991 65.7458 1.63991C65.5355 1.63991 65.306 1.63991 65.0956 1.63991C63.9674 1.63991 62.6479 1.67451 61.3858 2.10705C58.0393 3.12784 55.5534 6.05182 55.3813 9.23531C55.343 10.3945 55.343 11.5537 55.343 12.6783C55.343 13.5434 55.3621 14.4431 55.343 15.3255C55.3239 16.7096 54.7693 18.0764 53.7941 19.1491C52.5511 20.5678 50.6197 21.4329 48.6118 21.4848C48.0763 21.5021 47.4835 21.5021 46.7569 21.5021C46.2979 21.5021 45.839 21.5021 45.3991 21.5021C44.9402 21.5021 44.4813 21.5021 44.0223 21.5021C43.1427 21.5021 42.4351 21.5021 41.7849 21.5367C38.4958 21.6924 35.417 23.6821 34.0976 26.5023L33.7725 27.2117L34.6139 27.229C40.3699 27.3674 45.4756 27.6442 50.1799 28.0594C53.1248 28.3536 55.8785 30.1529 57.217 32.6097L57.37 32.9039H57.7334C62.0742 32.9039 66.4342 32.9039 70.7751 32.9039C76.0912 32.9039 81.4265 32.9039 86.7427 32.9039H86.7618C87.2207 32.9039 87.5076 32.9731 87.6605 33.1288L87.6797 33.1461L87.6988 33.1634C87.8518 33.3018 87.9283 33.4921 87.9091 33.7171C87.89 33.942 87.7944 34.1323 87.6414 34.2534L87.6223 34.2707L87.6032 34.288C87.4311 34.4437 87.0869 34.461 86.7235 34.461C82.9181 34.461 79.1127 34.461 75.2881 34.461H57.9628L58.0202 35.032C58.0967 35.8797 58.1732 36.7448 58.2306 37.5753C58.2497 37.9559 58.2879 38.3539 58.3262 38.7345L58.3644 39.219C58.3644 39.219 63.2216 39.219 65.4016 39.219H76.5502C80.0114 39.219 83.4727 39.219 86.9339 39.219H86.9721H87.0104C87.0486 39.219 87.0677 39.219 87.106 39.219C87.3737 39.219 87.6414 39.3747 87.8135 39.5996C87.89 39.7034 88.043 39.9975 87.8709 40.2917V40.309V40.3263C87.7179 40.6723 87.259 40.7761 86.9148 40.7761C86.8765 40.7761 86.8574 40.7761 86.8192 40.7761H86.8H86.7809C82.8416 40.7761 78.9023 40.7761 74.963 40.7761C69.666 40.7761 64.3881 40.7761 59.0911 40.7761H58.4983L58.5365 41.3124C58.5556 41.6412 58.5748 41.9699 58.5939 42.2813C58.6321 43.181 58.6895 44.1153 58.7469 45.015L58.7851 45.4994H59.3206C61.5006 45.4994 63.6614 45.4994 65.8414 45.4994C67.7155 45.4994 69.6086 45.4994 71.4827 45.5167C71.4827 45.5167 71.54 45.5167 71.5592 45.5167C71.8077 45.5167 72.0372 45.6378 72.2093 45.8282C72.3623 46.0185 72.4197 46.2434 72.3623 46.451V46.4683V46.4856C72.2667 46.8663 71.8269 47.0739 71.4444 47.0739C71.4062 47.0739 71.387 47.0739 71.3488 47.0739H71.3297H63.3937C62.0742 47.0739 60.7548 47.0739 59.4353 47.0739H58.8425L58.8616 47.6102C59.0911 54.6174 59.0911 61.6072 58.8234 68.3721L58.8042 68.9085H59.397C62.7627 68.9085 66.1474 68.9085 69.513 68.9085L80.719 68.8912ZM55.4577 2.79911C53.4499 3.54308 51.5567 4.68499 49.9886 6.10372C48.2484 7.67816 46.4892 9.26991 44.749 10.8444C42.6455 12.7475 40.542 14.6507 38.4193 16.5539C36.813 18.0072 35.5318 19.7201 34.7286 21.5367L33.9446 23.3188L35.6274 22.1423C37.5205 20.8101 39.7579 20.0315 41.8806 19.9623C42.4734 19.945 43.1044 19.945 43.9076 19.945C44.3474 19.945 44.7872 19.945 45.2462 19.945C45.686 19.945 46.1258 19.945 46.5848 19.945C47.4262 19.945 48.1146 19.945 48.7456 19.9277C51.3272 19.8412 53.5263 17.8688 53.6602 15.5331C53.6984 14.495 53.6793 13.4569 53.6793 12.4534C53.6793 11.4153 53.6602 10.3426 53.6984 9.30451C53.7749 7.33213 54.6355 5.30785 56.127 3.59499L57.4656 2.05515L55.4577 2.79911Z" fill="#3454CF"/>
<path d="M65.2293 26.6925C64.9807 26.6925 64.7321 26.5887 64.56 26.433C64.4644 26.3465 64.3306 26.1734 64.3497 25.9312V25.8966C64.3306 22.8342 64.3497 19.7373 64.3497 16.7268V16.0174L63.6039 16.2423C63.5274 16.2596 63.4509 16.2942 63.3744 16.3115C63.1641 16.3807 62.9537 16.45 62.8007 16.45C62.7625 16.45 62.7243 16.45 62.686 16.4326H62.6669H62.6478C62.2653 16.3461 61.9593 15.9655 62.0167 15.6022V15.5849V15.5676C62.0358 15.3426 62.2462 15.135 62.5521 14.8755C64.2732 13.3357 66.0134 11.7612 67.6962 10.2214C69.4364 8.64694 71.2148 7.03789 72.9932 5.44614C73.1462 5.30773 73.3374 5.23853 73.5669 5.23853C73.8155 5.23853 74.045 5.32503 74.1979 5.48075L74.2171 5.49805C76.072 7.159 77.9269 8.85456 79.7436 10.4982C81.3881 11.9861 83.0136 13.4568 84.6581 14.9447C84.8685 15.1523 85.0979 15.3773 85.1171 15.5849V15.6195C85.1744 15.9828 84.8493 16.3807 84.4478 16.45H84.4286H84.4095C84.3713 16.45 84.333 16.4673 84.2948 16.4673C84.1418 16.4673 83.9314 16.398 83.7402 16.3288C83.6637 16.3115 83.6064 16.2769 83.5299 16.2596L82.765 16.0174V17.2804C82.765 20.1179 82.7841 23.0592 82.765 25.9485C82.765 26.1561 82.6885 26.3292 82.5355 26.4676C82.3634 26.6233 82.153 26.7098 81.9427 26.7098C81.9236 26.7098 81.8662 26.7098 81.8662 26.7098C79.4949 26.7098 77.1428 26.7098 74.7716 26.7098H65.3823H65.3632C65.2676 26.6925 65.2485 26.6925 65.2293 26.6925ZM81.0057 25.118V24.599C81.0057 23.336 81.0057 22.073 81.0057 20.8273C81.0057 18.5954 81.0057 16.2942 80.9865 14.0277V13.8201L80.8144 13.6644C79.3993 12.4014 77.9842 11.1038 76.6074 9.85805C75.7278 9.04487 74.829 8.249 73.9302 7.43582L73.5286 7.07249L73.1271 7.43582C72.343 8.14519 71.5399 8.87186 70.7558 9.58122C69.2643 10.9307 67.7153 12.3149 66.2046 13.699L66.0325 13.8547V14.0623C66.0516 16.2942 66.0325 18.578 66.0325 20.7753C66.0325 22.0384 66.0325 23.3187 66.0325 24.5817V25.1007H66.6062C68.9009 25.1007 71.2148 25.1007 73.5095 25.1007H76.8751L81.0057 25.118Z" fill="#3454CF"/>
<path d="M74.562 21.3464H72.2673C71.6936 21.3464 71.1008 21.3464 70.5271 21.3464H70.4506C70.2785 21.3464 70.1064 21.2772 69.9726 21.1388C69.8578 21.0177 69.7814 20.8793 69.8005 20.7409V20.7063C69.7814 19.5471 69.7814 18.3879 69.8005 17.2633V17.246C69.8005 16.6058 69.8005 15.9829 69.8005 15.3428V15.3255V15.2909C69.7814 15.0141 69.9343 14.7372 70.1638 14.6334C70.3359 14.5642 70.5845 14.5642 70.8522 14.5642C70.9478 14.5642 71.0435 14.5642 71.1199 14.5642C71.5789 14.5642 72.0378 14.5642 72.4968 14.5642C72.8792 14.5642 73.2617 14.5642 73.6442 14.5642C74.0266 14.5642 74.4091 14.5642 74.7915 14.5642C75.5182 14.5642 76.0919 14.5642 76.6273 14.5815H76.6464C76.7994 14.5815 76.9524 14.6334 77.0671 14.7545C77.1819 14.8756 77.2584 15.014 77.2584 15.1525V15.1698C77.2775 16.0521 77.2775 16.9518 77.2775 17.8342V17.8861C77.2775 18.6301 77.2775 19.4087 77.2775 20.1699V20.291C77.2775 20.6371 77.2775 20.9658 77.1245 21.1042L77.1054 21.1215L77.0671 21.1561C76.9524 21.2772 76.6847 21.3464 76.2449 21.3464H76.111M71.1199 16.4847C71.1199 16.9864 71.1199 17.5055 71.1199 18.0072V18.0764C71.1199 18.5263 71.1199 18.9934 71.1199 19.4433V20.1353H71.8849C72.4394 20.1353 72.9749 20.1353 73.5294 20.1353H75.9389V18.6993C75.9389 17.9553 75.9389 17.2287 75.9389 16.4847V15.7926H75.174C74.6959 15.7926 74.2178 15.7926 73.7398 15.7926H72.8219C72.5159 15.7926 72.2099 15.7926 71.904 15.7926H71.1391L71.1199 16.4847Z" fill="#3454CF"/>
<path d="M10.7485 49.202C9.69673 49.202 8.6641 48.7695 7.89919 48.0255C7.17252 47.3161 6.79007 46.3818 6.84744 45.4994C6.9813 42.835 7.17252 39.3401 7.47849 35.7933C7.63147 34.4437 9.00831 33.2326 10.5381 33.1288C14.4009 32.8001 18.149 32.5752 21.7059 32.4541C24.4404 32.3502 27.2323 32.2983 30.0052 32.2983C36.3348 32.2983 42.8366 32.5752 49.3383 33.1288C50.9829 33.2326 52.3788 34.4956 52.4745 35.9663C52.7613 39.7034 52.9716 42.7658 53.0864 45.6552C53.1055 46.5202 52.7039 47.4199 51.9773 48.112C51.2506 48.8041 50.2753 49.202 49.3001 49.202C44.5767 49.202 39.8725 49.2193 35.1492 49.2193C32.5867 49.2193 22.3369 49.2193 19.7745 49.2193C16.8678 49.2193 13.942 49.2193 11.0353 49.2193H11.0162H10.9971C10.9206 49.202 10.825 49.202 10.7485 49.202ZM47.7702 47.6275C47.9041 47.6275 48.038 47.6275 48.1718 47.6275C48.3057 47.6275 48.4587 47.6275 48.5925 47.6275C48.8794 47.6275 49.2427 47.6275 49.6252 47.5583H49.6443C50.696 47.3507 51.4609 46.3991 51.3462 45.4129C51.2123 42.5236 51.0402 39.8591 50.849 37.2812C50.8299 37.1255 50.8299 36.9698 50.8108 36.814C50.7916 36.4334 50.7725 36.0009 50.6004 35.5683L50.5813 35.551L50.5622 35.5337C50.1223 34.7033 49.1471 34.6514 48.4969 34.6168C48.3822 34.6168 48.2674 34.5994 48.1718 34.5994C42.0525 34.115 35.895 33.8728 29.8713 33.8728C27.1176 33.8728 24.3257 33.9247 21.5911 34.0285C18.3402 34.1496 14.8981 34.3399 10.8059 34.686C9.90709 34.7206 9.18042 35.3261 9.12305 36.0874C8.87445 38.8902 8.72147 41.7623 8.56849 44.5306L8.53024 45.0669C8.49199 45.6206 8.47288 46.2953 8.97007 46.8663C9.37165 47.368 10.0792 47.6621 10.8632 47.6621C10.9015 47.6621 10.9397 47.6621 10.978 47.6621C17.212 47.6621 23.446 47.6621 29.6801 47.6621H47.4834C47.6364 47.6275 47.7129 47.6275 47.7702 47.6275Z" fill="#3454CF"/>
<path d="M84.2755 65.3098C84.0269 65.3098 83.7974 65.2233 83.6636 65.0849L83.6444 65.0676C83.4341 64.8773 83.415 64.5659 83.415 64.0987C83.415 63.9776 83.415 63.8392 83.415 63.7181L83.3958 63.2682L82.9178 63.2163C81.56 63.0779 80.3171 62.6108 79.4183 61.8668C79.1697 61.5727 79.3227 61.244 79.3609 61.1402C79.4757 60.9152 79.7434 60.6557 80.0876 60.6557C80.1258 60.6557 80.1641 60.6557 80.1832 60.6557C80.4892 60.7422 80.7951 60.8979 81.1202 61.0536C81.6174 61.2959 82.1337 61.5554 82.7648 61.6419L83.415 61.7284V61.1402C83.415 60.2059 83.415 59.2889 83.415 58.3546C83.415 57.4376 83.415 56.5206 83.415 55.6036V55.2749L82.8986 55.05C81.8278 54.5655 80.7378 54.0465 80.1832 53.1641C79.2079 51.607 79.7625 49.4097 81.3688 48.2851C81.8469 47.939 82.4206 47.7314 82.9943 47.5584L83.3576 47.4373L83.3767 47.0913C83.3767 46.9701 83.3767 46.8317 83.3767 46.7106C83.3767 46.33 83.3767 46.0013 83.5679 45.7936L83.5871 45.7763C83.7209 45.6033 83.9695 45.4995 84.2372 45.4995C84.4858 45.4995 84.7153 45.586 84.8492 45.7417L84.8683 45.759L84.8874 45.7763C85.0786 45.9494 85.0978 46.2435 85.1169 46.7106C85.1169 46.8144 85.1169 46.9182 85.1169 47.022L85.136 47.4027L85.5376 47.5065C86.3407 47.6968 87.3351 47.9909 88.0618 48.6138C88.253 48.7695 88.3104 49.029 88.2339 49.3059C88.1765 49.5135 88.0044 49.773 87.7176 49.8595H87.6985H87.6793C87.6029 49.8768 87.5264 49.8941 87.4499 49.8941C87.163 49.8941 86.8379 49.7038 86.4937 49.5135C86.3025 49.4097 86.1113 49.3059 85.92 49.2194L85.0978 48.856V49.6865C85.0978 50.7938 85.0978 51.9184 85.0978 53.0257V54.2714L85.4993 54.3752C86.6658 54.6867 88.1957 55.3268 88.9223 56.6071C89.9932 58.4065 89.3239 60.9325 87.4307 62.2648C86.8571 62.6973 86.1686 62.9395 85.4611 63.1644L85.0978 63.2855L85.0786 63.6316C85.0786 63.7527 85.0786 63.8911 85.0786 64.0295C85.0978 64.5313 85.0786 64.86 84.8683 65.0676L84.8492 65.0849C84.7536 65.2233 84.5241 65.3098 84.2755 65.3098ZM85.136 56.5898C85.136 57.7663 85.1169 59.3062 85.136 60.8633L85.1551 61.8149L86.0348 61.2959C87.3351 60.5346 87.9853 59.2024 87.6985 57.974C87.5455 57.23 86.9527 56.6071 85.9774 56.14L85.1551 55.7594L85.136 56.5898ZM82.4397 49.4789C81.7513 49.9806 81.3688 50.8284 81.4453 51.6243C81.5218 52.2817 81.9042 52.8181 82.5353 53.1295L83.3576 53.5275L83.3767 52.6797C83.415 51.5897 83.3958 50.7073 83.3767 49.8595L83.3385 48.8041L82.4397 49.4789Z" fill="#3454CF"/>
<path d="M29.9675 82.5421C23.4275 82.5421 16.8302 82.248 10.3475 81.6943C8.81771 81.5213 7.49824 80.241 7.44087 78.8396C6.84806 71.4691 6.5421 64.0294 6.58035 56.7108C6.56122 54.9461 8.24403 53.2851 10.1754 53.164C14.631 53.1467 19.3353 53.1294 25.4737 53.1294C28.2465 53.1294 31.0384 53.1294 33.8112 53.1294C36.584 53.1294 39.376 53.1294 42.1488 53.1294C44.4626 53.1294 46.7765 53.1294 49.0903 53.1294H49.1095C49.1668 53.1294 49.2433 53.1294 49.3007 53.1294C50.8496 53.1294 52.3221 53.9599 52.9532 55.2056L52.9723 55.2229C53.3739 55.9495 53.3739 56.8319 53.3547 57.697V57.7489C53.3356 64.8253 53.0488 71.9189 52.4751 78.8396C52.3986 79.9122 51.691 80.9157 50.6393 81.4002C50.0082 81.7116 49.2625 81.7635 48.4975 81.8154C48.2872 81.8327 48.096 81.85 47.8856 81.8673C41.9575 82.2999 35.9339 82.5421 29.9675 82.5421ZM19.2396 76.3827C19.2588 76.8845 19.2779 77.4035 19.2779 77.9053C19.297 78.6665 19.3161 79.4451 19.3544 80.2237L19.3735 80.6735L19.8707 80.7081C21.9933 80.8811 24.1542 80.9157 26.2577 80.933C27.0035 80.9503 27.7684 80.9503 28.5142 80.9676L29.107 80.985V80.4486C29.107 79.9295 29.107 79.4105 29.107 78.8915C29.107 78.0783 29.107 77.2478 29.107 76.4346V75.9156H28.2082C25.5119 75.9156 22.7774 75.881 20.1384 75.8464L19.2396 75.8291V76.3827ZM40.1217 75.8464C37.5402 75.881 34.4614 75.9156 31.4017 75.9329H30.8281V76.4519C30.8281 77.0229 30.8281 77.5938 30.8281 78.1648C30.8281 78.9261 30.8281 79.7046 30.8281 80.4659V80.985H31.4017C34.3467 80.9503 37.2725 80.8638 40.007 80.7773L40.5425 80.76L40.5616 80.2929C40.5998 79.4278 40.6381 78.5627 40.6572 77.7322C40.6763 77.2824 40.6763 76.8499 40.6954 76.4L40.7146 75.8637L40.1217 75.8464ZM50.7923 68.6143C49.511 68.6143 48.2489 68.6143 46.9677 68.6143C45.6865 68.6143 44.4244 68.6143 43.1432 68.6143H42.5886L42.5695 69.1161C42.493 72.611 42.4165 76.1924 42.3017 80.068L42.2826 80.6389L43.2579 80.5697C45.1893 80.4486 47.1972 80.3275 49.1668 80.1372C50.0082 80.0853 50.7158 79.4451 50.754 78.6838C51.0409 75.2062 51.2321 71.7459 51.366 69.1334L51.3851 68.597L50.7923 68.6143ZM10.8065 80.1718C12.8909 80.3621 15.0135 80.5005 17.0214 80.6216L17.6525 80.6562L17.5951 78.58C17.576 77.8188 17.5568 77.0575 17.5186 76.3135L17.4995 75.8291L16.964 75.8118C14.4972 75.7426 12.0303 75.6734 9.5635 75.6042L8.91332 75.5869L8.9707 76.1751C9.00894 76.5211 9.02806 76.8672 9.04719 77.2132C9.08543 77.7841 9.12368 78.3551 9.20017 78.9434C9.3149 79.5835 10.0033 80.1199 10.8065 80.1718ZM35.0733 68.6143C33.8495 68.6143 32.6256 68.6143 31.4017 68.6143H30.8281V69.1334C30.8281 69.7562 30.8281 70.3964 30.8281 71.0192C30.8281 71.9535 30.8281 72.9051 30.8472 73.8567L30.8663 74.3757L32.377 74.3584C34.9395 74.3411 37.5975 74.3238 40.1982 74.2719L40.7528 74.2546V73.7529C40.7719 72.8878 40.791 72.0227 40.8102 71.1576C40.8293 70.4829 40.8293 69.7908 40.8484 69.1161L40.8675 68.5797H39.5863C38.8405 68.6143 35.8191 68.6143 35.0733 68.6143ZM19.0675 68.6143V69.1334C19.0867 69.9984 19.1058 70.8462 19.1249 71.7113C19.144 72.4034 19.144 73.0781 19.1631 73.7702V74.2719H19.7177C23.2554 74.3238 25.9517 74.3584 28.5142 74.3584H29.0879V73.8394C29.0879 72.2649 29.0879 70.6905 29.0879 69.1161V68.597C29.0879 68.597 25.5502 68.597 24.0777 68.597C22.6244 68.6143 19.0675 68.6143 19.0675 68.6143ZM8.54999 68.6143L8.56912 69.1507C8.64561 70.604 8.7221 72.0573 8.79859 73.5107L8.81771 73.9951L9.35315 74.0124C11.8582 74.0816 14.3633 74.1508 16.8684 74.2373L17.4803 74.2546L17.4612 73.4415C17.423 72.0054 17.4039 70.5694 17.3656 69.1334L17.3465 68.6316C17.3465 68.6316 14.2295 68.6316 12.9674 68.6316C11.7053 68.6316 8.54999 68.6143 8.54999 68.6143ZM30.8472 61.8148C30.8472 62.6453 30.8472 63.4757 30.8472 64.3062C30.8472 65.0502 30.8472 65.8115 30.8472 66.5554V67.0745H31.4209C32.683 67.0745 33.9451 67.0745 35.2072 67.0745H40.9058V66.5554C40.9249 64.981 40.944 63.4065 40.9632 61.8321V61.313H34.71C33.62 61.313 32.5109 61.313 31.4209 61.313H30.8472V61.8148ZM11.8009 61.2957C10.8447 61.2957 9.86947 61.2957 8.91332 61.2957H8.32052L8.33964 61.8321C8.35876 62.5415 8.37789 63.2335 8.39701 63.9429C8.41614 64.808 8.43526 65.6903 8.45438 66.5727L8.4735 67.0745H9.02806C10.1181 67.0745 11.2081 67.0745 12.2981 67.0745H17.3082V66.5554C17.3082 65.9153 17.2891 65.2924 17.2891 64.6522C17.27 63.7007 17.27 62.7664 17.2509 61.8148V61.2957H11.8009ZM42.6842 61.7975C42.6651 62.7837 42.6651 63.7699 42.646 64.7561C42.646 65.3443 42.6268 65.9326 42.6268 66.5208V67.0399C42.6268 67.0399 44.9216 67.0399 45.7821 67.0399H51.4807L51.6337 61.2784H49.8744H46.0116C45.0937 61.2784 44.1758 61.2784 43.2579 61.2784H42.6842V61.7975ZM18.991 61.8148C19.0102 63.32 19.0293 64.8253 19.0293 66.3478V67.0572H29.0879V66.5381C29.0879 64.9637 29.0879 63.3892 29.0879 61.8148V61.2957H25.531H18.9719L18.991 61.8148ZM44.4053 59.7386C44.9789 59.7386 45.5718 59.7386 46.1454 59.7386C46.7382 59.7386 47.3119 59.7386 47.9047 59.7386C49.186 59.7386 50.1612 59.7386 51.0791 59.7213H51.6719L51.6528 59.185C51.6337 58.8216 51.6528 58.4583 51.6528 58.0949C51.6528 57.5586 51.6719 57.0222 51.6146 56.4686C51.4998 55.4824 50.5054 54.6865 49.3772 54.6865C49.3581 54.6865 49.3389 54.6865 49.3198 54.6865C48.6123 54.6865 47.8856 54.6865 47.1781 54.6865C46.6809 54.6865 44.6921 54.6865 44.1949 54.6865C43.8889 54.6865 42.7033 54.6865 42.7033 54.6865V55.3786C42.7033 56.6589 42.7033 57.9392 42.7033 59.2195V59.7386H43.277C43.6403 59.7386 44.0228 59.7386 44.4053 59.7386ZM10.577 54.6865C9.44877 54.6865 8.43525 55.4824 8.33964 56.4686C8.28227 57.0569 8.3014 57.6278 8.3014 58.1642C8.3014 58.5102 8.32052 58.8562 8.3014 59.2022L8.28227 59.7386H8.87508C10.0798 59.7386 11.2846 59.7386 12.4893 59.7386C13.4072 59.7386 14.306 59.7386 15.2239 59.7386H17.2509V59.0465C17.2509 57.7662 17.2509 56.4859 17.2509 55.2229V54.7038H16.2756C15.721 54.7038 15.1474 54.7038 14.5928 54.7038C14.0382 54.7038 13.4646 54.7038 12.91 54.7038C12.1642 54.7038 11.4184 54.7038 10.6726 54.7038C10.6344 54.6865 10.6153 54.6865 10.577 54.6865ZM36.5458 59.7386C37.827 59.7386 39.1274 59.7386 40.4086 59.7386H40.9823V59.2195C40.9823 57.8873 40.9823 56.5551 40.9823 55.2229V54.7038H40.4086C39.1274 54.7038 37.827 54.7038 36.5458 54.7038H30.8472V59.7559H32.8168L36.5458 59.7386ZM24.6896 59.7386C25.9709 59.7386 27.2712 59.7386 28.5525 59.7386H29.1261V59.2195C29.1261 57.8873 29.1261 56.5551 29.1261 55.2229V54.7038H28.5525C27.2712 54.7038 25.9709 54.7038 24.6896 54.7038H18.991V55.2229C18.991 56.5551 18.991 57.9046 18.991 59.2369V59.7559H20.9607L24.6896 59.7386Z" fill="#3454CF"/>
</svg>
