<svg width="219" height="43" viewBox="0 0 219 43" fill="none" xmlns="http://www.w3.org/2000/svg">
<path d="M199.807 36.3912H218.155V32.5053H204.294V23.5517H217.414V19.786H204.294V11.3732H218.155V7.4873H199.807V36.3912Z" fill="white"/>
<path d="M165.235 36.3912H169.341V15.0788H171.404L166.717 8.28852L178.174 36.3912H181.499L192.977 8.28852L188.29 15.0788H190.353V36.3912H194.459V7.4873H189.251L179.897 30.5424H179.777L170.423 7.4873H165.235V36.3912Z" fill="white"/>
<path d="M158.945 36.8116C159.386 36.8116 159.8 36.7916 160.187 36.7515C160.574 36.7114 160.895 36.6714 161.149 36.6313V33.2862C160.988 33.2996 160.808 33.3196 160.608 33.3463C160.421 33.3597 160.214 33.3663 159.987 33.3663C159.065 33.3663 158.371 33.1727 157.904 32.7855C157.436 32.3849 157.203 31.6504 157.203 30.5821V18.7641H161.149V15.3189H157.203V9.83057H152.756V15.3189H149.731V18.7641H152.756V30.8225C152.756 32.9324 153.263 34.4613 154.278 35.4095C155.306 36.3442 156.862 36.8116 158.945 36.8116Z" fill="white"/>
<path d="M139.616 36.8117C141.272 36.8117 142.74 36.538 144.022 35.9905C145.318 35.443 146.333 34.6818 147.067 33.707C147.801 32.7322 148.169 31.6038 148.169 30.3219V30.3018C148.169 28.7795 147.715 27.571 146.807 26.6763C145.912 25.7683 144.39 25.0672 142.24 24.5731L138.794 23.7719C137.673 23.5182 136.871 23.1643 136.391 22.7103C135.91 22.2563 135.67 21.7088 135.67 21.0678V21.0478C135.67 20.4869 135.823 19.9995 136.13 19.5856C136.437 19.1582 136.878 18.8311 137.452 18.6041C138.027 18.377 138.701 18.2635 139.475 18.2635C140.691 18.2635 141.652 18.5573 142.36 19.1449C143.068 19.7191 143.482 20.4669 143.602 21.3883L143.622 21.5285H147.688V21.2881C147.621 20.0997 147.247 19.0247 146.566 18.0632C145.899 17.0884 144.964 16.3206 143.762 15.7597C142.56 15.1989 141.131 14.9185 139.475 14.9185C137.86 14.9185 136.437 15.1855 135.209 15.7197C133.98 16.2405 133.026 16.9816 132.345 17.9431C131.664 18.8912 131.323 19.9995 131.323 21.2681V21.2881C131.323 22.8105 131.817 24.0657 132.805 25.0539C133.807 26.0287 135.309 26.7431 137.312 27.1971L140.757 27.9783C141.892 28.2587 142.68 28.6059 143.121 29.0199C143.562 29.4339 143.782 29.9814 143.782 30.6624V30.6824C143.782 31.2566 143.615 31.7507 143.281 32.1647C142.947 32.5786 142.473 32.8991 141.859 33.1261C141.245 33.3398 140.497 33.4466 139.616 33.4466C138.294 33.4466 137.265 33.1796 136.531 32.6454C135.797 32.0979 135.322 31.3434 135.109 30.382L135.069 30.1817H130.782L130.802 30.3619C130.949 31.6439 131.383 32.7723 132.104 33.7471C132.825 34.7085 133.814 35.463 135.069 36.0105C136.337 36.5447 137.853 36.8117 139.616 36.8117Z" fill="white"/>
<path d="M119.024 36.8117C120.306 36.8117 121.468 36.6381 122.51 36.291C123.551 35.9438 124.453 35.4697 125.214 34.8688C125.988 34.2545 126.616 33.5668 127.097 32.8057C127.577 32.0445 127.905 31.25 128.078 30.422L128.118 30.2017H123.992L123.932 30.3619C123.758 30.8961 123.451 31.3835 123.011 31.8242C122.583 32.2515 122.042 32.5987 121.388 32.8657C120.734 33.1195 119.979 33.2463 119.125 33.2463C117.963 33.2463 116.955 32.9926 116.1 32.4852C115.245 31.9644 114.584 31.2232 114.117 30.2618C113.663 29.287 113.436 28.1185 113.436 26.7565V25.0739C113.436 23.6451 113.67 22.4432 114.137 21.4684C114.604 20.4802 115.245 19.7324 116.06 19.225C116.875 18.7176 117.796 18.4638 118.824 18.4638C119.866 18.4638 120.78 18.7042 121.568 19.1849C122.37 19.6657 122.99 20.4001 123.431 21.3883C123.885 22.3631 124.112 23.5916 124.112 25.0739V26.7565L126.255 23.8921H111.233V26.9568H128.359V25.4945C128.359 23.3847 127.971 21.5352 127.197 19.9461C126.422 18.3437 125.321 17.1085 123.892 16.2405C122.476 15.3591 120.78 14.9185 118.804 14.9185C116.841 14.9185 115.132 15.3792 113.676 16.3006C112.221 17.2086 111.092 18.4906 110.291 20.1464C109.49 21.7889 109.089 23.7051 109.089 25.8951V25.9152C109.089 28.1319 109.483 30.0615 110.271 31.704C111.072 33.3331 112.214 34.595 113.696 35.4897C115.192 36.3711 116.968 36.8117 119.024 36.8117Z" fill="white"/>
<path d="M96.1096 36.3914H100.777L108.328 15.3193H103.781L98.5133 32.1449H98.4131L93.1251 15.3193H88.5181L96.1096 36.3914Z" fill="white"/>
<path d="M67.9868 36.3911H72.3535V24.1124C72.3535 23.0041 72.5538 22.0426 72.9544 21.228C73.3683 20.4135 73.9492 19.7792 74.697 19.3252C75.4582 18.8711 76.3462 18.6441 77.3611 18.6441C78.8567 18.6441 79.9717 19.0714 80.7062 19.9261C81.454 20.7807 81.8279 22.0026 81.8279 23.5916V36.3911H86.1745V22.7504C86.1745 20.32 85.5402 18.4104 84.2716 17.0217C83.003 15.6195 81.2136 14.9185 78.9034 14.9185C77.3143 14.9185 75.979 15.2523 74.8973 15.92C73.8157 16.5743 72.9944 17.4356 72.4336 18.5039H72.3535V15.3191H67.9868V36.3911Z" fill="white"/>
<path d="M58.7126 36.3912H63.1995V7.4873H58.7126V36.3912Z" fill="white"/>
<rect y="0.496582" width="29.3476" height="29.3476" rx="3.84585" fill="white"/>
<rect x="11.2896" y="12.8184" width="29.3476" height="29.3476" rx="3.84585" fill="#CCD6F2"/>
</svg>
